<svg xmlns="http://www.w3.org/2000/svg" width="36" height="36" viewBox="0 0 36 36"><circle cx="18" cy="18" r="18" fill="#f7931a"/><path d="M25.135,15.058c.355-2.367-1.449-3.64-3.914-4.49l.8-3.208L20.07,6.875,19.29,10c-.513-.129-1.039-.248-1.564-.368l.785-3.143L16.559,6l-.8,3.207c-.425-.1-.843-.192-1.247-.294l0-.01-2.693-.672-.52,2.085s1.449.332,1.419.352A1.039,1.039,0,0,1,13.63,11.8l-.91,3.654a1.736,1.736,0,0,1,.2.064l-.207-.051L11.44,20.591a.712.712,0,0,1-.9.463c.02.028-1.419-.354-1.419-.354l-.969,2.234,2.541.634c.472.119.935.243,1.39.359l-.808,3.244,1.951.486.8-3.208c.533.143,1.05.277,1.556.4l-.8,3.194,1.952.486.808-3.237c3.33.63,5.833.376,6.886-2.635.849-2.424-.042-3.823-1.794-4.735a3.112,3.112,0,0,0,2.493-2.867Zm-4.461,6.255c-.6,2.425-4.685,1.114-6.009.785l1.073-4.3C17.062,18.132,21.305,18.786,20.674,21.313Zm.6-6.29c-.55,2.206-3.948,1.084-5.049.81l.971-3.9c1.1.274,4.651.786,4.077,3.087Z" transform="translate(0.646 0.777)" fill="#fff"/></svg>