<svg xmlns="http://www.w3.org/2000/svg" width="19.592" height="17.694" viewBox="0 0 19.592 17.694"><g transform="translate(-1052.309 -457.647)"><path d="M18.776,17.694H.816A.819.819,0,0,1,0,16.875V2.455a.818.818,0,0,1,.816-.818H4.082V.819a.816.816,0,1,1,1.633,0v.818h8.164V.819a.816.816,0,1,1,1.633,0v.818h3.265a.818.818,0,0,1,.816.818v14.42A.819.819,0,0,1,18.776,17.694ZM1.633,3.273h0V16.057H17.96V3.273H15.511v.818a.816.816,0,1,1-1.633,0V3.273H5.714v.818a.816.816,0,1,1-1.633,0V3.273H1.633Z" transform="translate(1052.309 457.647)" fill="#dfe1e4"/><path d="M474.619,426.441a.614.614,0,1,1-.612.614.612.612,0,0,1,.612-.614" transform="translate(585.037 38.648)" fill="#b8c5d3"/><path d="M472.17,426.441a.614.614,0,1,1-.612.614.612.612,0,0,1,.612-.614" transform="translate(585.037 38.648)" fill="#b8c5d3"/><path d="M477.068,428.9a.614.614,0,1,1-.612.614.612.612,0,0,1,.612-.614" transform="translate(585.037 38.648)" fill="#b8c5d3"/><path d="M474.619,428.9a.614.614,0,1,1-.612.614.612.612,0,0,1,.612-.614" transform="translate(585.037 38.648)" fill="#b8c5d3"/><path d="M481.966,428.9a.614.614,0,1,1-.612.614.612.612,0,0,1,.612-.614" transform="translate(585.037 38.648)" fill="#b8c5d3"/><path d="M479.517,428.9a.614.614,0,1,1-.612.614.612.612,0,0,1,.612-.614" transform="translate(585.037 38.648)" fill="#b8c5d3"/><path d="M481.966,431.35a.614.614,0,1,1-.612.614.612.612,0,0,1,.612-.614" transform="translate(585.037 38.648)" fill="#b8c5d3"/><path d="M479.517,431.35a.614.614,0,1,1-.612.614.612.612,0,0,1,.612-.614" transform="translate(585.037 38.648)" fill="#b8c5d3"/><path d="M472.17,428.9a.614.614,0,1,1-.612.614.612.612,0,0,1,.612-.614" transform="translate(585.037 38.648)" fill="#b8c5d3"/></g></svg>