<svg xmlns="http://www.w3.org/2000/svg" width="15.6" height="16.8" viewBox="0 0 15.6 16.8"><path d="M45.593,125.6v2.531a2.735,2.735,0,0,1-.671,1.843,2.26,2.26,0,0,1-1.66.782h-.956a.71.71,0,0,1,0-1.392h.927a1.055,1.055,0,0,0,.778-.364,1.273,1.273,0,0,0,.315-.863V125.6a1.167,1.167,0,0,0-1.093-1.2H40.924a1.152,1.152,0,0,0-1.093,1.2v3.8a.674.674,0,0,1-.651.684.6.6,0,0,1-.444-.216.731.731,0,0,1-.171-.5V125.6a2.728,2.728,0,0,1,.689-1.84A2.258,2.258,0,0,1,40.924,123h2.309A2.548,2.548,0,0,1,45.593,125.6ZM34.676,123H32.367A2.508,2.508,0,0,0,30,125.6v2.538a2.5,2.5,0,0,0,2.367,2.594h2.309a2.254,2.254,0,0,0,1.673-.757,2.728,2.728,0,0,0,.694-1.837V125.6A2.5,2.5,0,0,0,34.676,123Zm1.093,5.141a1.273,1.273,0,0,1-.315.863,1.055,1.055,0,0,1-.779.364H32.367a1.045,1.045,0,0,1-.795-.353,1.264,1.264,0,0,1-.32-.874V125.6a1.268,1.268,0,0,1,.328-.859,1.045,1.045,0,0,1,.787-.343h2.309a1.16,1.16,0,0,1,1.093,1.2Zm5.154,3.924h2.309a2.5,2.5,0,0,1,2.367,2.594V137.2a2.508,2.508,0,0,1-2.367,2.6H40.924a2.5,2.5,0,0,1-2.36-2.6v-2.538A2.485,2.485,0,0,1,40.924,132.065Zm3.084,5.984a1.257,1.257,0,0,0,.318-.852v-2.538a1.262,1.262,0,0,0-.32-.85,1.046,1.046,0,0,0-.773-.353H40.924a1.152,1.152,0,0,0-1.093,1.2V137.2a1.257,1.257,0,0,0,.318.852,1.034,1.034,0,0,0,.775.35h2.309A1.034,1.034,0,0,0,44.008,138.049ZM30,137.19v-2.531a2.728,2.728,0,0,1,.694-1.837,2.254,2.254,0,0,1,1.673-.757h.948a.619.619,0,0,1,.608.324.762.762,0,0,1,0,.744.619.619,0,0,1-.608.324h-.948a1.159,1.159,0,0,0-1.1,1.2v2.507a1.18,1.18,0,0,0,1.1,1.2h2.324a1.044,1.044,0,0,0,.778-.349,1.263,1.263,0,0,0,.323-.852V133.4a.731.731,0,0,1,.285-.719.591.591,0,0,1,.713.023.737.737,0,0,1,.247.736v3.749a2.493,2.493,0,0,1-2.367,2.6h-2.3A2.546,2.546,0,0,1,30,137.19Z" transform="translate(-30 -123)" fill="#fff" fill-rule="evenodd" opacity="0.6"/></svg>