<svg xmlns="http://www.w3.org/2000/svg" width="15.002" height="20.002" viewBox="0 0 15.002 20.002"><path d="M16.127,21.5H4.875A1.878,1.878,0,0,1,3,19.626V10.875A1.878,1.878,0,0,1,4.875,9H16.127A1.878,1.878,0,0,1,18,10.875v8.751A1.878,1.878,0,0,1,16.127,21.5ZM4.875,10.25a.626.626,0,0,0-.625.625v8.751a.626.626,0,0,0,.625.625H16.127a.626.626,0,0,0,.625-.625V10.875a.626.626,0,0,0-.625-.625Z" transform="translate(-3 -1.499)" fill="#929aa3"/><path d="M15.376,8.751a.625.625,0,0,1-.625-.625V5a3.75,3.75,0,1,0-7.5,0V8.126a.625.625,0,0,1-1.25,0V5A5,5,0,1,1,16,5V8.126A.625.625,0,0,1,15.376,8.751Z" transform="translate(-3.5)" fill="#929aa3"/><path d="M11.667,16.334a1.667,1.667,0,1,1,1.667-1.667A1.669,1.669,0,0,1,11.667,16.334Zm0-2.084a.417.417,0,1,0,.417.417A.417.417,0,0,0,11.667,14.25Z" transform="translate(-4.166 -2.166)" fill="#929aa3"/><path d="M11.875,19.292a.625.625,0,0,1-.625-.625V16.375a.625.625,0,1,1,1.25,0v2.292A.625.625,0,0,1,11.875,19.292Z" transform="translate(-4.374 -2.624)" fill="#929aa3"/></svg>