<svg xmlns="http://www.w3.org/2000/svg" width="19.2" height="19.2" viewBox="0 0 19.2 19.2"><path d="M31.44,856.569a.72.72,0,1,1-1.44,0v-7.31A4.209,4.209,0,0,1,34.149,845H38.7a4.22,4.22,0,0,1,4.158,4.27v.894a.72.72,0,1,1-1.44,0v-.894a2.757,2.757,0,0,0-2.718-2.791H34.149a2.748,2.748,0,0,0-2.709,2.78Zm9.983,2.468a.72.72,0,1,1,1.44,0v.9a4.209,4.209,0,0,1-4.148,4.259H34.157A4.219,4.219,0,0,1,30,859.93a.72.72,0,1,1,1.44,0,2.758,2.758,0,0,0,2.717,2.791h4.557a2.748,2.748,0,0,0,2.709-2.78Zm7.723-4.72a.72.72,0,0,0-.666-.458H37.247a.74.74,0,0,0,0,1.48h9.49l-1.5,1.53a.754.754,0,0,0,0,1.046.707.707,0,0,0,1.018,0l2.732-2.792A.756.756,0,0,0,49.146,854.318Zm-2.709-1.072a.712.712,0,0,1-.507-.214l-.689-.7a.753.753,0,0,1,0-1.045.7.7,0,0,1,1.018-.006l.688.7a.753.753,0,0,1,.006,1.045A.708.708,0,0,1,46.437,853.246Z" transform="translate(-30 -845)" fill="#00162a" fill-rule="evenodd" opacity="0.6"/></svg>