<svg xmlns="http://www.w3.org/2000/svg" xmlns:xlink="http://www.w3.org/1999/xlink" width="94.797" height="94.797" viewBox="0 0 94.797 94.797"><defs><linearGradient id="a" y1="0.5" x2="1" y2="0.5" gradientUnits="objectBoundingBox"><stop offset="0" stop-color="#fbb040"/><stop offset="0.04" stop-color="#fbb040"/><stop offset="0.39" stop-color="#fec007"/><stop offset="1" stop-color="#ffde17"/></linearGradient></defs><path d="M968.083,1132.754a3.572,3.572,0,0,0-5.052-.006L920.17,1175.5l-15.464-16.8a3.573,3.573,0,1,0-5.257,4.839l17.983,19.53a3.566,3.566,0,0,0,2.552,1.151c.026,0,.051,0,.076,0a3.576,3.576,0,0,0,2.522-1.042l45.494-45.374A3.572,3.572,0,0,0,968.083,1132.754Zm-.862,30.866a3.572,3.572,0,0,0-3.573,3.573A40.253,40.253,0,1,1,923.4,1126.94a3.573,3.573,0,1,0,0-7.146,47.4,47.4,0,1,0,47.4,47.4A3.572,3.572,0,0,0,967.221,1163.62Z" transform="translate(-875.997 -1119.794)" fill="url(#a)"/></svg>