<svg xmlns="http://www.w3.org/2000/svg" width="15.6" height="18" viewBox="0 0 15.6 18"><path d="M35.289,478.387a2.056,2.056,0,0,1-2.176-.016l-.03-.031a.719.719,0,0,1-.207-.949.619.619,0,0,1,.886-.221.887.887,0,0,0,.443.134.869.869,0,0,0,.648-.254,1,1,0,0,0,.29-.671A2.3,2.3,0,0,1,37.293,474H38.3a2.3,2.3,0,0,1,2.216,2.371.963.963,0,0,0,.118.475.907.907,0,0,0,.544.451.84.84,0,0,0,.682-.1,2.136,2.136,0,0,1,2.954.853.732.732,0,0,1-.236.941.626.626,0,0,1-.879-.245.87.87,0,0,0-1.226-.348,2.088,2.088,0,0,1-2.171-.025,2.4,2.4,0,0,1-1.108-2,1,1,0,0,0-.251-.7.868.868,0,0,0-.643-.292H37.293a.874.874,0,0,0-.645.292,1,1,0,0,0-.256.7A2.364,2.364,0,0,1,35.289,478.387Zm1.1,11.264a.934.934,0,0,0,.9.958l-.007.016a.636.636,0,0,1,.556.343.73.73,0,0,1,0,.688.635.635,0,0,1-.556.344,2.3,2.3,0,0,1-2.216-2.371.963.963,0,0,0-.118-.475.87.87,0,0,0-1.226-.355,2.136,2.136,0,0,1-2.954-.853l-.5-.941a2.466,2.466,0,0,1,.8-3.162.962.962,0,0,0,.325-.348,1.01,1.01,0,0,0,.146-.764.952.952,0,0,0-.434-.628,2.466,2.466,0,0,1-.8-3.162.638.638,0,0,1,.41-.293.607.607,0,0,1,.484.1.709.709,0,0,1,.185.917.994.994,0,0,0,.332,1.3,2.273,2.273,0,0,1,.768.862,2.466,2.466,0,0,1-.8,3.162.994.994,0,0,0-.332,1.3l.51.941a.887.887,0,0,0,.544.454.828.828,0,0,0,.682-.106,2.037,2.037,0,0,1,1.086-.308A2.3,2.3,0,0,1,36.392,489.652Zm8.131-5.818a.95.95,0,0,1-.418-.583,1.019,1.019,0,0,1,.093-.73.952.952,0,0,1,.325-.347.716.716,0,0,0,.222-.941.634.634,0,0,0-.871-.262,2.467,2.467,0,0,0-.8,3.162,2.241,2.241,0,0,0,.8.941.945.945,0,0,1,.417.58,1.007,1.007,0,0,1-.092.725l-.5.941a.935.935,0,0,1-.546.451.835.835,0,0,1-.679-.1,2.089,2.089,0,0,0-2.174.028,2.4,2.4,0,0,0-1.105,2,.647.647,0,0,0,1.292,0,.965.965,0,0,1,.443-.84.838.838,0,0,1,.9.01,2.136,2.136,0,0,0,2.954-.853l.5-.941A2.468,2.468,0,0,0,44.523,483.834Zm-6.728-3.8a2.783,2.783,0,0,0-2.566,1.837,3.126,3.126,0,0,0,.605,3.24,2.646,2.646,0,0,0,3.029.64A2.984,2.984,0,0,0,40.572,483a3.07,3.07,0,0,0-.814-2.1A2.681,2.681,0,0,0,37.8,480.031Zm0,4.554A1.585,1.585,0,1,1,39.272,483,1.532,1.532,0,0,1,37.8,484.585Z" transform="translate(-30 -474)" fill="#00162a" fill-rule="evenodd" opacity="0.6"/></svg>