<svg xmlns="http://www.w3.org/2000/svg" width="27.747" height="30.663" viewBox="0 0 27.747 30.663"><g transform="translate(0.75 0.75)"><path d="M31.249,7.374A4.374,4.374,0,1,1,26.874,3,4.374,4.374,0,0,1,31.249,7.374Z" transform="translate(-5.002 -3)" fill="none" stroke="#fff" stroke-linecap="round" stroke-linejoin="round" stroke-width="1.5"/><path d="M13.249,17.874A4.374,4.374,0,1,1,8.874,13.5,4.374,4.374,0,0,1,13.249,17.874Z" transform="translate(-4.5 -3.293)" fill="none" stroke="#fff" stroke-linecap="round" stroke-linejoin="round" stroke-width="1.5"/><path d="M31.249,28.374A4.374,4.374,0,1,1,26.874,24,4.374,4.374,0,0,1,31.249,28.374Z" transform="translate(-5.002 -3.586)" fill="none" stroke="#fff" stroke-linecap="round" stroke-linejoin="round" stroke-width="1.5"/><path d="M12.885,20.265l9.959,5.8" transform="translate(-4.733 -3.481)" fill="none" stroke="#fff" stroke-linecap="round" stroke-linejoin="round" stroke-width="1.5"/><path d="M22.83,9.765l-9.945,5.8" transform="translate(-4.733 -3.188)" fill="none" stroke="#fff" stroke-linecap="round" stroke-linejoin="round" stroke-width="1.5"/></g></svg>