<svg xmlns="http://www.w3.org/2000/svg" width="76.407" height="73.885" viewBox="0 0 76.407 73.885"><path d="M38.943,76.347A36.943,36.943,0,1,1,51.419,4.626a4.089,4.089,0,0,1-2.767,7.7A28.729,28.729,0,1,0,65.767,28.994a4.088,4.088,0,0,1,7.622-2.961A36.96,36.96,0,0,1,38.943,76.347Z" transform="translate(-2 -2.462)" fill="#2c9f2c"/><path d="M68.376,3.571l-.27-.5h-.475c-.218,0-.671,0-3.3,1.337C39.047,17.264,30.132,35.34,28.124,40.183c-5.941-8.855-11.9-10.751-15.917-10.751a12.732,12.732,0,0,0-2.868.325c-1.233.289-1.5.961-1.553,1.334-.093.7.393,1.384,1.334,1.9,8.143,4.432,14.329,16.277,17.287,22.947.7,1.572,1.512,1.9,2.068,1.9h0c.579,0,1.405-.349,2.036-2C34.256,46.067,45.163,21.715,65.6,6.576,68.352,4.534,68.554,4.109,68.376,3.571Z" transform="translate(7.983 -1.413)" fill="#2c9f2c"/></svg>