<svg xmlns="http://www.w3.org/2000/svg" width="15.6" height="16.8" viewBox="0 0 15.6 16.8"><path d="M45.6,181.2a.621.621,0,0,1-.6.642H45a.569.569,0,0,1-.422-.191.663.663,0,0,1-.168-.46v-1.943c0-2.556-1.31-3.967-3.684-3.967H34.878c-2.38,0-3.684,1.411-3.684,3.967v6.3c0,2.556,1.31,3.96,3.684,3.96h5.845c2.38,0,3.684-1.411,3.684-3.96a.6.6,0,1,1,1.194,0c0,3.235-1.866,5.245-4.871,5.245H34.878c-3.012,0-4.878-2.01-4.878-5.245v-6.3C30,176.01,31.866,174,34.878,174h5.845c3,0,4.878,2.01,4.878,5.252Zm-11.731,5.134v-5.378a.657.657,0,0,1,.19-.445.569.569,0,0,1,.428-.168.58.58,0,0,1,.416.2.675.675,0,0,1,.16.462v5.37a.619.619,0,0,1-.617.622A.627.627,0,0,1,33.869,186.337Zm3.361-7.867v7.876a.6.6,0,1,0,1.194,0V178.47a.6.6,0,1,0-1.194,0Zm3.307,7.867v-2.512a.6.6,0,1,1,1.194,0v2.512a.6.6,0,1,1-1.194,0Z" transform="translate(-30 -174)" fill="#00162a" fill-rule="evenodd" opacity="0.6"/></svg>