<svg xmlns="http://www.w3.org/2000/svg" width="20" height="20" viewBox="0 0 20 20"><g transform="translate(-0.003)"><g transform="translate(0.003)"><path d="M19.094,10.084V7.273a1.814,1.814,0,0,0-1.673-1.8L14.81.91A1.8,1.8,0,0,0,12.342.245L3.393,5.455H1.821A1.82,1.82,0,0,0,0,7.273V18.182A1.82,1.82,0,0,0,1.821,20H17.275a1.82,1.82,0,0,0,1.818-1.818V15.371A1.361,1.361,0,0,0,20,14.091V11.364A1.361,1.361,0,0,0,19.094,10.084Zm-2.73-4.629H12.4l2.971-1.73ZM14.922,2.936,10.6,5.455H8.8l5.672-3.3ZM12.8,1.031A.879.879,0,0,1,13.474.94a.891.891,0,0,1,.546.422v0L6.994,5.455H5.2Zm5.385,17.151a.91.91,0,0,1-.909.909H1.821a.91.91,0,0,1-.909-.909V7.273a.91.91,0,0,1,.909-.909H17.275a.91.91,0,0,1,.909.909V10H15.457a2.727,2.727,0,0,0,0,5.454h2.727v2.727Zm.909-4.091a.455.455,0,0,1-.455.455H15.457a1.818,1.818,0,1,1,0-3.636h3.182a.455.455,0,0,1,.455.455Z" transform="translate(-0.003 0)" fill="#fbb23b"/><path d="M342.489,277.341a1.152,1.152,0,1,0,1.152,1.152A1.153,1.153,0,0,0,342.489,277.341Z" transform="translate(-327.18 -265.838)" fill="#fbb23b"/></g></g></svg>