<svg id="AQR" xmlns="http://www.w3.org/2000/svg" width="63.536" height="63.526" viewBox="0 0 63.536 63.526">
  <g id="AQRX_Token_Investment" data-name="AQRX Token Investment">
    <g id="Group_16664" data-name="Group 16664">
      <g id="Group_16568" data-name="Group 16568">
        <path id="Path_44976" data-name="Path 44976" d="M167.56,2221.164h-.078a31.7,31.7,0,0,0-44.78,0,.22.22,0,0,0-.116.116,31.7,31.7,0,0,0,0,44.78.216.216,0,0,0,.116.116,31.7,31.7,0,0,0,44.78,0l.078-.078a.325.325,0,0,0,.047-.07,31.7,31.7,0,0,0,0-44.78A.334.334,0,0,0,167.56,2221.164Zm-21.693-7.748a30.06,30.06,0,0,1,20.02,8.328l-3.874,3.874a24.658,24.658,0,0,0-16.146-6.7Zm-1.55,0v5.5a24.662,24.662,0,0,0-16.146,6.693l-3.874-3.874a30.062,30.062,0,0,1,20.021-8.323Zm-21.112,9.42,3.874,3.874a24.668,24.668,0,0,0-6.7,16.146h-5.5A30.064,30.064,0,0,1,123.206,2222.837Zm-8.324,21.569h5.5a24.661,24.661,0,0,0,6.693,16.146l-3.874,3.874A30.06,30.06,0,0,1,114.882,2244.406Zm29.44,29.44a30.06,30.06,0,0,1-20.02-8.329l3.874-3.874a24.659,24.659,0,0,0,16.146,6.7Zm-22.413-30.215a23.188,23.188,0,1,1,23.189,23.188h-.008a23.242,23.242,0,0,1-23.185-23.188Zm23.963,30.215v-5.5a24.656,24.656,0,0,0,16.146-6.694l3.874,3.874a30.056,30.056,0,0,1-20.024,8.321Zm21.112-9.421-3.874-3.874a24.652,24.652,0,0,0,6.7-16.146h5.5a30.057,30.057,0,0,1-8.334,20.019Zm2.828-21.568a24.654,24.654,0,0,0-6.693-16.146l3.874-3.874a30.054,30.054,0,0,1,8.324,20.02Z" transform="translate(-113.329 -2211.907)" fill="#828282"/>
      </g>
      <path id="Path_44979" data-name="Path 44979" d="M130.23,2250.155l-1.3,4.281h-2.846l4.84-15.106h3.519l4.908,15.106h-2.958l-1.368-4.281Zm4.326-2.084-1.187-3.721c-.292-.918-.538-1.949-.763-2.822h-.045c-.224.873-.447,1.926-.718,2.822l-1.164,3.721Zm19.141,8.785a60.433,60.433,0,0,1-5.894-1.95,3.941,3.941,0,0,0-.986-.225c-3.5-.178-6.61-2.755-6.61-7.663,0-4.661,2.891-7.934,7.215-7.934,4.371,0,6.971,3.363,6.971,7.62,0,3.654-1.681,6.095-3.9,6.969v.09c1.3.36,2.758.673,3.99.918Zm-2.219-10.017c0-2.891-1.412-5.536-4.145-5.536-2.758,0-4.237,2.622-4.215,5.648-.022,3.025,1.526,5.513,4.169,5.513C149.954,2252.465,151.478,2250,151.478,2246.839Zm5.293-7.306a26.129,26.129,0,0,1,4.168-.314c2.173,0,3.652.36,4.662,1.211a3.823,3.823,0,0,1,1.3,3.025,4.028,4.028,0,0,1-2.733,3.788v.067a3.84,3.84,0,0,1,2.106,2.913,30.314,30.314,0,0,0,1.188,4.214h-2.846a21.236,21.236,0,0,1-1.008-3.564c-.425-1.971-1.143-2.6-2.712-2.645h-1.388v6.208h-2.734Zm2.734,6.679h1.634c1.862,0,3.027-.987,3.027-2.487,0-1.659-1.165-2.421-2.958-2.421a8.039,8.039,0,0,0-1.7.134Z" transform="translate(-115.085 -2216.085)" fill="#d1d0ce"/>
    </g>
  </g>
</svg>
