<svg id="Avtar" xmlns="http://www.w3.org/2000/svg" xmlns:xlink="http://www.w3.org/1999/xlink" width="71" height="72" viewBox="0 0 71 72">
  <defs>
    <clipPath id="clip-path">
      <ellipse id="Mask" cx="35.5" cy="36" rx="35.5" ry="36" transform="translate(353 67)" fill="#fff"/>
    </clipPath>
  </defs>
  <g id="Mask_Group_37" data-name="Mask Group 37" transform="translate(-353 -67)" clip-path="url(#clip-path)">
    <g id="Group_19160" data-name="Group 19160" transform="translate(287.909 -110.623)">
      <g id="Group_19152" data-name="Group 19152" transform="translate(70.62 210.479)">
        <path id="Path_45120" data-name="Path 45120" d="M130.353,252.058c-.534.652-1.094,1.288-1.669,1.9a39.37,39.37,0,0,1-58.063-.6c.991-3.019,1.987-5.724,2.475-6.15a2.447,2.447,0,0,1,.446-.267c.052-.026.113-.056.175-.082.431-.211,1.058-.472,1.812-.77q.323-.123.677-.262a1.282,1.282,0,0,0,.128-.052c1.006-.385,2.172-.816,3.414-1.268a1.157,1.157,0,0,0,.124-.041c.3-.108.6-.215.9-.324l.6-.215c.365-.128.735-.262,1.1-.39.509-.18,1.022-.359,1.525-.533.96-.334,1.9-.663,2.783-.965,1.047-.359,2.007-.683,2.824-.96,0,0,0,0,.01-.005,1.571-.529,2.587-.867,2.587-.867l.416-3.861,1.165-10.832,16.659-3.255s.046,4.908.139,9.508c.067,3.6.17,7.007.3,7.711.652.365,1.617.832,2.767,1.366.683.313,1.432.652,2.217,1,.971.431,2,.878,3.029,1.335.143.062.287.123.426.185.287.128.575.251.858.375,1.565.682,3.1,1.355,4.43,1.951.242.112.478.221.7.318.282.133.554.262.811.379l.365.175c.416.2.78.375,1.089.539.072.036.143.077.211.113a3.815,3.815,0,0,1,.893.58A20.067,20.067,0,0,1,130.353,252.058Z" transform="translate(-70.621 -222.261)" fill="#ef8242"/>
        <path id="Path_45121" data-name="Path 45121" d="M103.328,236.352a22.094,22.094,0,0,0,6.9-.18,31.32,31.32,0,0,0,11.063-4.4c-.092-4.6-.139-9.507-.139-9.507l-16.659,3.255Z" transform="translate(-81.324 -222.262)" fill="#e26227"/>
      </g>
      <g id="Group_19155" data-name="Group 19155" transform="translate(70.619 225.827)">
        <g id="Group_19153" data-name="Group 19153" transform="translate(0 3.237)">
          <path id="Path_45122" data-name="Path 45122" d="M130.354,261.1c-.535.649-1.1,1.284-1.672,1.9a39.37,39.37,0,0,1-58.063-.6c.99-3.022,1.986-5.73,2.474-6.151a2.533,2.533,0,0,1,.448-.268,1.375,1.375,0,0,1,.174-.08c.435-.214,1.056-.475,1.812-.776.221-.08.441-.167.682-.261a.959.959,0,0,0,.126-.046c1-.388,2.174-.823,3.41-1.271.047-.013.087-.026.127-.04.294-.107.6-.221.9-.328.2-.067.4-.141.6-.214.361-.127.735-.261,1.1-.388.508-.18,1.023-.361,1.524-.535.963-.334,1.9-.662,2.782-.963.367-.127.722-.248,1.063-.368.2-.067.394-.133.588-.2l.762-.254c.141-.047.274-.094.408-.141.007,0,.007,0,.013-.007l6.532,2.835,5.75,2.494,6.612-3.129,5.135-2.427c.528.241,1.1.5,1.7.762.174.08.348.161.522.234.969.435,1.992.883,3.029,1.337.141.06.287.12.428.187.287.127.575.248.856.375,1.565.682,3.1,1.35,4.426,1.946.241.114.482.221.709.321.281.134.548.26.809.381.127.061.248.12.361.174.421.194.782.374,1.09.542a1.965,1.965,0,0,1,.214.114,3.844,3.844,0,0,1,.889.575A20.023,20.023,0,0,1,130.354,261.1Z" transform="translate(-70.619 -249.887)" fill="#fac2b1"/>
          <path id="Path_45123" data-name="Path 45123" d="M120.937,253.5l-6.593,10.571-5.77-9.936,5.75,2.494Z" transform="translate(-83.04 -251.068)" fill="#f69d80"/>
          <path id="Path_45124" data-name="Path 45124" d="M130.353,261.1c-.534.652-1.094,1.288-1.669,1.9a39.37,39.37,0,0,1-58.063-.6c.991-3.019,1.987-5.724,2.475-6.15a2.448,2.448,0,0,1,.446-.267c.052-.026.113-.056.175-.082.431-.211,1.058-.472,1.812-.77q.323-.123.677-.262a1.279,1.279,0,0,0,.128-.052c1.006-.385,2.172-.816,3.414-1.268a1.161,1.161,0,0,0,.124-.041c.3-.108.6-.215.9-.324l.6-.215c.365-.128.735-.262,1.1-.39.509-.18,1.022-.359,1.525-.533.96-.334,1.9-.663,2.783-.965.364-.123.718-.246,1.062-.365l1.761-.6L102.728,268.4l10.925-18.512c.529.241,1.1.5,1.7.765.169.082.344.159.518.236.971.431,2,.878,3.029,1.335.143.062.287.123.426.185.287.128.575.251.858.375,1.565.682,3.1,1.355,4.43,1.951.242.112.478.221.7.318.282.133.554.262.811.379l.365.175c.416.2.78.375,1.089.539.072.036.143.077.211.113a3.816,3.816,0,0,1,.893.58A20.068,20.068,0,0,1,130.353,261.1Z" transform="translate(-70.62 -249.886)" fill="#1e0e22"/>
          <path id="Path_45125" data-name="Path 45125" d="M123.733,250.651l-12.784,22.373L96.231,250.717l1.761-.6L111.109,268.4l10.925-18.512C122.563,250.127,123.132,250.389,123.733,250.651Z" transform="translate(-79 -249.886)" fill="#7b6160"/>
        </g>
        <g id="Group_19154" data-name="Group 19154" transform="translate(18.986)">
          <path id="Path_45126" data-name="Path 45126" d="M98.841,248.539l2.887-3.465,9.41,8.8s-8.366,6.156-8.431,5.963S98.841,248.539,98.841,248.539Z" transform="translate(-98.841 -245.074)" fill="#f7f1f6"/>
          <path id="Path_45127" data-name="Path 45127" d="M128.87,249.222l-2.908,11.316-8.842-5.757,8.983-6.925C126.754,248.221,127.72,248.688,128.87,249.222Z" transform="translate(-104.823 -245.984)" fill="#f7f1f6"/>
        </g>
      </g>
      <g id="Group_19159" data-name="Group 19159" transform="translate(78.139 186.259)">
        <g id="Group_19158" data-name="Group 19158">
          <g id="Group_19157" data-name="Group 19157">
            <g id="Group_19156" data-name="Group 19156">
              <path id="Path_45128" data-name="Path 45128" d="M94.621,214.927a2.5,2.5,0,0,0-2.888-.77c-1.8.513-.9,4.557.642,6.353s3.529,1.411,3.529,1.155S95.2,216.146,94.621,214.927Z" transform="translate(-84.723 -195.342)" fill="#e26227"/>
              <path id="Path_45129" data-name="Path 45129" d="M93.159,201.632s-1.732,5.9.257,9.112,3.914,3.593,3.914,3.593l-.77-15.144Z" transform="translate(-85.286 -190.492)" fill="#1e0e22"/>
              <path id="Path_45130" data-name="Path 45130" d="M95.452,201.838s.55,19.583,4.037,22.39c4.38,3.527,13.887-1.372,15.545-2.667,1.868-1.459,3.66-15.7,3.66-15.7l-4.33-7.682S98.217,198.737,95.452,201.838Z" transform="translate(-86.265 -190.16)" fill="#ef8242"/>
              <path id="Path_45131" data-name="Path 45131" d="M108.665,195.26s-21,8.213-22.452,7.443,1.371-3.226,1.371-3.226-6.844,1.08-5.646-.887,5.935-3.329,5.935-3.329-5.048-1.112-2.4-3.166,17.78-7.4,23.7-5.391c3.423,1.027,3.765,5.9,3.765,5.9s6.845.941,7.616,3.594-2.824,11.979-6.674,12.663c-2.994-.085-1.112-7.786-1.112-7.786s-2.567-.513-3.422-1.711C108.615,198.339,108.665,195.26,108.665,195.26Z" transform="translate(-81.797 -186.259)" fill="#1e0e22"/>
            </g>
          </g>
        </g>
        <path id="Path_45132" data-name="Path 45132" d="M127.8,217.431c.084-.126,1.662-4.721,4.6-3.673s-.455,6.886-2.032,7.729c-1.369.813-3.166.685-3.251.172A16.164,16.164,0,0,1,127.8,217.431Z" transform="translate(-96.619 -195.207)" fill="#ef8242"/>
      </g>
    </g>
  </g>
</svg>
