<svg id="Buttone_Wallet" data-name="Buttone Wallet" xmlns="http://www.w3.org/2000/svg" width="22.409" height="21.511" viewBox="0 0 22.409 21.511">
  <g id="Group_16669" data-name="Group 16669">
    <path id="Path_44980" data-name="Path 44980" d="M160.723,21.935l8.933-2.438-.473-.956a1.259,1.259,0,0,0-1.686-.569l-8,3.963Z" transform="translate(-155.486 -17.84)" fill="#374047"/>
    <path id="Path_44981" data-name="Path 44981" d="M330.84,86.46a1.258,1.258,0,0,0-.332.045l-2.1.574L322,88.828h10.446l-.393-1.439A1.256,1.256,0,0,0,330.84,86.46Z" transform="translate(-313.897 -84.733)" fill="#374047"/>
    <path id="Path_44982" data-name="Path 44982" d="M19.86,215.56H1.261a1.26,1.26,0,0,0-1.215.929,1.3,1.3,0,0,0-.045.33v14.019A1.259,1.259,0,0,0,1.258,232.1h18.6a1.259,1.259,0,0,0,1.258-1.258v-3.51H13.649a2.14,2.14,0,0,1-2.139-2.139v-2.8a2.136,2.136,0,0,1,2.136-2.136h7.469v-3.435A1.255,1.255,0,0,0,19.86,215.56Z" transform="translate(0 -210.584)" fill="#374047"/>
    <path id="Path_44983" data-name="Path 44983" d="M502.008,437.091a1.256,1.256,0,0,0-.44-.262,1.282,1.282,0,0,0-.408-.068h-7.5a1.259,1.259,0,0,0-1.258,1.258v2.8a1.259,1.259,0,0,0,1.258,1.258h7.5a1.282,1.282,0,0,0,.408-.068,1.22,1.22,0,0,0,.44-.262,1.254,1.254,0,0,0,.41-.929v-2.8A1.254,1.254,0,0,0,502.008,437.091Zm-5.722,2.579a.629.629,0,0,1-.629.629h-.418a.629.629,0,0,1-.629-.629v-.418a.616.616,0,0,1,.242-.493.635.635,0,0,1,.388-.136h.418a.629.629,0,0,1,.629.629v.418Z" transform="translate(-480.009 -426.219)" fill="#374047"/>
  </g>
</svg>
