<svg id="Coming_Soon...." data-name="Coming Soon...." xmlns="http://www.w3.org/2000/svg" width="533.38" height="488.258" viewBox="0 0 533.38 488.258">
  <path id="Path_45072" data-name="Path 45072" d="M1305.809,222.57c-10.48,9.783-20.4,16.091-28.231,21.076-92.1,58.59-201.069,41.511-224.229,37.34-34.2-6.159-100.308-18.064-148.1-67.9-72.309-75.4-61.05-194.18-4.962-272.591,10.259-14.343,64.452-93.948,174.6-106.714,66.66-7.726,144.364,7.856,200.635,49.656C1393.638-28.819,1385.229,148.437,1305.809,222.57Z" transform="translate(-852.807 201.737)" fill="#efeff4"/>
  <g id="Group_16716" data-name="Group 16716" transform="translate(269.907)">
    <g id="Group_16710" data-name="Group 16710" transform="translate(0 8.746)">
      <g id="Group_16707" data-name="Group 16707" transform="translate(28.713 89.652)" opacity="0.3">
        <path id="Path_45077" data-name="Path 45077" d="M1490.91,155.8a2.251,2.251,0,0,1,1.955,2.288c-.065,2.541-.242,5.117-.525,7.656a2.25,2.25,0,0,1-2.485,1.987l-.044-.006a2.25,2.25,0,0,1-1.943-2.48c.269-2.412.437-4.859.5-7.272a2.252,2.252,0,0,1,2.544-2.173Zm-2.687,19.418a2.252,2.252,0,0,1,1.892,2.784c-.626,2.475-1.365,4.947-2.195,7.348a2.25,2.25,0,1,1-4.253-1.47c.789-2.282,1.49-4.631,2.085-6.983A2.25,2.25,0,0,1,1488.223,175.214Zm-6.9,18.343a2.252,2.252,0,0,1,1.712,3.255c-1.159,2.269-2.431,4.515-3.781,6.677a2.25,2.25,0,0,1-3.817-2.384c1.282-2.053,2.49-4.185,3.591-6.34A2.251,2.251,0,0,1,1481.327,193.557ZM1470.5,209.9a2.251,2.251,0,0,1,1.43,3.677c-1.639,1.953-3.38,3.858-5.178,5.664a2.25,2.25,0,1,1-3.189-3.176c1.707-1.714,3.362-3.524,4.918-5.38A2.249,2.249,0,0,1,1470.5,209.9Zm-14.2,13.519a2.25,2.25,0,0,1,1.068,4.024c-2.026,1.537-4.146,3.009-6.3,4.374a2.25,2.25,0,1,1-2.408-3.8c2.049-1.3,4.064-2.7,5.989-4.157A2.243,2.243,0,0,1,1456.3,223.419Zm-16.835,10.04a2.25,2.25,0,0,1,.641,4.28c-2.319,1.053-4.712,2.019-7.113,2.872a2.25,2.25,0,0,1-1.506-4.241c2.281-.81,4.555-1.728,6.759-2.729A2.237,2.237,0,0,1,1439.466,233.46Zm-82.45-5.387a2.24,2.24,0,0,1,.9.321c2.053,1.277,4.188,2.482,6.349,3.581a2.25,2.25,0,0,1-2.04,4.011c-2.275-1.157-4.525-2.425-6.686-3.77a2.251,2.251,0,0,1,1.482-4.142Zm63.821,11.443a2.251,2.251,0,0,1,.159,4.436c-2.5.511-5.043.92-7.573,1.214a2.25,2.25,0,1,1-.521-4.47c2.4-.279,4.822-.668,7.192-1.153A2.252,2.252,0,0,1,1420.836,239.515Zm-46.117-3.029a2.256,2.256,0,0,1,.441.1c2.288.786,4.64,1.483,6.991,2.073a2.25,2.25,0,1,1-1.1,4.365c-2.473-.621-4.948-1.355-7.356-2.181a2.25,2.25,0,0,1,1.02-4.36Zm26.6,4.772a2.25,2.25,0,0,1-.348,4.481c-2.544-.061-5.119-.232-7.654-.511l-.048-.005a2.25,2.25,0,0,1,.538-4.467c2.408.264,4.854.426,7.271.484C1401.162,241.242,1401.242,241.248,1401.321,241.258Z" transform="translate(-1341.866 -155.777)" fill="#c6c9d3"/>
        <path id="Path_45078" data-name="Path 45078" d="M1312.592,376.939a2.24,2.24,0,0,1,1.219.566c.858.781,1.747,1.556,2.642,2.306a2.25,2.25,0,1,1-2.889,3.45c-.942-.788-1.876-1.6-2.78-2.425a2.25,2.25,0,0,1,1.808-3.9Z" transform="translate(-1310.048 -314.171)" fill="#c6c9d3"/>
      </g>
      <g id="Group_16708" data-name="Group 16708" opacity="0.3">
        <path id="Path_45079" data-name="Path 45079" d="M1211.4,157.367a2.251,2.251,0,0,1,1.955,2.166c.033,1.159.091,2.338.173,3.5a2.25,2.25,0,1,1-4.489.315c-.086-1.226-.147-2.467-.182-3.688a2.251,2.251,0,0,1,2.185-2.314A2.28,2.28,0,0,1,1211.4,157.367Z" transform="translate(-1208.856 -67.25)" fill="#c6c9d3"/>
        <path id="Path_45080" data-name="Path 45080" d="M1311.483-159.553q1.54.2,3.084.457a2.251,2.251,0,0,1,1.853,2.587,2.251,2.251,0,0,1-2.587,1.854c-2.376-.393-4.763-.688-7.121-.88a2.251,2.251,0,0,1-2.061-2.425,2.25,2.25,0,0,1,2.425-2.061C1308.536-159.9,1310.018-159.745,1311.483-159.553Zm14.645,3.19a2.284,2.284,0,0,1,.375.082c2.4.74,4.793,1.591,7.116,2.528a2.25,2.25,0,0,1,1.245,2.928,2.249,2.249,0,0,1-2.929,1.245c-2.206-.89-4.481-1.7-6.76-2.4a2.25,2.25,0,0,1-1.486-2.813A2.251,2.251,0,0,1,1326.128-156.363Zm-30.891-3.8a2.251,2.251,0,0,1,1.952,2.1,2.251,2.251,0,0,1-2.121,2.373c-2.374.133-4.773.369-7.134.7a2.252,2.252,0,0,1-2.543-1.913,2.25,2.25,0,0,1,1.913-2.544c2.486-.352,5.014-.6,7.513-.741A2.269,2.269,0,0,1,1295.237-160.159Zm48.588,11.483a2.249,2.249,0,0,1,.827.28c2.175,1.248,4.324,2.6,6.385,4.031a2.249,2.249,0,0,1,.569,3.13,2.248,2.248,0,0,1-3.131.57c-1.957-1.354-4-2.642-6.063-3.828a2.249,2.249,0,0,1-.832-3.071A2.251,2.251,0,0,1,1343.825-148.676Zm-67.6-8.28a2.25,2.25,0,0,1,1.873,1.615,2.25,2.25,0,0,1-1.547,2.781c-2.285.651-4.574,1.41-6.8,2.255a2.25,2.25,0,0,1-2.9-1.308,2.25,2.25,0,0,1,1.308-2.9c2.348-.889,4.758-1.688,7.164-2.374A2.245,2.245,0,0,1,1276.227-156.956Zm-17.848,7.3a2.248,2.248,0,0,1,1.686,1.156,2.25,2.25,0,0,1-.9,3.052c-2.094,1.139-4.163,2.38-6.152,3.686a2.248,2.248,0,0,1-3.116-.644,2.251,2.251,0,0,1,.644-3.117c2.093-1.376,4.271-2.681,6.474-3.879A2.239,2.239,0,0,1,1258.379-149.658Zm-15.832,11.015a2.239,2.239,0,0,1,1.4.752,2.25,2.25,0,0,1-.216,3.175c-1.8,1.569-3.548,3.229-5.2,4.938a2.249,2.249,0,0,1-3.182.05,2.25,2.25,0,0,1-.05-3.182c1.742-1.8,3.584-3.547,5.475-5.2A2.245,2.245,0,0,1,1242.547-138.644Zm-13.052,14.2a2.242,2.242,0,0,1,1.037.417,2.249,2.249,0,0,1,.484,3.144c-1.41,1.922-2.753,3.926-3.993,5.957a2.252,2.252,0,0,1-3.093.749,2.25,2.25,0,0,1-.748-3.093c1.306-2.139,2.721-4.25,4.2-6.273A2.25,2.25,0,0,1,1229.495-124.44Zm-9.619,16.729a2.25,2.25,0,0,1,.607.169,2.249,2.249,0,0,1,1.165,2.961c-.949,2.181-1.817,4.43-2.581,6.688a2.253,2.253,0,0,1-2.852,1.41,2.25,2.25,0,0,1-1.41-2.853c.8-2.377,1.718-4.745,2.717-7.041A2.252,2.252,0,0,1,1219.875-107.71Zm-5.705,18.422c.046.006.092.014.138.022a2.25,2.25,0,0,1,1.781,2.636c-.333,1.722-.617,3.474-.844,5.211q-.124.942-.225,1.884a2.25,2.25,0,0,1-2.481,1.993,2.225,2.225,0,0,1-1.994-2.48q.108-.99.237-1.981c.239-1.826.538-3.67.888-5.481A2.25,2.25,0,0,1,1214.17-89.289Z" transform="translate(-1210.057 160.178)" fill="#c6c9d3"/>
        <path id="Path_45081" data-name="Path 45081" d="M1728.881-79.4a2.24,2.24,0,0,1,1.228.573c.9.824,1.794,1.682,2.666,2.551a2.25,2.25,0,0,1,0,3.182,2.249,2.249,0,0,1-3.182,0c-.828-.825-1.68-1.641-2.532-2.423a2.25,2.25,0,0,1-.136-3.179A2.248,2.248,0,0,1,1728.881-79.4Z" transform="translate(-1579.503 102.332)" fill="#c6c9d3"/>
      </g>
      <g id="Group_16709" data-name="Group 16709" transform="translate(22.3 23.024)">
        <path id="Path_45082" data-name="Path 45082" d="M1408.126-53.641a1.052,1.052,0,0,0-1.126-.472l-12.485,2.822a55.758,55.758,0,0,0-14.659-10.557l-1.29-12.726a1.052,1.052,0,0,0-.805-.918l-14.945-3.516a1.052,1.052,0,0,0-1.13.462l-6.829,10.816a55.748,55.748,0,0,0-17.828,2.913l-9.917-8.092a1.052,1.052,0,0,0-1.218-.079l-13.054,8.081a1.051,1.051,0,0,0-.472,1.126L1315.19-51.3a55.758,55.758,0,0,0-10.557,14.659l-12.726,1.29a1.051,1.051,0,0,0-.918.805L1287.473-19.6a1.051,1.051,0,0,0,.463,1.13l10.816,6.829a55.743,55.743,0,0,0,2.913,17.828l-8.092,9.917a1.051,1.051,0,0,0-.079,1.218l8.081,13.054a1.051,1.051,0,0,0,1.126.472l12.485-2.822a55.74,55.74,0,0,0,14.659,10.557l1.289,12.727a1.053,1.053,0,0,0,.805.918l14.945,3.516a1.052,1.052,0,0,0,1.13-.462l6.828-10.816a55.749,55.749,0,0,0,17.828-2.913l9.917,8.092a1.051,1.051,0,0,0,1.219.08l13.054-8.081a1.051,1.051,0,0,0,.472-1.126l-2.821-12.485a55.749,55.749,0,0,0,10.557-14.659l12.726-1.29a1.051,1.051,0,0,0,.918-.805l3.516-14.945a1.052,1.052,0,0,0-.462-1.13l-10.816-6.829a55.749,55.749,0,0,0-2.913-17.828l8.092-9.917a1.052,1.052,0,0,0,.079-1.218Z" transform="translate(-1287.445 79.037)" fill="#c6c9d3"/>
        <path id="Path_45083" data-name="Path 45083" d="M1488.055,104.259a15.441,15.441,0,1,1-2.263-.129A15.456,15.456,0,0,1,1488.055,104.259Zm-3.573,27.033a12.009,12.009,0,0,0,1.752.1,11.794,11.794,0,1,0-1.752-.1Z" transform="translate(-1418.637 -52.156)" fill="#c6c9d3"/>
        <path id="Path_45084" data-name="Path 45084" d="M1433.1,25.741a38.66,38.66,0,0,1,3.836.7h0q.6.141,1.2.3a38.2,38.2,0,0,1,5.724,2.042l.075.034.213.1c.138.063.276.128.413.193a.9.9,0,1,1-.772,1.626,36.189,36.189,0,0,0-40.8,6.8,35.925,35.925,0,0,0-9.931,17.569,36.7,36.7,0,0,0-.669,3.659,36.149,36.149,0,1,0,70.3-6.343.9.9,0,1,1,1.715-.547,37.95,37.95,0,1,1-73.8,6.66,38.72,38.72,0,0,1,.7-3.841A37.955,37.955,0,0,1,1433.1,25.741Z" transform="translate(-1361.108 4.22)" fill="#e8e8ef"/>
      </g>
    </g>
    <g id="Group_16715" data-name="Group 16715" transform="translate(153.514 0)">
      <g id="Group_16711" data-name="Group 16711" transform="translate(30.872 49.573)" opacity="0.3">
        <path id="Path_45085" data-name="Path 45085" d="M2126.791-16.28a1.389,1.389,0,0,1,1.192,1.163c.183,1.165.333,2.353.445,3.528a1.39,1.39,0,0,1-1.251,1.516,1.387,1.387,0,0,1-1.516-1.251c-.107-1.12-.25-2.252-.424-3.364a1.391,1.391,0,0,1,1.158-1.588A1.405,1.405,0,0,1,2126.791-16.28Z" transform="translate(-2049.59 16.292)" fill="#c6c9d3"/>
        <path id="Path_45086" data-name="Path 45086" d="M1936.559,21.32a1.39,1.39,0,0,1,1.207,1.417,60.423,60.423,0,0,1-.484,6.095q-.083.636-.181,1.274a1.439,1.439,0,0,1-1.583,1.166,1.39,1.39,0,0,1-1.165-1.583q.093-.61.173-1.218a57.729,57.729,0,0,0,.462-5.813,1.39,1.39,0,0,1,1.428-1.35C1936.465,21.31,1936.512,21.313,1936.559,21.32Zm-2.175,14.265a1.435,1.435,0,0,1,.2.039,1.391,1.391,0,0,1,.964,1.714,60.283,60.283,0,0,1-2.428,6.988,1.39,1.39,0,0,1-2.564-1.072,57.677,57.677,0,0,0,2.316-6.665A1.389,1.389,0,0,1,1934.384,35.585ZM1928.815,48.9a1.407,1.407,0,0,1,.511.172,1.39,1.39,0,0,1,.514,1.9,59.973,59.973,0,0,1-4.073,6.181,1.39,1.39,0,0,1-2.222-1.67,57.112,57.112,0,0,0,3.884-5.893A1.392,1.392,0,0,1,1928.815,48.9Zm-8.672,11.536a1.389,1.389,0,0,1,.818,2.343,60.193,60.193,0,0,1-5.46,4.995,1.39,1.39,0,0,1-1.745-2.164,57.431,57.431,0,0,0,5.206-4.762A1.388,1.388,0,0,1,1920.143,60.432ZM1908.917,69.5a1.39,1.39,0,0,1,.555,2.558,60.81,60.81,0,0,1-6.506,3.516,1.39,1.39,0,1,1-1.17-2.521A57.943,57.943,0,0,0,1908,69.7,1.385,1.385,0,0,1,1908.917,69.5Zm-13.085,6.067a1.39,1.39,0,0,1,.246,2.7,59.829,59.829,0,0,1-7.166,1.823,1.39,1.39,0,0,1-.517-2.731,57.039,57.039,0,0,0,6.832-1.738A1.38,1.38,0,0,1,1895.833,75.567Zm-14.167,2.683a1.39,1.39,0,0,1-.094,2.765,60.253,60.253,0,0,1-7.4.009,1.39,1.39,0,0,1,.168-2.776,57.1,57.1,0,0,0,7.055-.008A1.409,1.409,0,0,1,1881.665,78.25Zm-21.417-2.625a1.4,1.4,0,0,1,.24.053,57.641,57.641,0,0,0,5.943,1.531c.3.063.6.121.9.176a1.39,1.39,0,0,1-.5,2.735c-.319-.06-.638-.121-.957-.187a60.461,60.461,0,0,1-6.224-1.6,1.39,1.39,0,0,1,.6-2.7Z" transform="translate(-1858.679 -10.638)" fill="#c6c9d3"/>
      </g>
      <g id="Group_16712" data-name="Group 16712" opacity="0.3">
        <path id="Path_45087" data-name="Path 45087" d="M1806.806-190.585a1.39,1.39,0,0,1,1.2,1.541,1.39,1.39,0,0,1-1.543,1.218,57.485,57.485,0,0,0-6.928-.393,1.4,1.4,0,0,1-1.4-1.384,1.39,1.39,0,0,1,1.384-1.4,60.582,60.582,0,0,1,7.263.413Zm7,1.254a1.423,1.423,0,0,1,.148.028,60.794,60.794,0,0,1,6.958,2.13,1.39,1.39,0,0,1,.816,1.788,1.393,1.393,0,0,1-1.788.817,58.121,58.121,0,0,0-6.64-2.034,1.389,1.389,0,0,1-1.024-1.677A1.39,1.39,0,0,1,1813.8-189.331Zm-21.189-1.195a1.391,1.391,0,0,1,1.2,1.2,1.39,1.39,0,0,1-1.2,1.554,57.638,57.638,0,0,0-6.82,1.295,1.39,1.39,0,0,1-1.688-1.007,1.39,1.39,0,0,1,1.006-1.689,60.315,60.315,0,0,1,7.15-1.356A1.38,1.38,0,0,1,1792.615-190.525Zm34.487,6.168a1.393,1.393,0,0,1,.461.145,59.622,59.622,0,0,1,6.242,3.75,1.39,1.39,0,0,1,.358,1.933,1.393,1.393,0,0,1-1.932.358,57.07,57.07,0,0,0-5.951-3.575,1.39,1.39,0,0,1-.591-1.874A1.39,1.39,0,0,1,1827.1-184.357Zm-48.241-2.681a1.389,1.389,0,0,1,1.117.876,1.39,1.39,0,0,1-.793,1.8,57.153,57.153,0,0,0-6.307,2.9,1.389,1.389,0,0,1-1.881-.571,1.39,1.39,0,0,1,.57-1.881,60.457,60.457,0,0,1,6.613-3.036A1.386,1.386,0,0,1,1778.862-187.038Zm-12.516,6.685a1.387,1.387,0,0,1,.958.58,1.39,1.39,0,0,1-.34,1.936,58.059,58.059,0,0,0-5.435,4.321,1.389,1.389,0,0,1-1.963-.1,1.388,1.388,0,0,1,.1-1.962,60.744,60.744,0,0,1,5.7-4.53A1.385,1.385,0,0,1,1766.346-180.353Zm-10.555,9.492a1.374,1.374,0,0,1,.732.331,1.389,1.389,0,0,1,.134,1.961,56.9,56.9,0,0,0-4.239,5.5,1.391,1.391,0,0,1-1.93.37,1.389,1.389,0,0,1-.371-1.93,60.064,60.064,0,0,1,4.445-5.767A1.39,1.39,0,0,1,1755.791-170.861Z" transform="translate(-1749.877 191)" fill="#c6c9d3"/>
        <path id="Path_45088" data-name="Path 45088" d="M2059.486-139.137a1.386,1.386,0,0,1,.74.338c.891.789,1.761,1.607,2.59,2.433a1.391,1.391,0,0,1,0,1.966,1.393,1.393,0,0,1-1.966,0c-.79-.788-1.621-1.569-2.47-2.322a1.39,1.39,0,0,1-.118-1.962A1.39,1.39,0,0,1,2059.486-139.137Z" transform="translate(-1970.51 153.861)" fill="#c6c9d3"/>
      </g>
      <g id="Group_16714" data-name="Group 16714" transform="translate(4.747 15.383)">
        <path id="Path_45089" data-name="Path 45089" d="M1847.361-119.794a.7.7,0,0,0-.754-.316l-8.354,1.888a37.312,37.312,0,0,0-9.809-7.064l-.863-8.516a.7.7,0,0,0-.539-.614l-10-2.353a.7.7,0,0,0-.756.309l-4.569,7.238a37.3,37.3,0,0,0-11.93,1.949l-6.636-5.415a.7.7,0,0,0-.816-.053l-8.735,5.408a.7.7,0,0,0-.316.753l1.888,8.354a37.315,37.315,0,0,0-7.064,9.809l-8.516.863a.7.7,0,0,0-.614.539l-2.353,10a.7.7,0,0,0,.309.756l7.238,4.569a37.3,37.3,0,0,0,1.949,11.93l-5.415,6.636a.7.7,0,0,0-.053.815l5.408,8.735a.7.7,0,0,0,.753.316l8.354-1.888a37.3,37.3,0,0,0,9.809,7.064l.863,8.516a.7.7,0,0,0,.539.614l10,2.353a.7.7,0,0,0,.756-.309l4.569-7.238a37.3,37.3,0,0,0,11.93-1.949l6.636,5.415a.7.7,0,0,0,.815.053l8.735-5.408a.7.7,0,0,0,.316-.753l-1.888-8.354a37.308,37.308,0,0,0,7.064-9.809l8.516-.863a.7.7,0,0,0,.614-.539l2.353-10a.7.7,0,0,0-.309-.756l-7.238-4.569a37.317,37.317,0,0,0-1.949-11.929l5.415-6.636a.7.7,0,0,0,.053-.815Z" transform="translate(-1766.607 136.788)" fill="#c6c9d3"/>
        <g id="Group_16713" data-name="Group 16713" transform="translate(34.592 34.593)">
          <path id="Path_45090" data-name="Path 45090" d="M1900.417-14.785a10.433,10.433,0,0,1,5.926,2.87,10.441,10.441,0,0,1,3.2,7.383A10.525,10.525,0,0,1,1899.2,6.148,10.527,10.527,0,0,1,1888.52-4.193a10.439,10.439,0,0,1,2.958-7.482,10.439,10.439,0,0,1,7.383-3.2A10.727,10.727,0,0,1,1900.417-14.785ZM1898.023,3.3a7.842,7.842,0,0,0,1.134.065,7.742,7.742,0,0,0,7.606-7.858,7.68,7.68,0,0,0-2.353-5.43,7.7,7.7,0,0,0-5.5-2.177h0a7.684,7.684,0,0,0-5.43,2.353,7.682,7.682,0,0,0-2.176,5.5A7.746,7.746,0,0,0,1898.023,3.3Z" transform="translate(-1888.519 14.875)" fill="#e8e8ef"/>
        </g>
        <path id="Path_45091" data-name="Path 45091" d="M1862.216-69.423q1.308.171,2.619.478a26.322,26.322,0,0,1,5.043,1.74l.216.1a1.39,1.39,0,0,1,.783,1.434,1.4,1.4,0,0,1-.124.418,1.391,1.391,0,0,1-1.851.658,23.462,23.462,0,0,0-4.7-1.646h0l-.267-.061a23.175,23.175,0,0,0-11.456.309,23.527,23.527,0,0,0-5.773,2.523l-.045.027-.136.083a23.249,23.249,0,0,0-10.461,14.537,23.673,23.673,0,0,0-.433,2.369,23.227,23.227,0,0,0,3.315,15.308,23.247,23.247,0,0,0,14.537,10.46,23.27,23.27,0,0,0,17.677-2.881A23.248,23.248,0,0,0,1881.617-38.1a23.364,23.364,0,0,0,.427-2.338,23.33,23.33,0,0,0-.9-10.117,1.375,1.375,0,0,1-.054-.6,1.389,1.389,0,0,1,.955-1.144,1.391,1.391,0,0,1,1.747.9,26.114,26.114,0,0,1,1.011,11.319,26.409,26.409,0,0,1-.477,2.616,26.009,26.009,0,0,1-11.7,16.264,25.983,25.983,0,0,1-19.775,3.224,26,26,0,0,1-16.263-11.7,25.978,25.978,0,0,1-3.709-17.125,26.777,26.777,0,0,1,.484-2.65A26.218,26.218,0,0,1,1862.216-69.423Z" transform="translate(-1813.91 88.695)" fill="#e8e8ef"/>
      </g>
    </g>
  </g>
  <g id="Group_16719" data-name="Group 16719" transform="translate(0 135.338)">
    <path id="Path_45092" data-name="Path 45092" d="M907.877,683.889a8.515,8.515,0,0,0,8.494,8.485h459.315a8.514,8.514,0,0,0,8.494-8.485L1388,419.934c0-4.667-5.5-13.779-15.576-13.094L923.532,395.225a21.4,21.4,0,0,0-21.963,21.892Z" transform="translate(-886.453 -395.218)" fill="#333435"/>
    <path id="Path_45093" data-name="Path 45093" d="M937.2,701.156a8.059,8.059,0,0,0,8.036,8.036h440.31a8.059,8.059,0,0,0,8.036-8.036l3.606-239.621c-.425-14.42-13.067-19.6-20.73-19.3L946.24,430.7a15.043,15.043,0,0,0-15.433,15.394Z" transform="translate(-907.395 -420.625)" fill="#a8abb2"/>
    <g id="Group_16717" data-name="Group 16717" transform="translate(326.39 22.495)">
      <path id="Path_45094" data-name="Path 45094" d="M2542.033,824.2h-.018a1.06,1.06,0,0,1-1.161-.922l.286-14.995a1.074,1.074,0,0,1,1.176-.9h.018a1.059,1.059,0,0,1,1.16.922l-.285,15A1.075,1.075,0,0,1,2542.033,824.2Z" transform="translate(-2386.989 -712.927)" fill="#c6c9d3"/>
      <path id="Path_45095" data-name="Path 45095" d="M2154.335,549.018h-.018a1.06,1.06,0,0,1-1.16-.922l1.093-57.432a9.613,9.613,0,0,0-3.989-8.077c-4.9-3.625-12.686-3.44-13.014-3.428l-137.509-2.845a1.051,1.051,0,0,1-1.145-.932,1.039,1.039,0,0,1,1.209-.884l137.427,2.845c.855-.039,9.143-.15,14.662,3.931a11.209,11.209,0,0,1,4.715,9.4l-1.093,57.45A1.075,1.075,0,0,1,2154.335,549.018Z" transform="translate(-1998.591 -474.494)" fill="#c6c9d3"/>
    </g>
    <rect id="Rectangle_6683" data-name="Rectangle 6683" width="517.38" height="23.192" rx="11.596" transform="translate(517.38 319.069) rotate(180)" fill="#48494b"/>
    <g id="Group_16718" data-name="Group 16718" transform="translate(54.929 22.145)">
      <rect id="Rectangle_6685" data-name="Rectangle 6685" width="42.079" height="10.575" rx="5.209" transform="translate(154.502 14.281) rotate(0.401)" fill="#fff" opacity="0.6"/>
      <path id="Path_45096" data-name="Path 45096" d="M1845.784,536.026l-78.4-.549a2.349,2.349,0,0,1-2.333-2.366l.041-5.875a2.35,2.35,0,0,1,2.366-2.333l78.4.549a2.35,2.35,0,0,1,2.333,2.366l-.041,5.875A2.35,2.35,0,0,1,1845.784,536.026Z" transform="translate(-1559.854 -510.25)" fill="#fff" opacity="0.6"/>
      <rect id="Rectangle_6688" data-name="Rectangle 6688" width="42.079" height="10.575" rx="5.209" transform="translate(154.71 32.886) rotate(0.401)" fill="#fff" opacity="0.6"/>
      <path id="Path_45097" data-name="Path 45097" d="M1987.572,602.584l-117.042-.82a2.349,2.349,0,0,1-2.333-2.366l.041-5.875a2.35,2.35,0,0,1,2.366-2.333l117.041.82a2.35,2.35,0,0,1,2.333,2.366l-.041,5.875A2.35,2.35,0,0,1,1987.572,602.584Z" transform="translate(-1633.735 -557.728)" fill="#fff" opacity="0.6"/>
      <rect id="Rectangle_6691" data-name="Rectangle 6691" width="42.079" height="10.575" rx="5.209" transform="translate(154.549 51.462) rotate(0.401)" fill="#fff" opacity="0.6"/>
      <path id="Path_45098" data-name="Path 45098" d="M2076.512,668.676,1922.575,667.6a2.35,2.35,0,0,1-2.333-2.366l.041-5.875a2.35,2.35,0,0,1,2.366-2.333l153.937,1.078a2.349,2.349,0,0,1,2.333,2.366l-.041,5.875A2.35,2.35,0,0,1,2076.512,668.676Z" transform="translate(-1671.012 -604.882)" fill="#fff" opacity="0.6"/>
      <rect id="Rectangle_6694" data-name="Rectangle 6694" width="42.079" height="10.575" rx="5.209" transform="translate(154.757 70.067) rotate(0.401)" fill="#fff" opacity="0.6"/>
      <path id="Path_45099" data-name="Path 45099" d="M2078.992,734.258l-153.937-1.078a2.349,2.349,0,0,1-2.333-2.366l.041-5.875a2.35,2.35,0,0,1,2.366-2.333l153.937,1.078a2.35,2.35,0,0,1,2.333,2.366l-.041,5.875A2.349,2.349,0,0,1,2078.992,734.258Z" transform="translate(-1672.789 -651.855)" fill="#fff" opacity="0.6"/>
      <rect id="Rectangle_6697" data-name="Rectangle 6697" width="42.079" height="10.575" rx="5.209" transform="translate(154.494 89.369) rotate(0.401)" fill="#fff" opacity="0.6"/>
      <path id="Path_45100" data-name="Path 45100" d="M2077.406,802.28,1923.469,801.2a2.35,2.35,0,0,1-2.333-2.366l.041-5.875a2.35,2.35,0,0,1,2.366-2.333l153.937,1.078a2.349,2.349,0,0,1,2.333,2.366l-.041,5.875A2.35,2.35,0,0,1,2077.406,802.28Z" transform="translate(-1671.653 -700.576)" fill="#fff" opacity="0.6"/>
      <rect id="Rectangle_6700" data-name="Rectangle 6700" width="42.079" height="10.575" rx="5.209" transform="translate(154.702 107.975) rotate(0.401)" fill="#fff" opacity="0.6"/>
      <rect id="Rectangle_6701" data-name="Rectangle 6701" width="97.194" height="10.575" rx="5.287" transform="translate(204.595 108.324) rotate(0.401)" fill="#fff" opacity="0.6"/>
      <rect id="Rectangle_6702" data-name="Rectangle 6702" width="42.079" height="10.575" rx="5.209" transform="translate(154.541 126.55) rotate(0.401)" fill="#fff" opacity="0.6"/>
      <path id="Path_45102" data-name="Path 45102" d="M1958.278,932.48l-116.472-.816a2.349,2.349,0,0,1-2.333-2.366l.041-5.875a2.35,2.35,0,0,1,2.366-2.333l116.472.815a2.35,2.35,0,0,1,2.333,2.366l-.041,5.875A2.349,2.349,0,0,1,1958.278,932.48Z" transform="translate(-1613.161 -794.02)" fill="#fff" opacity="0.6"/>
      <rect id="Rectangle_6705" data-name="Rectangle 6705" width="42.079" height="10.575" rx="5.209" transform="translate(154.749 145.156) rotate(0.401)" fill="#fff" opacity="0.6"/>
      <path id="Path_45103" data-name="Path 45103" d="M2066.114,998.8l-159.325-1.116a2.35,2.35,0,0,1-2.333-2.366l.041-5.875a2.35,2.35,0,0,1,2.366-2.333l159.325,1.116a2.35,2.35,0,0,1,2.333,2.366l-.041,5.875A2.35,2.35,0,0,1,2066.114,998.8Z" transform="translate(-1659.705 -841.306)" fill="#fff" opacity="0.6"/>
      <rect id="Rectangle_6708" data-name="Rectangle 6708" width="42.079" height="10.575" rx="5.209" transform="translate(153.621 200.665) rotate(0.401)" fill="#fff" opacity="0.6"/>
      <path id="Path_45104" data-name="Path 45104" d="M1853.751,1192.969l-92.493-.648a2.35,2.35,0,0,1-2.333-2.366l.041-5.875a2.35,2.35,0,0,1,2.366-2.333l92.493.648a2.349,2.349,0,0,1,2.333,2.366l-.041,5.875A2.35,2.35,0,0,1,1853.751,1192.969Z" transform="translate(-1555.469 -980.716)" fill="#fff" opacity="0.6"/>
      <rect id="Rectangle_6710" data-name="Rectangle 6710" width="42.079" height="10.575" rx="5.209" transform="matrix(1, 0.007, -0.007, 1, 153.46, 219.24)" fill="#fff" opacity="0.6"/>
      <path id="Path_45105" data-name="Path 45105" d="M1954.239,1259.142l-116.472-.816a2.35,2.35,0,0,1-2.333-2.366l.041-5.875a2.349,2.349,0,0,1,2.366-2.333l116.473.816a2.35,2.35,0,0,1,2.333,2.366l-.041,5.875A2.35,2.35,0,0,1,1954.239,1259.142Z" transform="translate(-1610.268 -1027.992)" fill="#fff" opacity="0.6"/>
      <rect id="Rectangle_6713" data-name="Rectangle 6713" width="42.079" height="10.575" rx="5.209" transform="translate(153.668 237.846) rotate(0.401)" fill="#fff" opacity="0.6"/>
      <path id="Path_45106" data-name="Path 45106" d="M2062.075,1325.462l-159.326-1.116a2.35,2.35,0,0,1-2.333-2.366l.041-5.875a2.35,2.35,0,0,1,2.366-2.333l159.325,1.116a2.35,2.35,0,0,1,2.333,2.366l-.041,5.875A2.349,2.349,0,0,1,2062.075,1325.462Z" transform="translate(-1656.813 -1075.279)" fill="#fff" opacity="0.6"/>
      <rect id="Rectangle_6716" data-name="Rectangle 6716" width="42.079" height="10.575" rx="5.209" transform="translate(154.125 164.072) rotate(0.401)" fill="#fff" opacity="0.6"/>
      <path id="Path_45107" data-name="Path 45107" d="M2061.228,1065.447l-159.325-1.116a2.349,2.349,0,0,1-2.333-2.366l.041-5.875a2.349,2.349,0,0,1,2.366-2.333l159.325,1.116a2.35,2.35,0,0,1,2.333,2.366l-.041,5.875A2.35,2.35,0,0,1,2061.228,1065.447Z" transform="translate(-1656.206 -889.043)" fill="#fff" opacity="0.6"/>
      <rect id="Rectangle_6719" data-name="Rectangle 6719" width="42.079" height="10.575" rx="5.209" transform="translate(154.333 182.677) rotate(0.401)" fill="#fff" opacity="0.6"/>
      <path id="Path_45108" data-name="Path 45108" d="M2063.807,1131.03l-159.325-1.116a2.349,2.349,0,0,1-2.333-2.366l.041-5.875a2.349,2.349,0,0,1,2.366-2.333l159.325,1.116a2.35,2.35,0,0,1,2.333,2.366l-.041,5.875A2.349,2.349,0,0,1,2063.807,1131.03Z" transform="translate(-1658.053 -936.017)" fill="#fff" opacity="0.6"/>
      <path id="Path_45109" data-name="Path 45109" d="M1521.093,733.87l-2.157-.015a.862.862,0,0,1-.856-.869l1.813-258.867a.863.863,0,0,1,.869-.857l2.157.015a.862.862,0,0,1,.856.869l-1.813,258.867A.863.863,0,0,1,1521.093,733.87Z" transform="translate(-1382.963 -473.263)" fill="#fff" opacity="0.6"/>
    </g>
  </g>
  <g id="Group_16732" data-name="Group 16732" transform="translate(32.746 33.611)">
    <g id="Group_16722" data-name="Group 16722" transform="translate(0 0)">
      <g id="Group_16720" data-name="Group 16720">
        <rect id="Rectangle_6720" data-name="Rectangle 6720" width="148.661" height="74.97" rx="10" fill="#e5b731"/>
        <rect id="Rectangle_6721" data-name="Rectangle 6721" width="141.775" height="69.827" rx="10" transform="translate(3.101 3.029)" fill="#f3d33f"/>
      </g>
      <g id="Group_16721" data-name="Group 16721" transform="translate(15.191 19.426)">
        <rect id="Rectangle_6722" data-name="Rectangle 6722" width="115.527" height="8.664" rx="4.332" transform="translate(0.981)" fill="#fff"/>
        <path id="Path_45111" data-name="Path 45111" d="M1218.566,144.176H1111.7a4.332,4.332,0,0,1-4.332-4.332h0a4.332,4.332,0,0,1,4.332-4.332h106.863a4.332,4.332,0,0,1,4.332,4.332h0A4.332,4.332,0,0,1,1218.566,144.176Z" transform="translate(-1107.249 -119.902)" fill="#fff"/>
        <path id="Path_45112" data-name="Path 45112" d="M1177.023,195.558h-65.75a4.332,4.332,0,0,1-4.332-4.332h0a4.332,4.332,0,0,1,4.332-4.332h65.75a4.332,4.332,0,0,1,4.332,4.332h0A4.332,4.332,0,0,1,1177.023,195.558Z" transform="translate(-1106.941 -156.704)" fill="#fff"/>
      </g>
    </g>
    <rect id="Rectangle_6723" data-name="Rectangle 6723" width="148.661" height="74.97" rx="10" transform="translate(0 97.426)" fill="#e5b731"/>
    <rect id="Rectangle_6724" data-name="Rectangle 6724" width="141.775" height="69.827" rx="10" transform="translate(3.101 100.455)" fill="#f3d33f"/>
    <g id="Group_16724" data-name="Group 16724" transform="translate(15.191 116.853)">
      <rect id="Rectangle_6725" data-name="Rectangle 6725" width="115.527" height="8.664" rx="4.332" transform="translate(0.981)" fill="#fff"/>
      <rect id="Rectangle_6726" data-name="Rectangle 6726" width="115.527" height="8.664" rx="4.332" transform="translate(0.122 15.609)" fill="#fff"/>
      <path id="Path_45113" data-name="Path 45113" d="M1177.023,538.913h-65.75a4.332,4.332,0,0,1-4.332-4.332h0a4.332,4.332,0,0,1,4.332-4.332h65.75a4.332,4.332,0,0,1,4.332,4.332h0A4.332,4.332,0,0,1,1177.023,538.913Z" transform="translate(-1106.941 -500.06)" fill="#fff"/>
    </g>
    <rect id="Rectangle_6727" data-name="Rectangle 6727" width="148.661" height="74.97" rx="10" transform="translate(0 189.001)" fill="#e5b731"/>
    <rect id="Rectangle_6728" data-name="Rectangle 6728" width="141.775" height="69.827" rx="10" transform="translate(3.101 192.03)" fill="#f3d33f"/>
    <path id="Path_45114" data-name="Path 45114" d="M1221.594,755.255H1114.731a4.332,4.332,0,0,1-4.332-4.332h0a4.332,4.332,0,0,1,4.332-4.332h106.863a4.332,4.332,0,0,1,4.332,4.332h0A4.332,4.332,0,0,1,1221.594,755.255Z" transform="translate(-1094.226 -538.163)" fill="#fff"/>
    <rect id="Rectangle_6729" data-name="Rectangle 6729" width="115.527" height="8.664" rx="4.332" transform="translate(15.314 224.038)" fill="#fff"/>
    <path id="Path_45115" data-name="Path 45115" d="M1177.023,861.648h-65.75a4.332,4.332,0,0,1-4.332-4.332h0a4.332,4.332,0,0,1,4.332-4.332h65.75a4.332,4.332,0,0,1,4.332,4.332h0A4.332,4.332,0,0,1,1177.023,861.648Z" transform="translate(-1091.75 -614.367)" fill="#fff"/>
    <rect id="Rectangle_6730" data-name="Rectangle 6730" width="148.661" height="74.97" rx="10" transform="translate(0.607 279.335)" fill="#e5b731"/>
    <rect id="Rectangle_6731" data-name="Rectangle 6731" width="141.775" height="69.827" rx="10" transform="translate(3.708 282.364)" fill="#f3d33f"/>
    <path id="Path_45116" data-name="Path 45116" d="M1223.734,1073.615H1116.871a4.332,4.332,0,0,1-4.332-4.332h0a4.332,4.332,0,0,1,4.332-4.332h106.863a4.332,4.332,0,0,1,4.332,4.332h0A4.332,4.332,0,0,1,1223.734,1073.615Z" transform="translate(-1095.759 -766.189)" fill="#fff"/>
    <path id="Path_45117" data-name="Path 45117" d="M1220.706,1128.626H1113.843a4.332,4.332,0,0,1-4.332-4.332h0a4.332,4.332,0,0,1,4.332-4.332h106.863a4.332,4.332,0,0,1,4.332,4.332h0A4.332,4.332,0,0,1,1220.706,1128.626Z" transform="translate(-1093.59 -805.59)" fill="#fff"/>
    <rect id="Rectangle_6732" data-name="Rectangle 6732" width="74.414" height="8.664" rx="4.332" transform="translate(15.799 328.951)" fill="#fff"/>
  </g>
</svg>
