<svg xmlns="http://www.w3.org/2000/svg" xmlns:xlink="http://www.w3.org/1999/xlink" width="582" height="168" viewBox="0 0 582 168">
  <defs>
    <clipPath id="clip-path">
      <rect id="Rectangle_2171" data-name="Rectangle 2171" width="582" height="168" rx="32" transform="translate(895 448.875)" fill="#2c9f2c" stroke="#2c9f2c" stroke-width="2"/>
    </clipPath>
    <filter id="Ellipse_1667" x="-157" y="67.125" width="262" height="262" filterUnits="userSpaceOnUse">
      <feOffset dx="10" input="SourceAlpha"/>
      <feGaussianBlur stdDeviation="10" result="blur"/>
      <feFlood flood-opacity="0.161"/>
      <feComposite operator="in" in2="blur"/>
      <feComposite in="SourceGraphic"/>
    </filter>
  </defs>
  <g id="dashboard-successful-aqarx-token-purchase-banner" transform="translate(-895 -448.875)">
    <g id="Rectangle_2171-2" data-name="Rectangle 2171" transform="translate(895 448.875)" fill="rgba(44,159,44,0.2)" stroke="#2c9f2c" stroke-width="2">
      <rect width="582" height="168" rx="32" stroke="none"/>
      <rect x="1" y="1" width="580" height="166" rx="31" fill="none"/>
    </g>
    <g id="Group_5758" data-name="Group 5758" transform="translate(879.821 278.875)">
      <g id="Group_5941" data-name="Group 5941" transform="translate(-12.821)">
        <text id="Congratulations_You_have_purchased_AQRX_Token_Successfully." data-name="Congratulations You have 
purchased AQRX Token Successfully." transform="translate(180.179 247.125)" fill="#fff" font-size="18" font-family="Montserrat-SemiBold, Montserrat" font-weight="600" letter-spacing="0.05em"><tspan x="0" y="0">Congratulations You have </tspan><tspan x="0" y="25">purchased AQRX Token Successfully.</tspan></text>
        <g id="Group_1490" data-name="Group 1490" transform="translate(88 217.125)">
          <path id="Path_3701" data-name="Path 3701" d="M38.943,76.347A36.943,36.943,0,1,1,51.419,4.626a4.089,4.089,0,0,1-2.767,7.7A28.729,28.729,0,1,0,65.767,28.994a4.088,4.088,0,0,1,7.622-2.961A36.96,36.96,0,0,1,38.943,76.347Z" transform="translate(-2 -2.462)" fill="#fff"/>
          <path id="Path_3702" data-name="Path 3702" d="M68.376,3.571l-.27-.5h-.475c-.218,0-.671,0-3.3,1.337C39.047,17.264,30.132,35.34,28.124,40.183c-5.941-8.855-11.9-10.751-15.917-10.751a12.732,12.732,0,0,0-2.868.325c-1.233.289-1.5.961-1.553,1.334-.093.7.393,1.384,1.334,1.9,8.143,4.432,14.329,16.277,17.287,22.947.7,1.572,1.512,1.9,2.068,1.9h0c.579,0,1.405-.349,2.036-2C34.256,46.067,45.163,21.715,65.6,6.576,68.352,4.534,68.554,4.109,68.376,3.571Z" transform="translate(7.984 -1.413)" fill="#fff"/>
        </g>
      </g>
    </g>
    <g id="Mask_Group_31" data-name="Mask Group 31" clip-path="url(#clip-path)">
      <g id="Group_5943" data-name="Group 5943" transform="translate(-595 -13)">
        <g id="Group_5944" data-name="Group 5944" transform="translate(-18 181)">
          <g id="Group_5945" data-name="Group 5945" transform="translate(-1 17)" opacity="0.43">
            <g transform="matrix(1, 0, 0, 1, 1509, 263.88)" filter="url(#Ellipse_1667)">
              <circle id="Ellipse_1667-2" data-name="Ellipse 1667" cx="101" cy="101" r="101" transform="translate(-137 97.13)" fill="#2c9f2c" opacity="0.21"/>
            </g>
            <circle id="Ellipse_1668" data-name="Ellipse 1668" cx="88" cy="88" r="88" transform="translate(1385 374)" fill="#2c9f2c" opacity="0.21"/>
          </g>
          <g id="Successfull_Background" data-name="Successfull Background" transform="translate(1979 146)">
            <g id="Group_5946" data-name="Group 5946" transform="translate(-1372 -361)" opacity="0.43">
              <circle id="Ellipse_1667-3" data-name="Ellipse 1667" cx="101" cy="101" r="101" transform="translate(1372 361)" fill="#2c9f2c" opacity="0.21"/>
              <circle id="Ellipse_1668-2" data-name="Ellipse 1668" cx="88" cy="88" r="88" transform="translate(1385 374)" fill="#2c9f2c" opacity="0.21"/>
            </g>
          </g>
        </g>
      </g>
    </g>
    <g id="Group_5758-2" data-name="Group 5758" transform="translate(879.821 278.875)">
      <g id="Group_5941-2" data-name="Group 5941" transform="translate(-12.821)">
        <text id="Congratulations_You_have_purchased_AQRX_Token_Successfully.-2" data-name="Congratulations You have 
purchased AQRX Token Successfully." transform="translate(180.179 247.125)" fill="#2c9f2c" font-size="18" font-family="Montserrat-SemiBold, Montserrat" font-weight="600" letter-spacing="0.05em"><tspan x="0" y="0">Congratulations You have </tspan><tspan x="0" y="25">purchased AQRX Token Successfully.</tspan></text>
        <g id="SuccessFull" transform="translate(88 217.125)">
          <path id="Path_3701-2" data-name="Path 3701" d="M38.943,76.347A36.943,36.943,0,1,1,51.419,4.626a4.089,4.089,0,0,1-2.767,7.7A28.729,28.729,0,1,0,65.767,28.994a4.088,4.088,0,0,1,7.622-2.961A36.96,36.96,0,0,1,38.943,76.347Z" transform="translate(-2 -2.462)" fill="#2c9f2c"/>
          <path id="Path_3702-2" data-name="Path 3702" d="M68.376,3.571l-.27-.5h-.475c-.218,0-.671,0-3.3,1.337C39.047,17.264,30.132,35.34,28.124,40.183c-5.941-8.855-11.9-10.751-15.917-10.751a12.732,12.732,0,0,0-2.868.325c-1.233.289-1.5.961-1.553,1.334-.093.7.393,1.384,1.334,1.9,8.143,4.432,14.329,16.277,17.287,22.947.7,1.572,1.512,1.9,2.068,1.9h0c.579,0,1.405-.349,2.036-2C34.256,46.067,45.163,21.715,65.6,6.576,68.352,4.534,68.554,4.109,68.376,3.571Z" transform="translate(7.983 -1.413)" fill="#2c9f2c"/>
        </g>
      </g>
    </g>
  </g>
</svg>
