<svg xmlns="http://www.w3.org/2000/svg" width="68.703" height="52.599" viewBox="0 0 68.703 52.599">
  <g id="icon-retail-investor" transform="translate(-926 -6494.781)">
    <rect id="Rectangle_6675" data-name="Rectangle 6675" width="39" height="8" rx="4" transform="translate(941 6525)" fill="#d1d0ce"/>
    <g id="Group_16572" data-name="Group 16572" transform="translate(315.46 6241.174)">
      <path id="Path_44988" data-name="Path 44988" d="M677.1,294.4h-64.41V258.974a3.229,3.229,0,0,1,3.22-3.22h57.97a3.229,3.229,0,0,1,3.22,3.22Zm-3.22,4.294h-57.97a3.2,3.2,0,0,1-3.005-2.147h64.034A3.32,3.32,0,0,1,673.877,298.692Zm-23.886,5.367h-10.2v-3.22h10.2Zm23.886-50.452h-57.97a5.383,5.383,0,0,0-5.367,5.367v36.5a5.383,5.383,0,0,0,5.367,5.367h21.739v3.22H633.62a1.073,1.073,0,1,0,0,2.147h22.543a1.073,1.073,0,1,0,0-2.147h-4.026v-3.22h21.739a5.383,5.383,0,0,0,5.367-5.367v-36.5A5.383,5.383,0,0,0,673.877,253.607Z" fill="#828282"/>
      <path id="Path_44989" data-name="Path 44989" d="M658.869,289.306H625.59a2.147,2.147,0,0,1,0-4.294h33.279a2.147,2.147,0,0,1,0,4.294Zm-16.639-30.325a15.977,15.977,0,0,1,13.9,23.884h-3.221V280.02a11,11,0,0,0-1.932-6.441,11.494,11.494,0,0,0-2.791-2.791,6.774,6.774,0,0,1-1.342,1.664,8.743,8.743,0,0,1,2.362,2.308,8.845,8.845,0,0,1,1.611,5.26v2.844H648.67v-2.683a1.073,1.073,0,0,0-2.147,0v2.683h-8.588v-2.683a1.073,1.073,0,0,0-2.147,0v2.683h-2.147V280.02a9.02,9.02,0,0,1,1.557-5.206,8.743,8.743,0,0,1,2.362-2.308,5.714,5.714,0,0,1-1.342-1.664,11.489,11.489,0,0,0-2.791,2.791,11,11,0,0,0-1.932,6.441v2.791h-3.221a15.978,15.978,0,0,1,13.956-23.884Zm16.639,23.884H658.6a18.143,18.143,0,1,0-32.742,0h-.268a4.294,4.294,0,0,0,0,8.588h33.279a4.294,4.294,0,1,0,0-8.588Z" transform="translate(2.662 0.799)" fill="#828282"/>
      <path id="Path_44990" data-name="Path 44990" d="M641.235,270.429a5.4,5.4,0,0,1-2.093.43l.536,1.878-.966.967-.966-.967.536-1.878a8.507,8.507,0,0,1-2.093-.43l-.645,2.308a1.117,1.117,0,0,0,.27,1.074l2.147,2.147a1.037,1.037,0,0,0,1.5,0l2.147-2.147a1.116,1.116,0,0,0,.268-1.074Z" transform="translate(6.179 4.164)" fill="#828282"/>
      <path id="Path_44991" data-name="Path 44991" d="M639.034,263.5a2.684,2.684,0,1,1-2.683,2.683A2.657,2.657,0,0,1,639.034,263.5Zm0,7.515a4.831,4.831,0,1,0-4.83-4.832A4.811,4.811,0,0,0,639.034,271.013Z" transform="translate(5.857 1.917)" fill="#828282"/>
    </g>
  </g>
</svg>
