<svg xmlns="http://www.w3.org/2000/svg" width="65.688" height="65.703" viewBox="0 0 65.688 65.703">
  <g id="icon-platform-admin" transform="translate(-1410 -6483.99)">
    <path id="Path_45001" data-name="Path 45001" d="M-10005.16-13107.451h6.706l-2.683,3.832,2.683,15.711-3.641,2.97-3.641-3.545,2.778-15.136Z" transform="translate(11445 19629)" fill="#d1d0ce"/>
    <g id="Group_16573" data-name="Group 16573" transform="translate(405.305 6234.233)">
      <path id="Path_44992" data-name="Path 44992" d="M1040.491,272.645V264.98a1.1,1.1,0,0,0-1.095-1.095h-7.664a8.749,8.749,0,0,0-8.4,11.232l-.038.04.069.069a8.757,8.757,0,0,0,17.127-2.58m-8.758-6.57h6.568v2.241a22.033,22.033,0,0,0-13.095,5.069,7.279,7.279,0,0,1-.042-.741A6.576,6.576,0,0,1,1031.733,266.075Zm0,13.14a6.565,6.565,0,0,1-5.812-3.52,19.865,19.865,0,0,1,12.381-5.189v2.139A6.576,6.576,0,0,1,1031.733,279.215Z" transform="translate(5.807 4.488)" fill="#828282"/>
      <path id="Path_44993" data-name="Path 44993" d="M1028.673,277.182a9.862,9.862,0,0,0-9.853,9.855v18.616a1.1,1.1,0,0,0,1.095,1.095h26.274a1.1,1.1,0,0,0,1.095-1.095V287.037a9.861,9.861,0,0,0-9.852-9.855h-8.759m16.422,9.855v17.521H1021.01V287.037a7.673,7.673,0,0,1,7.663-7.665h.419l1.732,3.468-2.139,14.994a1.086,1.086,0,0,0,.308.928l3.285,3.286a1.1,1.1,0,0,0,1.548,0l3.284-3.286a1.088,1.088,0,0,0,.308-.928l-2.139-14.994,1.733-3.468h.419A7.674,7.674,0,0,1,1045.1,287.037ZM1030.927,297.6l2.112-14.792a.853.853,0,0,0,.013-.15.865.865,0,0,0,.013.15l2.112,14.792-2.125,2.121Zm3.64-18.231-1.4,2.793a.258.258,0,1,1-.232,0l-1.4-2.793Z" transform="translate(4.487 8.712)" fill="#828282"/>
      <path id="Path_44994" data-name="Path 44994" d="M1049.445,249.757a9.855,9.855,0,1,0,9.854,9.855,9.862,9.862,0,0,0-9.854-9.855m0,17.521a7.665,7.665,0,1,1,7.664-7.666A7.675,7.675,0,0,1,1049.445,267.278Z" transform="translate(11.085 0)" fill="#828282"/>
      <path id="Path_44995" data-name="Path 44995" d="M1047.861,255.535a1.1,1.1,0,0,1,1.095,1.1h2.19a3.285,3.285,0,0,0-2.19-3.085v-1.3h-2.19v1.3a3.278,3.278,0,0,0,1.095,6.37,1.095,1.095,0,1,1-1.095,1.1h-2.189a3.283,3.283,0,0,0,2.189,3.085v1.3h2.19v-1.3a3.278,3.278,0,0,0-1.095-6.37,1.095,1.095,0,0,1,0-2.19" transform="translate(12.669 0.792)" fill="#828282"/>
      <path id="Path_44996" data-name="Path 44996" d="M1023.307,269.468a1.1,1.1,0,0,0,1.095-1.095v-8.761a1.1,1.1,0,0,0-.321-.775l-8.758-8.76a1.092,1.092,0,0,0-1.547,0l-8.758,8.76a1.1,1.1,0,0,0-.321.775v8.761a1.1,1.1,0,0,0,1.095,1.095h17.517m-9.854-2.19V262.9h2.19v4.381Zm-6.568-7.213,7.663-7.665,7.664,7.665v7.213h-4.378V261.8a1.1,1.1,0,0,0-1.095-1.1h-4.38a1.1,1.1,0,0,0-1.095,1.1v5.476h-4.379Z" transform="translate(0 0)" fill="#828282"/>
      <path id="Path_44997" data-name="Path 44997" d="M1014.122,274.608a1.105,1.105,0,0,0,.046-1.069l-3.284-6.57a1.142,1.142,0,0,0-1.959,0l-3.284,6.57a1.095,1.095,0,0,0,.979,1.586h2.279a7.668,7.668,0,0,0,7.574,6.571h6.569v-2.19h-6.569a5.481,5.481,0,0,1-5.363-4.381h2.078a1.1,1.1,0,0,0,.933-.518m-5.731-1.672,1.514-3.028,1.514,3.028Z" transform="translate(0.264 5.292)" fill="#828282"/>
      <path id="Path_44998" data-name="Path 44998" d="M1048.663,276.4a1.1,1.1,0,0,0-1.069-.047l-6.568,3.285a1.1,1.1,0,0,0,0,1.959l6.568,3.285a1.1,1.1,0,0,0,1.069-.047,1.1,1.1,0,0,0,.518-.932v-2.281a7.666,7.666,0,0,0,6.568-7.575v-7.665h-2.189v7.665a5.482,5.482,0,0,1-4.38,5.364v-2.079a1.1,1.1,0,0,0-.518-.932m-1.672,5.732-3.027-1.514,3.027-1.515Z" transform="translate(11.349 5.28)" fill="#828282"/>
      <path id="Path_44999" data-name="Path 44999" d="M1034.968,260.848a1.109,1.109,0,0,0,1.069.047l6.568-3.286a1.1,1.1,0,0,0,0-1.958l-6.568-3.286a1.095,1.095,0,0,0-1.587.98v2.19h-13.137v2.19h13.137v2.19a1.1,1.1,0,0,0,.518.933m1.672-5.732,3.027,1.514-3.027,1.514Z" transform="translate(5.279 0.792)" fill="#828282"/>
    </g>
  </g>
</svg>
