<svg xmlns="http://www.w3.org/2000/svg" width="99.942" height="101.598" viewBox="0 0 99.942 101.598">
  <g id="icon-large-quotation-mark" opacity="0.3">
    <path id="Path_21" data-name="Path 21" d="M780.867,6067a1.543,1.543,0,0,0-1.539,1.537v46.177c0,20.927,7.671,35.981,25.309,51.679l2.042,1.821a1.554,1.554,0,0,0,2.059-.012l15.525-14.149a1.54,1.54,0,0,0,.047-2.23l-2.266-2.255c-8.544-8.252-16.522-17.755-16.842-30.158h15.889a1.541,1.541,0,0,0,1.539-1.536v-49.336a1.542,1.542,0,0,0-1.539-1.537Z" transform="translate(-724.822 -6067)" fill="#1e282f"/>
    <path id="Path_22" data-name="Path 22" d="M736.874,6067a1.541,1.541,0,0,0-1.538,1.537v46.177c0,20.927,7.669,35.981,25.309,51.679l2.041,1.821a1.554,1.554,0,0,0,2.059-.012l15.525-14.149a1.54,1.54,0,0,0,.048-2.23l-2.267-2.255c-8.543-8.252-16.522-17.755-16.842-30.158h15.74a1.54,1.54,0,0,0,1.538-1.536v-49.336a1.541,1.541,0,0,0-1.538-1.537Z" transform="translate(-735.336 -6067)" fill="#1e282f"/>
  </g>
</svg>
