<svg id="icon-social-media-facebook" xmlns="http://www.w3.org/2000/svg" xmlns:xlink="http://www.w3.org/1999/xlink" width="33" height="30" viewBox="0 0 33 30">
  <defs>
    <clipPath id="clip-path">
      <rect id="Rectangle_3441" data-name="Rectangle 3441" width="33" height="30" transform="translate(905.579 195.879)" fill="#f0f3f5"/>
    </clipPath>
  </defs>
  <g id="Mask_Group_30" data-name="Mask Group 30" transform="translate(-905.579 -195.879)" clip-path="url(#clip-path)">
    <g id="facebook" transform="translate(907.2 196)">
      <path id="Path_6726" data-name="Path 6726" d="M26.038,0H3.72A3.723,3.723,0,0,0,0,3.72V26.038a3.723,3.723,0,0,0,3.72,3.72H26.038a3.723,3.723,0,0,0,3.72-3.72V3.72A3.723,3.723,0,0,0,26.038,0Z" fill="#1976d2"/>
      <path id="Path_6727" data-name="Path 6727" d="M37.2,20.924h-4.65V17.2c0-1.027.833-.93,1.86-.93h1.86v-4.65h-3.72a5.579,5.579,0,0,0-5.58,5.58v3.72H23.25v4.65h3.72V35.8h5.58V25.574h2.79Z" transform="translate(-12.091 -6.045)" fill="#fafafa"/>
    </g>
  </g>
</svg>
