<svg id="icon-social-media-whatsapp" xmlns="http://www.w3.org/2000/svg" width="29.828" height="29.828" viewBox="0 0 29.828 29.828">
  <path id="Path_6730" data-name="Path 6730" d="M14.918,0H14.91A14.9,14.9,0,0,0,2.839,23.656L.981,29.2l5.733-1.833A14.911,14.911,0,1,0,14.918,0Z" fill="#4caf50"/>
  <path id="Path_6731" data-name="Path 6731" d="M124.611,131.327a4.208,4.208,0,0,1-2.927,2.1c-.779.166-1.8.3-5.224-1.122-4.383-1.816-7.205-6.269-7.425-6.558a8.518,8.518,0,0,1-1.771-4.5,4.761,4.761,0,0,1,1.525-3.63,2.167,2.167,0,0,1,1.525-.535c.185,0,.35.009.5.017.438.019.658.045.947.736.36.867,1.236,3.007,1.34,3.227a.888.888,0,0,1,.063.807,2.577,2.577,0,0,1-.483.684c-.22.254-.429.447-.649.72-.2.237-.429.49-.175.928a13.238,13.238,0,0,0,2.42,3.007,10.965,10.965,0,0,0,3.5,2.157.943.943,0,0,0,1.051-.166,18.046,18.046,0,0,0,1.165-1.544.832.832,0,0,1,1.07-.324c.4.14,2.534,1.193,2.972,1.411s.727.324.833.509A3.714,3.714,0,0,1,124.611,131.327Z" transform="translate(-101.015 -110.267)" fill="#fafafa"/>
</svg>
