<svg id="icon-equity-investment" xmlns="http://www.w3.org/2000/svg" width="48.01" height="35.307" viewBox="0 0 48.01 35.307">
  <path id="Path_45011" data-name="Path 45011" d="M153.142,180.934h-5.554a.938.938,0,0,0-.938.938v.792h-5.84a.933.933,0,0,0-.359.071l-7.48,3.1a3.488,3.488,0,0,0-1.878,4.582l.025.06a3.6,3.6,0,0,0,.924,1.292,7.186,7.186,0,0,1-3.493.068l-7.344-1.682a3.4,3.4,0,0,0-1.6,6.614l8.762,2.227a9.038,9.038,0,0,0,5.555-.348l11.144-4.371h1.579v.493a.938.938,0,0,0,.938.938h5.554a.938.938,0,0,0,.938-.938v-12.9a.938.938,0,0,0-.938-.938ZM144.893,192.4a.941.941,0,0,0-.342.064L133.242,196.9a7.171,7.171,0,0,1-4.408.275l-8.762-2.227a1.527,1.527,0,0,1,.717-2.968l7.344,1.681a9.054,9.054,0,0,0,5.287-.376l2.131-.819c.044-.015.088-.031.131-.048,1.884-.726,4.288-1.651,4.8-1.85l.1-.039a.938.938,0,1,0-.673-1.751l-.11.042-4.887,1.879a1.683,1.683,0,0,1-2.071-.958l-.026-.06a1.612,1.612,0,0,1,.868-2.118L141,184.539h5.653v7.86Zm7.311,1.431h-3.678V182.809H152.2Zm0,0" transform="translate(-106.069 -163.968)" fill="#d1d0ce"/>
  <path id="Path_45012" data-name="Path 45012" d="M9.132,16.574h-1.7V7.813h.26a4.407,4.407,0,0,0,2-.483.924.924,0,0,0,.085-.049l6.073-3.962a2.527,2.527,0,0,1,2.61.243l.438.327c-.027.038-.052.076-.078.114-.116.168-.227.34-.332.516a9.1,9.1,0,0,0-1.218,3.545,2.828,2.828,0,0,0,.308,5.64h6.942a1.437,1.437,0,0,1,.579,2.752,1.22,1.22,0,0,1-.166.061l-.014,0a1.432,1.432,0,0,1-.4.055H16.631a.938.938,0,1,0,0,1.875h7.888a3.328,3.328,0,0,0,.713-.077,9.362,9.362,0,0,0,1.189.078A9.225,9.225,0,1,0,20.136,2.474l-.556-.415a4.414,4.414,0,0,0-4.628-.389.966.966,0,0,0-.084.049L8.8,5.681a2.524,2.524,0,0,1-1.107.256h-.26V5.6a.938.938,0,0,0-.938-.938H.938A.938.938,0,0,0,0,5.6v12.9a.938.938,0,0,0,.938.938H6.491a.938.938,0,0,0,.938-.938V18.45h1.7a.938.938,0,0,0,0-1.875Zm7.493-5.7a.951.951,0,0,1,.6-.886,9.121,9.121,0,0,0,.341,1.839.954.954,0,0,1-.944-.952ZM33.771,9.225a7.361,7.361,0,0,1-6.227,7.264,3.338,3.338,0,0,0,.287-1.351,3.294,3.294,0,0,0-.411-1.6A1.961,1.961,0,0,0,29.075,11.6V10.214A1.967,1.967,0,0,0,27.11,8.249H25.734a.09.09,0,0,1-.09-.09V6.85a.09.09,0,0,1,.09-.089H27.11a.09.09,0,0,1,.09.089.938.938,0,0,0,1.875,0A1.967,1.967,0,0,0,27.36,4.9V4.578a.938.938,0,1,0-1.875,0V4.9A1.967,1.967,0,0,0,23.769,6.85V8.159a1.967,1.967,0,0,0,1.965,1.965H27.11a.09.09,0,0,1,.09.09V11.6a.089.089,0,0,1-.09.089H25.734a.09.09,0,0,1-.09-.089v-.127a.938.938,0,1,0-1.875,0V11.6a2,2,0,0,0,.014.226H19.545A7.363,7.363,0,0,1,20.2,5.315a7.485,7.485,0,0,1,.709-.948A7.349,7.349,0,0,1,33.771,9.225ZM5.554,17.557H1.875V6.535H5.554Zm0,0" fill="#828282"/>
  <path id="Path_45013" data-name="Path 45013" d="M128.8,177.186a.937.937,0,1,0-.116,1.183A.943.943,0,0,0,128.8,177.186Zm0,0" transform="translate(-115.166 -160.194)" fill="#828282"/>
</svg>
