<svg xmlns="http://www.w3.org/2000/svg" xmlns:xlink="http://www.w3.org/1999/xlink" width="168.006" height="168.006" viewBox="0 0 168.006 168.006">
  <defs>
    <linearGradient id="linear-gradient" y1="0.5" x2="1" y2="0.5" gradientUnits="objectBoundingBox">
      <stop offset="0" stop-color="#fbb040"/>
      <stop offset="0.04" stop-color="#fbb040"/>
      <stop offset="0.39" stop-color="#fec007"/>
      <stop offset="1" stop-color="#ffde17"/>
    </linearGradient>
  </defs>
  <path id="Path_2" data-name="Path 2" d="M1039.2,1142.762a6.33,6.33,0,0,0-8.953-.011l-75.962,75.761-27.406-29.766a6.332,6.332,0,0,0-9.317,8.577l31.871,34.612a6.32,6.32,0,0,0,4.523,2.041c.046,0,.091,0,.135,0a6.337,6.337,0,0,0,4.47-1.847l80.627-80.415A6.331,6.331,0,0,0,1039.2,1142.762Zm-1.528,54.7a6.331,6.331,0,0,0-6.332,6.332A71.339,71.339,0,1,1,960,1132.458a6.332,6.332,0,0,0,0-12.664,84,84,0,1,0,84,84A6.332,6.332,0,0,0,1037.671,1197.465Z" transform="translate(-875.997 -1119.794)" fill="url(#linear-gradient)"/>
</svg>
