<svg xmlns="http://www.w3.org/2000/svg" width="42.639" height="42.471" viewBox="0 0 42.639 42.471">
  <g id="icon-development-grant" transform="translate(0 -0.501)">
    <g id="Group_16616" data-name="Group 16616">
      <path id="Path_45014" data-name="Path 45014" d="M8.1,310.19a.625.625,0,0,0,.625-.625V293.689A1.7,1.7,0,0,0,7.035,292H1.694A1.7,1.7,0,0,0,0,293.689v15.877a.625.625,0,0,0,.625.625Zm-6.855-16.5a.445.445,0,0,1,.445-.445H7.035a.445.445,0,0,1,.445.445v15.252H1.249Zm0,0" transform="translate(0 -267.219)" fill="#828282"/>
      <path id="Path_45015" data-name="Path 45015" d="M137.424,241.7a1.7,1.7,0,0,0-1.694,1.694v20.065a.624.624,0,0,0,.625.625h7.479a.624.624,0,0,0,.625-.625V243.393a1.7,1.7,0,0,0-1.694-1.694Zm5.786,1.694v19.44h-6.231v-19.44a.446.446,0,0,1,.445-.445h5.341A.445.445,0,0,1,143.21,243.393Zm0,0" transform="translate(-124.427 -221.111)" fill="#828282"/>
      <path id="Path_45016" data-name="Path 45016" d="M280.185,217.354V193.1a1.7,1.7,0,0,0-1.694-1.694h-5.341a1.7,1.7,0,0,0-1.694,1.694v24.253a.625.625,0,0,0,.625.625h7.48a.625.625,0,0,0,.625-.625Zm-1.249-.625h-6.231V193.1a.445.445,0,0,1,.445-.445h5.341a.445.445,0,0,1,.445.445v23.629Zm0,0" transform="translate(-248.85 -175.007)" fill="#828282"/>
      <path id="Path_45017" data-name="Path 45017" d="M407.813,171.874h7.479a.625.625,0,0,0,.625-.625V142.807a1.7,1.7,0,0,0-1.694-1.694h-5.341a1.7,1.7,0,0,0-1.694,1.694v28.442A.624.624,0,0,0,407.813,171.874Zm.625-29.066a.445.445,0,0,1,.445-.445h5.341a.445.445,0,0,1,.445.445v27.817h-6.23Zm0,0" transform="translate(-373.277 -128.902)" fill="#828282"/>
    </g>
    <g id="Group_16615" data-name="Group 16615">
      <path id="Path_45018" data-name="Path 45018" d="M129.34,9.2a1.3,1.3,0,0,0,2.307-.332l2.135-6.416A1.3,1.3,0,0,0,132.591.741L125.834.5a1.3,1.3,0,0,0-1.117,2.046l.706,1.016a62.189,62.189,0,0,1-23.985,7.605.625.625,0,0,0,.065,1.246.659.659,0,0,0,.067,0A63.067,63.067,0,0,0,126.641,4.3a.631.631,0,0,0,.192-.892l-1.09-1.569a.054.054,0,0,1,.046-.086l6.757.239a.055.055,0,0,1,.05.072l-2.135,6.415a.055.055,0,0,1-.1.014L129.4,7.1a.624.624,0,0,0-.838-.177,56.343,56.343,0,0,1-7.231,3.67.625.625,0,0,0,.49,1.149,58.993,58.993,0,0,0,6.888-3.45Zm0,0" transform="translate(-92.478)" fill="#d1d0ce"/>
      <path id="Path_45019" data-name="Path 45019" d="M26.443,132.388a.624.624,0,0,0-.082-1.246c-1.356.089-2.72.135-4.056.135a.624.624,0,0,0-.625.625v4.488a.625.625,0,0,0,.625.625,69.72,69.72,0,0,0,24.389-4.5.625.625,0,0,0-.442-1.168,68.53,68.53,0,0,1-23.322,4.413v-3.238c1.162-.012,2.342-.057,3.514-.134Zm0,0" transform="translate(-19.874 -119.76)" fill="#d1d0ce"/>
    </g>
  </g>
</svg>
