<svg xmlns="http://www.w3.org/2000/svg" width="67.818" height="67.703" viewBox="0 0 67.818 67.703">
  <g id="icon-aqarchain-admin" transform="translate(-443 -6483.109)">
    <path id="Path_45000" data-name="Path 45000" d="M-10973.368-13100.054l-3.391,1.179-7.811,3.316-1.548,3.095v10.686l1.031,2.433h34.046l1.105-1.77-.295-12.675-10.316-6.264-1.99-.59-3.758,4.127-2.284,1.621Z" transform="translate(11445 19629)" fill="#d1d0ce" stroke="#707070" stroke-width="1"/>
    <g id="Group_16571" data-name="Group 16571" transform="translate(217.624 6233.381)">
      <path id="Path_44982" data-name="Path 44982" d="M265,258.74a1.062,1.062,0,0,1,1.059-1.059h2.12a1.062,1.062,0,0,1,1.059,1.059v8.254l2.12,2.221V258.74a3.186,3.186,0,0,0-3.179-3.175h-2.12a3.186,3.186,0,0,0-3.179,3.175v1.64L265,262.6Z" transform="translate(13.361 2.079)" fill="#828282"/>
      <path id="Path_44983" data-name="Path 44983" d="M292.882,282.829l-31.1-32.275a3.724,3.724,0,0,0-5.246.582l-30.839,31.482a1.048,1.048,0,0,0,1.482,1.481l30.893-31.533c.953-.953,1.8-.848,2.278-.477,0,0,31,32.169,31,32.222a1.073,1.073,0,0,0,1.484.053A1.04,1.04,0,0,0,292.882,282.829Z" transform="translate(0)" fill="#828282"/>
      <path id="Path_44984" data-name="Path 44984" d="M260.162,255.9a3.8,3.8,0,0,0-2.756-1.111A3.59,3.59,0,0,0,254.7,256l-23.367,24.391a5.284,5.284,0,0,0-1.271,3.175v28.889a3.185,3.185,0,0,0,3.179,3.174h4.238a5.129,5.129,0,0,1-.953-2.116h-3.285a1.062,1.062,0,0,1-1.061-1.058V283.568a2.84,2.84,0,0,1,.689-1.694l23.422-24.444a1.7,1.7,0,0,1,1.165-.529h.053a1.647,1.647,0,0,1,1.166.476l23.685,24.55a2.82,2.82,0,0,1,.689,1.641v28.889a1.061,1.061,0,0,1-1.059,1.058h-3.286a5.112,5.112,0,0,1-.953,2.116h4.24a3.186,3.186,0,0,0,3.179-3.174V283.568a5.138,5.138,0,0,0-1.272-3.122Z" transform="translate(1.67 1.801)" fill="#828282"/>
      <path id="Path_44985" data-name="Path 44985" d="M272.348,298.821v9.313a1.062,1.062,0,0,1-1.059,1.058H239.5a1.061,1.061,0,0,1-1.059-1.058v-9.366a8.371,8.371,0,0,1,.264-2.327,3.341,3.341,0,0,1,1.484-1.747L245.8,292.1l5.563,5.978a1.444,1.444,0,0,0,2.067.106l1.907-1.587s1.961,1.587,2.014,1.587a1.442,1.442,0,0,0,2.067-.106l5.563-5.978,5.617,2.592a3.109,3.109,0,0,1,1.484,1.747A8.522,8.522,0,0,1,272.348,298.821Zm-22.784-8.465,4.4,4.656-1.429,1.165-4.717-5.08ZM248.5,276.124v-.053a7.82,7.82,0,0,1,2.067-5.451,5.32,5.32,0,0,1,3.762-1.64H256.4a5.231,5.231,0,0,1,3.762,1.64,7.588,7.588,0,0,1,2.066,5.451v.053c.054,5.978-3.02,10.846-6.835,10.846S248.5,282.1,248.5,276.124Zm6.888,17.354-4.238-4.5v-1.428a7.054,7.054,0,0,0,4.238,1.534,6.739,6.739,0,0,0,4.24-1.534v1.428Zm7.577-2.329-4.716,5.08-1.484-1.165,4.451-4.709Zm11.181,4.763a5.3,5.3,0,0,0-2.6-3.069l-9.8-4.55V285.33a16.162,16.162,0,0,0,2.649-9.206,9.574,9.574,0,0,0-2.7-6.932,7.355,7.355,0,0,0-5.3-2.274h-2.067a7.442,7.442,0,0,0-5.3,2.274,9.834,9.834,0,0,0-2.7,6.984,15.985,15.985,0,0,0,2.65,9.153v2.963l-9.75,4.5a5.3,5.3,0,0,0-2.6,3.069,10.746,10.746,0,0,0-.317,2.909v9.366a3.186,3.186,0,0,0,3.179,3.174h31.794a3.186,3.186,0,0,0,3.179-3.174v-9.313A10.712,10.712,0,0,0,274.149,295.912Z" transform="translate(3.896 6.123)" fill="#828282"/>
      <path id="Path_44986" data-name="Path 44986" d="M251.72,292.9a1.057,1.057,0,0,1-.655.978,1.057,1.057,0,1,1,.344-1.726,1.064,1.064,0,0,1,.311.749Z" transform="translate(8.629 15.003)" fill="#828282"/>
      <path id="Path_44987" data-name="Path 44987" d="M251.72,296.026a1.064,1.064,0,0,1-.311.749,1.061,1.061,0,0,1-.75.309,1.058,1.058,0,1,1,0-2.116,1.061,1.061,0,0,1,.75.309,1.064,1.064,0,0,1,.311.749Z" transform="translate(8.629 16.115)" fill="#828282"/>
    </g>
  </g>
</svg>
