<svg xmlns="http://www.w3.org/2000/svg" width="25.35" height="21.125" viewBox="0 0 25.35 21.125">
  <g id="icon-identity-carrd" opacity="0.5">
    <path id="Path_536" data-name="Path 536" d="M22.446,61.681H2.9a2.907,2.907,0,0,1-2.9-2.9v-13.2a2.907,2.907,0,0,1,2.9-2.9H9.242a.792.792,0,0,1,0,1.584H2.9a1.322,1.322,0,0,0-1.32,1.32v13.2A1.322,1.322,0,0,0,2.9,60.1H22.446a1.322,1.322,0,0,0,1.32-1.32v-13.2a1.322,1.322,0,0,0-1.32-1.32H16.108a.792.792,0,0,1,0-1.584h6.338a2.907,2.907,0,0,1,2.9,2.9v13.2A2.907,2.907,0,0,1,22.446,61.681Zm0,0" transform="translate(0 -40.555)" fill="#9d9d9d"/>
    <path id="Path_537" data-name="Path 537" d="M177.27,5.809h-4.753a1.85,1.85,0,0,1-1.848-1.848V1.848A1.85,1.85,0,0,1,172.516,0h4.753a1.85,1.85,0,0,1,1.848,1.848V3.961A1.85,1.85,0,0,1,177.27,5.809Zm-4.753-4.225a.264.264,0,0,0-.264.264V3.961a.264.264,0,0,0,.264.264h4.753a.264.264,0,0,0,.264-.264V1.848a.264.264,0,0,0-.264-.264Zm0,0" transform="translate(-162.218)" fill="#9d9d9d"/>
    <path id="Path_538" data-name="Path 538" d="M109.309,154.613a2.641,2.641,0,1,1,2.641-2.641A2.644,2.644,0,0,1,109.309,154.613Zm0-3.7a1.056,1.056,0,1,0,1.056,1.056A1.058,1.058,0,0,0,109.309,150.917Zm0,0" transform="translate(-101.387 -141.938)" fill="#9d9d9d"/>
    <path id="Path_539" data-name="Path 539" d="M72.714,281.557a.792.792,0,0,1-.792-.792v-.528a1.322,1.322,0,0,0-1.32-1.32H66.9a1.322,1.322,0,0,0-1.32,1.32v.528a.792.792,0,1,1-1.584,0v-.528a2.907,2.907,0,0,1,2.9-2.9h3.7a2.907,2.907,0,0,1,2.9,2.9v.528A.793.793,0,0,1,72.714,281.557Zm0,0" transform="translate(-60.831 -263.601)" fill="#9d9d9d"/>
    <path id="Path_540" data-name="Path 540" d="M305.27,161.584H299.46a.792.792,0,0,1,0-1.584h5.809a.792.792,0,0,1,0,1.584Zm0,0" transform="translate(-283.88 -152.078)" fill="#9d9d9d"/>
    <path id="Path_541" data-name="Path 541" d="M305.27,246.916H299.46a.792.792,0,0,1,0-1.584h5.809a.792.792,0,1,1,0,1.584Zm0,0" transform="translate(-283.88 -233.185)" fill="#9d9d9d"/>
    <path id="Path_542" data-name="Path 542" d="M305.27,332.252H299.46a.792.792,0,0,1,0-1.584h5.809a.792.792,0,0,1,0,1.584Zm0,0" transform="translate(-283.88 -314.296)" fill="#9d9d9d"/>
  </g>
</svg>
