<svg xmlns="http://www.w3.org/2000/svg" width="52.424" height="52.417" viewBox="0 0 52.424 52.417">
  <g id="icon-aqarx-token" transform="translate(-113.329 -2211.906)">
    <g id="Group_16568" data-name="Group 16568" transform="translate(113.329 2211.906)">
      <path id="Path_44976" data-name="Path 44976" d="M158.076,2219.545h-.064a26.16,26.16,0,0,0-36.949,0,.182.182,0,0,0-.1.1,26.16,26.16,0,0,0,0,36.948.179.179,0,0,0,.1.1,26.16,26.16,0,0,0,36.949,0l.064-.064a.258.258,0,0,0,.039-.058,26.159,26.159,0,0,0,0-36.948A.276.276,0,0,0,158.076,2219.545Zm-17.9-6.393a24.8,24.8,0,0,1,16.518,6.872l-3.2,3.2a20.345,20.345,0,0,0-13.322-5.528Zm-1.279,0v4.541a20.35,20.35,0,0,0-13.322,5.523l-3.2-3.2a24.8,24.8,0,0,1,16.519-6.867Zm-17.42,7.773,3.2,3.2a20.353,20.353,0,0,0-5.53,13.322h-4.534A24.806,24.806,0,0,1,121.479,2220.925Zm-6.868,17.8h4.539a20.348,20.348,0,0,0,5.523,13.322l-3.2,3.2A24.8,24.8,0,0,1,114.611,2238.723Zm24.292,24.292a24.8,24.8,0,0,1-16.518-6.872l3.2-3.2a20.346,20.346,0,0,0,13.322,5.53Zm-18.493-24.931a19.133,19.133,0,1,1,19.134,19.132h-.007a19.177,19.177,0,0,1-19.131-19.133Zm19.772,24.931v-4.539a20.343,20.343,0,0,0,13.322-5.523l3.2,3.2a24.8,24.8,0,0,1-16.522,6.866Zm17.42-7.773-3.2-3.2a20.342,20.342,0,0,0,5.53-13.322h4.539a24.8,24.8,0,0,1-6.876,16.518Zm2.334-17.8a20.343,20.343,0,0,0-5.523-13.322l3.2-3.2a24.8,24.8,0,0,1,6.868,16.518Z" transform="translate(-113.329 -2211.906)" fill="#828282"/>
    </g>
    <path id="Path_44979" data-name="Path 44979" d="M128.559,2245.693l-.776,2.555h-1.7l2.889-9.016h2.1l2.929,9.016h-1.766l-.816-2.555Zm2.582-1.244-.708-2.221c-.174-.548-.321-1.164-.455-1.684h-.027c-.133.521-.267,1.15-.428,1.684l-.695,2.221Zm11.425,5.244a36.044,36.044,0,0,1-3.518-1.164,2.355,2.355,0,0,0-.589-.134c-2.087-.106-3.946-1.644-3.946-4.574,0-2.782,1.725-4.736,4.307-4.736,2.609,0,4.161,2.007,4.161,4.548,0,2.181-1,3.638-2.328,4.159v.054c.776.215,1.646.4,2.381.548Zm-1.324-5.979c0-1.726-.843-3.3-2.474-3.3s-2.529,1.565-2.516,3.371c-.013,1.806.911,3.291,2.489,3.291S141.241,2245.6,141.241,2243.713Zm3.159-4.361a15.588,15.588,0,0,1,2.488-.187,4.183,4.183,0,0,1,2.783.722,2.283,2.283,0,0,1,.775,1.806,2.4,2.4,0,0,1-1.631,2.261v.04a2.292,2.292,0,0,1,1.257,1.739,18.083,18.083,0,0,0,.709,2.515h-1.7a12.666,12.666,0,0,1-.6-2.127c-.254-1.177-.682-1.552-1.619-1.579h-.829v3.706H144.4Zm1.632,3.987h.975c1.111,0,1.806-.589,1.806-1.485,0-.99-.7-1.445-1.766-1.445a4.789,4.789,0,0,0-1.016.08Zm10.9,4.909-.977-1.792c-.388-.7-.642-1.177-.9-1.7h-.04c-.214.521-.455,1-.816,1.7l-.9,1.792h-1.886l2.675-4.561-2.568-4.455h1.886l.976,1.861c.295.561.509,1,.749,1.512h.028c.241-.562.428-.964.709-1.512l.963-1.861h1.886l-2.635,4.4,2.743,4.615Z" transform="translate(-2.912 -6.206)" fill="#d1d0ce"/>
  </g>
</svg>
