<svg xmlns="http://www.w3.org/2000/svg" xmlns:xlink="http://www.w3.org/1999/xlink" width="226" height="126" viewBox="0 0 226 126">
  <defs>
    <clipPath id="clip-path">
      <rect id="Rectangle_6704" data-name="Rectangle 6704" width="226" height="126" transform="translate(1421 5932)" fill="#fff" stroke="#707070" stroke-width="1"/>
    </clipPath>
  </defs>
  <g id="landing-page-aqarchain-token-ecosystem-section-bg" transform="translate(-1421 -5932)" clip-path="url(#clip-path)">
    <g id="Group_5074" data-name="Group 5074" transform="translate(0 721)">
      <g id="Ellipse_1600" data-name="Ellipse 1600" transform="translate(1426 5216)" fill="none" stroke="#fad289" stroke-width="1">
        <ellipse cx="12" cy="12.5" rx="12" ry="12.5" stroke="none"/>
        <ellipse cx="12" cy="12.5" rx="11.5" ry="12" fill="none"/>
      </g>
      <g id="Ellipse_1620" data-name="Ellipse 1620" transform="translate(1426 5292)" fill="none" stroke="#fad289" stroke-width="1">
        <ellipse cx="12" cy="12.5" rx="12" ry="12.5" stroke="none"/>
        <ellipse cx="12" cy="12.5" rx="11.5" ry="12" fill="none"/>
      </g>
      <g id="Ellipse_1632" data-name="Ellipse 1632" transform="translate(1426 5370)" fill="none" stroke="#fad289" stroke-width="1">
        <circle cx="12" cy="12" r="12" stroke="none"/>
        <circle cx="12" cy="12" r="11.5" fill="none"/>
      </g>
      <g id="Ellipse_1611" data-name="Ellipse 1611" transform="translate(1426 5255)" fill="none" stroke="#fad289" stroke-width="1">
        <ellipse cx="12" cy="11.5" rx="12" ry="11.5" stroke="none"/>
        <ellipse cx="12" cy="11.5" rx="11.5" ry="11" fill="none"/>
      </g>
      <g id="Ellipse_1621" data-name="Ellipse 1621" transform="translate(1426 5330)" fill="none" stroke="#fad289" stroke-width="1">
        <ellipse cx="12" cy="12.5" rx="12" ry="12.5" stroke="none"/>
        <ellipse cx="12" cy="12.5" rx="11.5" ry="12" fill="none"/>
      </g>
      <g id="Ellipse_1633" data-name="Ellipse 1633" transform="translate(1426 5408)" fill="none" stroke="#fad289" stroke-width="1">
        <circle cx="12" cy="12" r="12" stroke="none"/>
        <circle cx="12" cy="12" r="11.5" fill="none"/>
      </g>
      <g id="Ellipse_1605" data-name="Ellipse 1605" transform="translate(1540 5216)" fill="none" stroke="#fad289" stroke-width="1">
        <ellipse cx="13" cy="12.5" rx="13" ry="12.5" stroke="none"/>
        <ellipse cx="13" cy="12.5" rx="12.5" ry="12" fill="none"/>
      </g>
      <g id="Ellipse_1616" data-name="Ellipse 1616" transform="translate(1540 5292)" fill="none" stroke="#fad289" stroke-width="1">
        <ellipse cx="13" cy="12.5" rx="13" ry="12.5" stroke="none"/>
        <ellipse cx="13" cy="12.5" rx="12.5" ry="12" fill="none"/>
      </g>
      <g id="Ellipse_1628" data-name="Ellipse 1628" transform="translate(1540 5370)" fill="none" stroke="#fad289" stroke-width="1">
        <ellipse cx="13" cy="12" rx="13" ry="12" stroke="none"/>
        <ellipse cx="13" cy="12" rx="12.5" ry="11.5" fill="none"/>
      </g>
      <g id="Ellipse_1608" data-name="Ellipse 1608" transform="translate(1540 5255)" fill="none" stroke="#fad289" stroke-width="1">
        <ellipse cx="13" cy="11.5" rx="13" ry="11.5" stroke="none"/>
        <ellipse cx="13" cy="11.5" rx="12.5" ry="11" fill="none"/>
      </g>
      <g id="Ellipse_1617" data-name="Ellipse 1617" transform="translate(1540 5330)" fill="none" stroke="#fad289" stroke-width="1">
        <ellipse cx="13" cy="12.5" rx="13" ry="12.5" stroke="none"/>
        <ellipse cx="13" cy="12.5" rx="12.5" ry="12" fill="none"/>
      </g>
      <g id="Ellipse_1629" data-name="Ellipse 1629" transform="translate(1540 5408)" fill="none" stroke="#fad289" stroke-width="1">
        <ellipse cx="13" cy="12" rx="13" ry="12" stroke="none"/>
        <ellipse cx="13" cy="12" rx="12.5" ry="11.5" fill="none"/>
      </g>
      <g id="Ellipse_1601" data-name="Ellipse 1601" transform="translate(1464 5216)" fill="none" stroke="#fad289" stroke-width="1">
        <ellipse cx="12" cy="12.5" rx="12" ry="12.5" stroke="none"/>
        <ellipse cx="12" cy="12.5" rx="11.5" ry="12" fill="none"/>
      </g>
      <g id="Ellipse_1622" data-name="Ellipse 1622" transform="translate(1464 5292)" fill="none" stroke="#fad289" stroke-width="1">
        <ellipse cx="12" cy="12.5" rx="12" ry="12.5" stroke="none"/>
        <ellipse cx="12" cy="12.5" rx="11.5" ry="12" fill="none"/>
      </g>
      <g id="Ellipse_1634" data-name="Ellipse 1634" transform="translate(1464 5370)" fill="none" stroke="#fad289" stroke-width="1">
        <circle cx="12" cy="12" r="12" stroke="none"/>
        <circle cx="12" cy="12" r="11.5" fill="none"/>
      </g>
      <g id="Ellipse_1609" data-name="Ellipse 1609" transform="translate(1464 5255)" fill="none" stroke="#fad289" stroke-width="1">
        <ellipse cx="12" cy="11.5" rx="12" ry="11.5" stroke="none"/>
        <ellipse cx="12" cy="11.5" rx="11.5" ry="11" fill="none"/>
      </g>
      <g id="Ellipse_1623" data-name="Ellipse 1623" transform="translate(1464 5330)" fill="none" stroke="#fad289" stroke-width="1">
        <ellipse cx="12" cy="12.5" rx="12" ry="12.5" stroke="none"/>
        <ellipse cx="12" cy="12.5" rx="11.5" ry="12" fill="none"/>
      </g>
      <g id="Ellipse_1635" data-name="Ellipse 1635" transform="translate(1464 5408)" fill="none" stroke="#fad289" stroke-width="1">
        <circle cx="12" cy="12" r="12" stroke="none"/>
        <circle cx="12" cy="12" r="11.5" fill="none"/>
      </g>
      <g id="Ellipse_1604" data-name="Ellipse 1604" transform="translate(1580 5216)" fill="none" stroke="#fad289" stroke-width="1">
        <ellipse cx="11.5" cy="12.5" rx="11.5" ry="12.5" stroke="none"/>
        <ellipse cx="11.5" cy="12.5" rx="11" ry="12" fill="none"/>
      </g>
      <g id="Ellipse_1614" data-name="Ellipse 1614" transform="translate(1580 5292)" fill="none" stroke="#fad289" stroke-width="1">
        <ellipse cx="11.5" cy="12.5" rx="11.5" ry="12.5" stroke="none"/>
        <ellipse cx="11.5" cy="12.5" rx="11" ry="12" fill="none"/>
      </g>
      <g id="Ellipse_1626" data-name="Ellipse 1626" transform="translate(1580 5370)" fill="none" stroke="#fad289" stroke-width="1">
        <ellipse cx="11.5" cy="12" rx="11.5" ry="12" stroke="none"/>
        <ellipse cx="11.5" cy="12" rx="11" ry="11.5" fill="none"/>
      </g>
      <g id="Ellipse_1607" data-name="Ellipse 1607" transform="translate(1580 5255)" fill="none" stroke="#fad289" stroke-width="1">
        <circle cx="11.5" cy="11.5" r="11.5" stroke="none"/>
        <circle cx="11.5" cy="11.5" r="11" fill="none"/>
      </g>
      <g id="Ellipse_1615" data-name="Ellipse 1615" transform="translate(1580 5330)" fill="none" stroke="#fad289" stroke-width="1">
        <ellipse cx="11.5" cy="12.5" rx="11.5" ry="12.5" stroke="none"/>
        <ellipse cx="11.5" cy="12.5" rx="11" ry="12" fill="none"/>
      </g>
      <g id="Ellipse_1627" data-name="Ellipse 1627" transform="translate(1580 5408)" fill="none" stroke="#fad289" stroke-width="1">
        <ellipse cx="11.5" cy="12" rx="11.5" ry="12" stroke="none"/>
        <ellipse cx="11.5" cy="12" rx="11" ry="11.5" fill="none"/>
      </g>
      <g id="Ellipse_1602" data-name="Ellipse 1602" transform="translate(1503 5216)" fill="none" stroke="#fad289" stroke-width="1">
        <ellipse cx="12" cy="12.5" rx="12" ry="12.5" stroke="none"/>
        <ellipse cx="12" cy="12.5" rx="11.5" ry="12" fill="none"/>
      </g>
      <g id="Ellipse_1618" data-name="Ellipse 1618" transform="translate(1503 5292)" fill="none" stroke="#fad289" stroke-width="1">
        <ellipse cx="12" cy="12.5" rx="12" ry="12.5" stroke="none"/>
        <ellipse cx="12" cy="12.5" rx="11.5" ry="12" fill="none"/>
      </g>
      <g id="Ellipse_1630" data-name="Ellipse 1630" transform="translate(1503 5370)" fill="none" stroke="#fad289" stroke-width="1">
        <circle cx="12" cy="12" r="12" stroke="none"/>
        <circle cx="12" cy="12" r="11.5" fill="none"/>
      </g>
      <g id="Ellipse_1610" data-name="Ellipse 1610" transform="translate(1503 5255)" fill="none" stroke="#fad289" stroke-width="1">
        <ellipse cx="12" cy="11.5" rx="12" ry="11.5" stroke="none"/>
        <ellipse cx="12" cy="11.5" rx="11.5" ry="11" fill="none"/>
      </g>
      <g id="Ellipse_1619" data-name="Ellipse 1619" transform="translate(1503 5330)" fill="none" stroke="#fad289" stroke-width="1">
        <ellipse cx="12" cy="12.5" rx="12" ry="12.5" stroke="none"/>
        <ellipse cx="12" cy="12.5" rx="11.5" ry="12" fill="none"/>
      </g>
      <g id="Ellipse_1631" data-name="Ellipse 1631" transform="translate(1503 5408)" fill="none" stroke="#fad289" stroke-width="1">
        <circle cx="12" cy="12" r="12" stroke="none"/>
        <circle cx="12" cy="12" r="11.5" fill="none"/>
      </g>
      <g id="Ellipse_1603" data-name="Ellipse 1603" transform="translate(1617 5216)" fill="none" stroke="#fad289" stroke-width="1">
        <circle cx="12.5" cy="12.5" r="12.5" stroke="none"/>
        <circle cx="12.5" cy="12.5" r="12" fill="none"/>
      </g>
      <g id="Ellipse_1612" data-name="Ellipse 1612" transform="translate(1617 5292)" fill="none" stroke="#fad289" stroke-width="1">
        <circle cx="12.5" cy="12.5" r="12.5" stroke="none"/>
        <circle cx="12.5" cy="12.5" r="12" fill="none"/>
      </g>
      <g id="Ellipse_1624" data-name="Ellipse 1624" transform="translate(1617 5370)" fill="none" stroke="#fad289" stroke-width="1">
        <ellipse cx="12.5" cy="12" rx="12.5" ry="12" stroke="none"/>
        <ellipse cx="12.5" cy="12" rx="12" ry="11.5" fill="none"/>
      </g>
      <g id="Ellipse_1606" data-name="Ellipse 1606" transform="translate(1617 5255)" fill="none" stroke="#fad289" stroke-width="1">
        <ellipse cx="12.5" cy="11.5" rx="12.5" ry="11.5" stroke="none"/>
        <ellipse cx="12.5" cy="11.5" rx="12" ry="11" fill="none"/>
      </g>
      <g id="Ellipse_1613" data-name="Ellipse 1613" transform="translate(1617 5330)" fill="none" stroke="#fad289" stroke-width="1">
        <circle cx="12.5" cy="12.5" r="12.5" stroke="none"/>
        <circle cx="12.5" cy="12.5" r="12" fill="none"/>
      </g>
      <g id="Ellipse_1625" data-name="Ellipse 1625" transform="translate(1617 5408)" fill="none" stroke="#fad289" stroke-width="1">
        <ellipse cx="12.5" cy="12" rx="12.5" ry="12" stroke="none"/>
        <ellipse cx="12.5" cy="12" rx="12" ry="11.5" fill="none"/>
      </g>
    </g>
  </g>
</svg>
