<svg xmlns="http://www.w3.org/2000/svg" width="49.641" height="49.642" viewBox="0 0 49.641 49.642">
  <g id="landing-page-features-section-img_2" transform="translate(-308.707 -7292.362)">
    <circle id="Ellipse_1670" data-name="Ellipse 1670" cx="6" cy="6" r="6" transform="translate(309.348 7294)" fill="#d1d0ce"/>
    <circle id="Ellipse_1673" data-name="Ellipse 1673" cx="6" cy="6" r="6" transform="translate(309.348 7329)" fill="#d1d0ce"/>
    <circle id="Ellipse_1671" data-name="Ellipse 1671" cx="6" cy="6" r="6" transform="translate(344.348 7294)" fill="#d1d0ce"/>
    <circle id="Ellipse_1672" data-name="Ellipse 1672" cx="6" cy="6" r="6" transform="translate(344.348 7329)" fill="#d1d0ce"/>
    <g id="Group_16592" data-name="Group 16592" transform="translate(3960.571 9181.511)">
      <path id="Path_45006" data-name="Path 45006" d="M-3615.655-1850.925l-1.068-1q-10.309,7.31-20.56.026c-1.14.886-1.1.871-.583,2.124a6.988,6.988,0,0,1-1.116,7.678,6.868,6.868,0,0,1-7.569,2.26,6.846,6.846,0,0,1-5.118-5.611,6.874,6.874,0,0,1,2.743-7.166,7.06,7.06,0,0,1,7.732-.7c.215.1.425.211.763.379l.955-1.164q-7.221-10.23.022-20.474c-.863-1.164-.851-1.136-2.075-.61a6.961,6.961,0,0,1-7.68-1.064,6.849,6.849,0,0,1-2.361-7.458,6.9,6.9,0,0,1,5.675-5.276,6.848,6.848,0,0,1,7.107,2.674,6.959,6.959,0,0,1,.9,7.474c-.528,1.22-.554,1.209.6,2.088,6.833-4.854,13.646-4.84,20.584.049l.89-1.02a21.72,21.72,0,0,1-.913-3.142,7.236,7.236,0,0,1,6.787-8.266,7.3,7.3,0,0,1,7.688,7.2,7.216,7.216,0,0,1-7.649,7.374,8.614,8.614,0,0,1-2.578-.617c-1.263-.487-1.241-.544-2.136.59,4.841,6.813,4.852,13.632-.033,20.578l1.148.986c4.173-1.89,7.75-1.156,10,2.082a7.346,7.346,0,0,1-.888,9.323,7.394,7.394,0,0,1-9.263.841C-3616.112-1842.448-3618.182-1846.33-3615.655-1850.925Zm-24.46-13.364a13.11,13.11,0,0,0,13.129,13.072,13.164,13.164,0,0,0,13.068-13.065,13.1,13.1,0,0,0-13.062-13.137A13.05,13.05,0,0,0-3640.115-1864.289Zm-8.73-17.542a4.33,4.33,0,0,0,4.319,4.385,4.387,4.387,0,0,0,4.385-4.344,4.338,4.338,0,0,0-4.34-4.365A4.293,4.293,0,0,0-3648.845-1881.83Zm34.952,0a4.346,4.346,0,0,0,4.329,4.385,4.385,4.385,0,0,0,4.382-4.348,4.347,4.347,0,0,0-4.437-4.365A4.3,4.3,0,0,0-3613.893-1881.83Zm-34.962,34.983a4.351,4.351,0,0,0,4.349,4.367,4.39,4.39,0,0,0,4.365-4.368,4.357,4.357,0,0,0-4.457-4.35A4.316,4.316,0,0,0-3648.855-1846.848Zm34.958-.02a4.363,4.363,0,0,0,4.331,4.387,4.387,4.387,0,0,0,4.385-4.345,4.358,4.358,0,0,0-4.348-4.369A4.308,4.308,0,0,0-3613.9-1846.868Z" transform="translate(0 0)" fill="#828282"/>
      <path id="Path_45007" data-name="Path 45007" d="M-3537.958-1790.2c-.207,1.136.327,2.808-1.533,2.8s-1.342-1.65-1.493-2.85c-.692,0-1.338.015-1.983,0a1.446,1.446,0,0,1-1.593-1.433,1.412,1.412,0,0,1,1.557-1.458c1.722-.03,3.445-.006,5.167-.015,1.136-.007,1.265-.169,1.262-1.5,0-1.246-.143-1.413-1.253-1.422-1.247-.01-2.5.019-3.742-.01a3.614,3.614,0,0,1-3.741-3.782c-.009-.475-.017-.951.008-1.426a3.587,3.587,0,0,1,3.125-3.461c.377-.06.76-.084,1.175-.129.227-1.153-.432-2.954,1.512-2.966s1.264,1.821,1.55,3.021c.645,0,1.263-.016,1.88,0,1.024.033,1.682.616,1.683,1.466a1.517,1.517,0,0,1-1.684,1.465c-1.692.029-3.385,0-5.078.012-1.1,0-1.233.14-1.245,1.226-.018,1.63.014,1.663,1.612,1.665,1.188,0,2.376-.02,3.563.015a3.516,3.516,0,0,1,3.449,2.92,9.556,9.556,0,0,1,.021,2.832,3.582,3.582,0,0,1-3.408,2.984Z" transform="translate(-87.545 -66.79)" fill="#828282"/>
    </g>
  </g>
</svg>
