<svg xmlns="http://www.w3.org/2000/svg" xmlns:xlink="http://www.w3.org/1999/xlink" width="194" height="68" viewBox="0 0 194 68">
  <defs>
    <clipPath id="clip-path">
      <rect id="Rectangle_3101" data-name="Rectangle 3101" width="194" height="68" transform="translate(1458 2877)" fill="#fff" stroke="#707070" stroke-width="1"/>
    </clipPath>
  </defs>
  <g id="landing-page-about-aqarchain-background-top" transform="translate(-1458 -2877)" clip-path="url(#clip-path)">
    <g id="Group_4114" data-name="Group 4114" transform="translate(3664.392 -2230.241)">
      <g id="Ellipse_1600" data-name="Ellipse 1600" transform="translate(-2198.392 4991.241)" fill="none" stroke="#fad289" stroke-width="1">
        <circle cx="10" cy="10" r="10" stroke="none"/>
        <circle cx="10" cy="10" r="9.5" fill="none"/>
      </g>
      <g id="Ellipse_1620" data-name="Ellipse 1620" transform="translate(-2198.392 5053.241)" fill="none" stroke="#fad289" stroke-width="1">
        <circle cx="10" cy="10" r="10" stroke="none"/>
        <circle cx="10" cy="10" r="9.5" fill="none"/>
      </g>
      <g id="Ellipse_1632" data-name="Ellipse 1632" transform="translate(-2198.392 5116.241)" fill="none" stroke="#fad289" stroke-width="1">
        <circle cx="10" cy="10" r="10" stroke="none"/>
        <circle cx="10" cy="10" r="9.5" fill="none"/>
      </g>
      <g id="Ellipse_1611" data-name="Ellipse 1611" transform="translate(-2198.392 5023.241)" fill="none" stroke="#fad289" stroke-width="1">
        <ellipse cx="10" cy="9.5" rx="10" ry="9.5" stroke="none"/>
        <ellipse cx="10" cy="9.5" rx="9.5" ry="9" fill="none"/>
      </g>
      <g id="Ellipse_1621" data-name="Ellipse 1621" transform="translate(-2198.392 5085.241)" fill="none" stroke="#fad289" stroke-width="1">
        <ellipse cx="10" cy="9.5" rx="10" ry="9.5" stroke="none"/>
        <ellipse cx="10" cy="9.5" rx="9.5" ry="9" fill="none"/>
      </g>
      <g id="Ellipse_1633" data-name="Ellipse 1633" transform="translate(-2198.392 5147.241)" fill="none" stroke="#fad289" stroke-width="1">
        <circle cx="10" cy="10" r="10" stroke="none"/>
        <circle cx="10" cy="10" r="9.5" fill="none"/>
      </g>
      <g id="Ellipse_1605" data-name="Ellipse 1605" transform="translate(-2104.392 4991.241)" fill="none" stroke="#fad289" stroke-width="1">
        <circle cx="10" cy="10" r="10" stroke="none"/>
        <circle cx="10" cy="10" r="9.5" fill="none"/>
      </g>
      <g id="Ellipse_1616" data-name="Ellipse 1616" transform="translate(-2104.392 5053.241)" fill="none" stroke="#fad289" stroke-width="1">
        <circle cx="10" cy="10" r="10" stroke="none"/>
        <circle cx="10" cy="10" r="9.5" fill="none"/>
      </g>
      <g id="Ellipse_1628" data-name="Ellipse 1628" transform="translate(-2104.392 5116.241)" fill="none" stroke="#fad289" stroke-width="1">
        <circle cx="10" cy="10" r="10" stroke="none"/>
        <circle cx="10" cy="10" r="9.5" fill="none"/>
      </g>
      <g id="Ellipse_1608" data-name="Ellipse 1608" transform="translate(-2104.392 5023.241)" fill="none" stroke="#fad289" stroke-width="1">
        <ellipse cx="10" cy="9.5" rx="10" ry="9.5" stroke="none"/>
        <ellipse cx="10" cy="9.5" rx="9.5" ry="9" fill="none"/>
      </g>
      <g id="Ellipse_1617" data-name="Ellipse 1617" transform="translate(-2104.392 5085.241)" fill="none" stroke="#fad289" stroke-width="1">
        <ellipse cx="10" cy="9.5" rx="10" ry="9.5" stroke="none"/>
        <ellipse cx="10" cy="9.5" rx="9.5" ry="9" fill="none"/>
      </g>
      <g id="Ellipse_1629" data-name="Ellipse 1629" transform="translate(-2104.392 5147.241)" fill="none" stroke="#fad289" stroke-width="1">
        <circle cx="10" cy="10" r="10" stroke="none"/>
        <circle cx="10" cy="10" r="9.5" fill="none"/>
      </g>
      <g id="Ellipse_1601" data-name="Ellipse 1601" transform="translate(-2167.392 4991.241)" fill="none" stroke="#fad289" stroke-width="1">
        <circle cx="10" cy="10" r="10" stroke="none"/>
        <circle cx="10" cy="10" r="9.5" fill="none"/>
      </g>
      <g id="Ellipse_1622" data-name="Ellipse 1622" transform="translate(-2167.392 5053.241)" fill="none" stroke="#fad289" stroke-width="1">
        <circle cx="10" cy="10" r="10" stroke="none"/>
        <circle cx="10" cy="10" r="9.5" fill="none"/>
      </g>
      <g id="Ellipse_1634" data-name="Ellipse 1634" transform="translate(-2167.392 5116.241)" fill="none" stroke="#fad289" stroke-width="1">
        <circle cx="10" cy="10" r="10" stroke="none"/>
        <circle cx="10" cy="10" r="9.5" fill="none"/>
      </g>
      <g id="Ellipse_1609" data-name="Ellipse 1609" transform="translate(-2167.392 5023.241)" fill="none" stroke="#fad289" stroke-width="1">
        <ellipse cx="10" cy="9.5" rx="10" ry="9.5" stroke="none"/>
        <ellipse cx="10" cy="9.5" rx="9.5" ry="9" fill="none"/>
      </g>
      <g id="Ellipse_1623" data-name="Ellipse 1623" transform="translate(-2167.392 5085.241)" fill="none" stroke="#fad289" stroke-width="1">
        <ellipse cx="10" cy="9.5" rx="10" ry="9.5" stroke="none"/>
        <ellipse cx="10" cy="9.5" rx="9.5" ry="9" fill="none"/>
      </g>
      <g id="Ellipse_1635" data-name="Ellipse 1635" transform="translate(-2167.392 5147.241)" fill="none" stroke="#fad289" stroke-width="1">
        <circle cx="10" cy="10" r="10" stroke="none"/>
        <circle cx="10" cy="10" r="9.5" fill="none"/>
      </g>
      <g id="Ellipse_1604" data-name="Ellipse 1604" transform="translate(-2073.392 4991.241)" fill="none" stroke="#fad289" stroke-width="1">
        <ellipse cx="9.5" cy="10" rx="9.5" ry="10" stroke="none"/>
        <ellipse cx="9.5" cy="10" rx="9" ry="9.5" fill="none"/>
      </g>
      <g id="Ellipse_1614" data-name="Ellipse 1614" transform="translate(-2073.392 5053.241)" fill="none" stroke="#fad289" stroke-width="1">
        <ellipse cx="9.5" cy="10" rx="9.5" ry="10" stroke="none"/>
        <ellipse cx="9.5" cy="10" rx="9" ry="9.5" fill="none"/>
      </g>
      <g id="Ellipse_1626" data-name="Ellipse 1626" transform="translate(-2073.392 5116.241)" fill="none" stroke="#fad289" stroke-width="1">
        <ellipse cx="9.5" cy="10" rx="9.5" ry="10" stroke="none"/>
        <ellipse cx="9.5" cy="10" rx="9" ry="9.5" fill="none"/>
      </g>
      <g id="Ellipse_1607" data-name="Ellipse 1607" transform="translate(-2073.392 5023.241)" fill="none" stroke="#fad289" stroke-width="1">
        <circle cx="9.5" cy="9.5" r="9.5" stroke="none"/>
        <circle cx="9.5" cy="9.5" r="9" fill="none"/>
      </g>
      <g id="Ellipse_1615" data-name="Ellipse 1615" transform="translate(-2073.392 5085.241)" fill="none" stroke="#fad289" stroke-width="1">
        <circle cx="9.5" cy="9.5" r="9.5" stroke="none"/>
        <circle cx="9.5" cy="9.5" r="9" fill="none"/>
      </g>
      <g id="Ellipse_1627" data-name="Ellipse 1627" transform="translate(-2073.392 5147.241)" fill="none" stroke="#fad289" stroke-width="1">
        <ellipse cx="9.5" cy="10" rx="9.5" ry="10" stroke="none"/>
        <ellipse cx="9.5" cy="10" rx="9" ry="9.5" fill="none"/>
      </g>
      <g id="Ellipse_1602" data-name="Ellipse 1602" transform="translate(-2135.392 4991.241)" fill="none" stroke="#fad289" stroke-width="1">
        <ellipse cx="9.5" cy="10" rx="9.5" ry="10" stroke="none"/>
        <ellipse cx="9.5" cy="10" rx="9" ry="9.5" fill="none"/>
      </g>
      <g id="Ellipse_1618" data-name="Ellipse 1618" transform="translate(-2135.392 5053.241)" fill="none" stroke="#fad289" stroke-width="1">
        <ellipse cx="9.5" cy="10" rx="9.5" ry="10" stroke="none"/>
        <ellipse cx="9.5" cy="10" rx="9" ry="9.5" fill="none"/>
      </g>
      <g id="Ellipse_1630" data-name="Ellipse 1630" transform="translate(-2135.392 5116.241)" fill="none" stroke="#fad289" stroke-width="1">
        <ellipse cx="9.5" cy="10" rx="9.5" ry="10" stroke="none"/>
        <ellipse cx="9.5" cy="10" rx="9" ry="9.5" fill="none"/>
      </g>
      <g id="Ellipse_1610" data-name="Ellipse 1610" transform="translate(-2135.392 5023.241)" fill="none" stroke="#fad289" stroke-width="1">
        <circle cx="9.5" cy="9.5" r="9.5" stroke="none"/>
        <circle cx="9.5" cy="9.5" r="9" fill="none"/>
      </g>
      <g id="Ellipse_1619" data-name="Ellipse 1619" transform="translate(-2135.392 5085.241)" fill="none" stroke="#fad289" stroke-width="1">
        <circle cx="9.5" cy="9.5" r="9.5" stroke="none"/>
        <circle cx="9.5" cy="9.5" r="9" fill="none"/>
      </g>
      <g id="Ellipse_1631" data-name="Ellipse 1631" transform="translate(-2135.392 5147.241)" fill="none" stroke="#fad289" stroke-width="1">
        <ellipse cx="9.5" cy="10" rx="9.5" ry="10" stroke="none"/>
        <ellipse cx="9.5" cy="10" rx="9" ry="9.5" fill="none"/>
      </g>
      <g id="Ellipse_1603" data-name="Ellipse 1603" transform="translate(-2042.392 4991.241)" fill="none" stroke="#fad289" stroke-width="1">
        <circle cx="10" cy="10" r="10" stroke="none"/>
        <circle cx="10" cy="10" r="9.5" fill="none"/>
      </g>
      <g id="Ellipse_1612" data-name="Ellipse 1612" transform="translate(-2042.392 5053.241)" fill="none" stroke="#fad289" stroke-width="1">
        <circle cx="10" cy="10" r="10" stroke="none"/>
        <circle cx="10" cy="10" r="9.5" fill="none"/>
      </g>
      <g id="Ellipse_1624" data-name="Ellipse 1624" transform="translate(-2042.392 5116.241)" fill="none" stroke="#fad289" stroke-width="1">
        <circle cx="10" cy="10" r="10" stroke="none"/>
        <circle cx="10" cy="10" r="9.5" fill="none"/>
      </g>
      <g id="Ellipse_1606" data-name="Ellipse 1606" transform="translate(-2042.392 5023.241)" fill="none" stroke="#fad289" stroke-width="1">
        <ellipse cx="10" cy="9.5" rx="10" ry="9.5" stroke="none"/>
        <ellipse cx="10" cy="9.5" rx="9.5" ry="9" fill="none"/>
      </g>
      <g id="Ellipse_1613" data-name="Ellipse 1613" transform="translate(-2042.392 5085.241)" fill="none" stroke="#fad289" stroke-width="1">
        <ellipse cx="10" cy="9.5" rx="10" ry="9.5" stroke="none"/>
        <ellipse cx="10" cy="9.5" rx="9.5" ry="9" fill="none"/>
      </g>
      <g id="Ellipse_1625" data-name="Ellipse 1625" transform="translate(-2042.392 5147.241)" fill="none" stroke="#fad289" stroke-width="1">
        <circle cx="10" cy="10" r="10" stroke="none"/>
        <circle cx="10" cy="10" r="9.5" fill="none"/>
      </g>
    </g>
  </g>
</svg>
