<svg xmlns="http://www.w3.org/2000/svg" width="44.005" height="49.229" viewBox="0 0 44.005 49.229">
  <g id="landing-page-features-section-img_1" transform="translate(4054.292 1905.993)">
    <path id="Path_45005" data-name="Path 45005" d="M-4036.307-1893.322l-7.522,1.515-7.718,7.325-1.788,5.931v7.544l3.532,6.8,8.023,5.713,7.151,1.308,7.979-2.311,1.526-1.352-10.6-14.957v-17.518Z" fill="#d1d0ce"/>
    <path id="Path_45002" data-name="Path 45002" d="M-4034.964-1816.291c0,2.766-.017,5.533.02,8.3a2.422,2.422,0,0,0,.412,1.283c3.16,4.51,6.35,9,9.529,13.495.664.939.623,1.13-.33,1.758a18.749,18.749,0,0,1-28.749-12.82c-1.682-11.089,6.975-21.38,18.043-21.449.946-.006,1.072.111,1.073,1.06Q-4034.961-1820.478-4034.964-1816.291Zm8.812,23.733c-.167-.244-.3-.449-.445-.65-3.068-4.333-6.145-8.659-9.188-13.01a2.66,2.66,0,0,1-.457-1.42c-.032-5.286-.02-10.572-.02-15.857v-.854a17.147,17.147,0,0,0-15.708,11.464,17.2,17.2,0,0,0,6.733,20.271C-4038.762-1788.345-4030.926-1789.091-4026.152-1792.558Z" transform="translate(0 -68.37)" opacity="0.49"/>
    <path id="Path_45003" data-name="Path 45003" d="M-3885.025-1718.667a18.864,18.864,0,0,1-7.562,15.094c-.715.552-.945.516-1.44-.182q-4.966-7.007-9.929-14.017c-.686-.969-.539-1.329.605-1.516q8.325-1.358,16.653-2.708c1.221-.2,1.382-.073,1.5,1.138C-3885.128-1720.1-3885.078-1719.335-3885.025-1718.667Zm-17.57.568,9.382,13.258c4.386-2.5,8.2-11.669,6.587-15.844Z" transform="translate(-127.701 -156.659)" opacity="0.49"/>
    <path id="Path_45004" data-name="Path 45004" d="M-3883.8-1887.78v5.316a.606.606,0,0,1-.6.6h-18.149a.607.607,0,0,1-.605-.6v-5.346a4.768,4.768,0,0,1,.151-1.329,1.91,1.91,0,0,1,.847-1l3.206-1.48,3.176,3.413a.824.824,0,0,0,1.18.061l1.089-.906s1.119.906,1.149.906a.822.822,0,0,0,1.18-.061l3.176-3.413,3.207,1.48a1.774,1.774,0,0,1,.847,1A4.854,4.854,0,0,1-3883.8-1887.78Zm-13.007-4.833,2.511,2.658-.816.665-2.692-2.9Zm-.6-8.125v-.03a4.462,4.462,0,0,1,1.179-3.111,3.037,3.037,0,0,1,2.148-.936h1.18a2.987,2.987,0,0,1,2.148.936,4.331,4.331,0,0,1,1.179,3.111v.03c.03,3.413-1.724,6.192-3.9,6.192S-3897.41-1897.324-3897.41-1900.738Zm3.932,9.907-2.42-2.567v-.815a4.03,4.03,0,0,0,2.42.876,3.845,3.845,0,0,0,2.42-.876v.815Zm4.326-1.329-2.692,2.9-.847-.664,2.541-2.688Zm6.382,2.718a3.027,3.027,0,0,0-1.482-1.752l-5.6-2.6v-1.692a9.223,9.223,0,0,0,1.513-5.256,5.465,5.465,0,0,0-1.542-3.957,4.2,4.2,0,0,0-3.025-1.3h-1.18a4.247,4.247,0,0,0-3.025,1.3,5.613,5.613,0,0,0-1.543,3.987,9.126,9.126,0,0,0,1.513,5.225v1.692l-5.566,2.567a3.027,3.027,0,0,0-1.482,1.752,6.145,6.145,0,0,0-.182,1.661v5.346a1.819,1.819,0,0,0,1.815,1.812h18.149a1.819,1.819,0,0,0,1.815-1.812v-5.316A6.123,6.123,0,0,0-3882.77-1889.441Z" transform="translate(-127.701 0)" fill="#828282"/>
  </g>
</svg>
