<svg xmlns="http://www.w3.org/2000/svg" width="642.919" height="408.493" viewBox="0 0 642.919 408.493">
  <g id="landing-page-tokenomics-section-token-allocation" transform="translate(-318.581 -13557.4)">
    <text id="_350_millions_Token_150_millions_Token_sale_10_millions_Hard_Cap" data-name="350 millions Token 150 millions Token sale 10 millions Hard Cap" transform="translate(897.5 13942.894)" fill="#fff" font-size="16" font-family="Montserrat-Regular, Montserrat"><tspan x="0" y="0">Reserve</tspan><tspan x="0" y="19">Supply</tspan></text>
    <text id="_350_millions_Token_150_millions_Token_sale_10_millions_Hard_Cap-2" data-name="350 millions Token 150 millions Token sale 10 millions Hard Cap" transform="translate(695.062 13572.4)" fill="#fff" font-size="16" font-family="Montserrat-Regular, Montserrat"><tspan x="0" y="0">Bounty Rewards </tspan><tspan x="0" y="19">&amp; Expenses</tspan></text>
    <text id="_350_millions_Token_150_millions_Token_sale_10_millions_Hard_Cap-3" data-name="350 millions Token 150 millions Token sale 10 millions Hard Cap" transform="translate(318.581 13624.613)" fill="#fff" font-size="16" font-family="Montserrat-Regular, Montserrat"><tspan x="0" y="0">Token Public Sale</tspan></text>
    <text id="_350_millions_Token_150_millions_Token_sale_10_millions_Hard_Cap-4" data-name="350 millions Token 150 millions Token sale 10 millions Hard Cap" transform="translate(353.39 13916.82)" fill="#fff" font-size="16" font-family="Montserrat-Regular, Montserrat"><tspan x="0" y="0">Team Member</tspan></text>
    <text id="_350_millions_Token_150_millions_Token_sale_10_millions_Hard_Cap-5" data-name="350 millions Token 150 millions Token sale 10 millions Hard Cap" transform="translate(346.062 13701.558)" fill="#fff" font-size="16" font-family="Montserrat-Regular, Montserrat"><tspan x="0" y="0">Public Sale </tspan><tspan x="0" y="19">Bonus</tspan></text>
    <g id="Group_5126" data-name="Group 5126" transform="translate(515.581 13675.397)">
      <g id="Group_5125" data-name="Group 5125">
        <path id="Path_5762" data-name="Path 5762" d="M458.065,4806.411a144.891,144.891,0,0,1-53.528,112.474l-.528.427-36.166-46.222c.092-.083.193-.159.285-.243a86.357,86.357,0,0,0-55.164-152.826c-.092,0-.193,0-.285.008h-.008V4661.31h.294C392.97,4661.31,458.065,4726.4,458.065,4806.411Z" transform="translate(-167.862 -4661.31)" fill="#ba8a00"/>
        <path id="Path_5763" data-name="Path 5763" d="M385.155,4958.717l-.528.427a144.407,144.407,0,0,1-91.045,32.2,146.239,146.239,0,0,1-100.211-39.6l39.471-43.438a87.921,87.921,0,0,0,60.741,24.332,86.224,86.224,0,0,0,54.878-19.71c.092-.083.193-.159.285-.243Z" transform="translate(-148.48 -4701.141)" fill="#ba8a00"/>
        <path id="Path_5764" data-name="Path 5764" d="M224.967,4880.363l-39.538,43.388a144.723,144.723,0,0,1-45.409-105.337c0-30.01,9.854-58.618,25.522-81.784l49.292,31.906c-9.7,13.957-16.078,31.6-16.1,49.878A86.265,86.265,0,0,0,224.967,4880.363Z" transform="translate(-140.02 -4673.313)" fill="#f0b500"/>
        <path id="Path_5765" data-name="Path 5765" d="M312.3,4830.089l-.327-.319.294.185Z" transform="translate(-167.749 -4688.477)" fill="#f0b500"/>
        <path id="Path_5766" data-name="Path 5766" d="M230.034,4752.226c-.059.042-.109.1-.168.151a86.125,86.125,0,0,0-10.853,12.757L169.67,4733.3a145.432,145.432,0,0,1,18.377-22.1.71.71,0,0,1,.084-.084Z" transform="translate(-144.802 -4669.343)" fill="#fcc658"/>
        <path id="Path_5768" data-name="Path 5768" d="M271.805,4723.679a86.224,86.224,0,0,0-38.238,21.413c-.059.042-.109.1-.168.151l-41.819-41.173a.71.71,0,0,1,.084-.084,145.04,145.04,0,0,1,65.2-37.105Z" transform="translate(-148.335 -4662.208)" fill="#fcd493"/>
        <path id="Path_5770" data-name="Path 5770" d="M306.409,4661.31v58.719H306.4a88.894,88.894,0,0,0-21.539,2.7l-15.351-56.765a149.713,149.713,0,0,1,36.891-4.655Z" transform="translate(-161.593 -4661.31)" fill="#fce0ba"/>
      </g>
    </g>
    <path id="Path_5773" data-name="Path 5773" d="M1930.067,19158.949h-75.34l-47.117,47.117" transform="translate(-1397.037 -5313.057)" fill="none" stroke="#fff" stroke-width="1"/>
    <path id="Path_5774" data-name="Path 5774" d="M1958.762,19035.5l-40.443-40.443h-59.271" transform="translate(-1401.357 -5299.291)" fill="none" stroke="#fff" stroke-width="1"/>
    <path id="Path_5775" data-name="Path 5775" d="M2000.753,19013.633l-52.628-76.031H1889" transform="translate(-1403.873 -5317.873)" fill="none" stroke="#fff" stroke-width="1"/>
    <path id="Path_5776" data-name="Path 5776" d="M2064.514,18969.371v-66.213l36.869-36.867" transform="translate(-1418.614 -5288.477)" fill="none" stroke="#fff" stroke-width="1"/>
    <path id="Path_5777" data-name="Path 5777" d="M439.048,330.951H543.567L578.011,365.4" transform="translate(316.581 13555.4)" fill="none" stroke="#fff" stroke-width="1"/>
  </g>
</svg>
