<svg xmlns="http://www.w3.org/2000/svg" width="237.796" height="137.945" viewBox="0 0 237.796 137.945">
  <g id="Group_525" data-name="Group 525" transform="translate(2616 -5026)">
    <g id="Group_524" data-name="Group 524">
      <path id="Path_1" data-name="Path 1" d="M393.914,258.67c0,2.435-7.294,1.484-9.8,1.484-.674-7.759-.374-2.929.374-11.639a22.345,22.345,0,0,1-2.656-.38l-.748,6.2v4.944c.449,2.4,1.945,3.879,5.648,3.879,3.179,0,6.658.5,8.64-1.559,2.469-2.586-.6-5.629,2.656-5.971l20.76.038c.823,0,1.833.038,2.655,0,1.833-.114,1.01-.19,2.507-.533,1.832-.456,2.655.533,5.012.533h16.982v-13.92c0-1.37-.823-1.141-2.656-1.141,0,13.5.972,12.132-3.367,12.056-1.533-.038-3.029,0-4.526,0,.374-4.83.861-6.275-.411-11.676-2.469,0-2.918-.19-2.469,2.4,1.235,6.808.225,5.134.225,9.28-7.743,0-6.4,1.407-6.4-9.052h-2.655c0,10.459,1.234,9.052-6.771,9.052v-9.052c-3.89,0-3.029-1.179-3.029,9.052h-7.182V241.746c0-1.37-.785-1.141-2.618-1.141v12.056h-7.556V240.6h-2.618V258.67Z" transform="translate(-2893.102 4868.391)" fill="#fff" fill-rule="evenodd"/>
      <path id="Path_2" data-name="Path 2" d="M482.525,245.891v-2.282h7.519c0,10.954,1.72,9.052-6.771,9.052-2.132,0-.748-2.814-.748-6.77ZM469.7,255.666h42.978v-3.005c-12.082,0-10.175,1.788-10.175-9.052l8.678.381a17.131,17.131,0,0,1,.374-2.625c-2.132-.989-12.081-3.689-12.081,4.907l.374,6.389H492.7v-11.3c-4.114-.951-4.152-.76-8.3-.76-6.135,0-4.9,5.59-4.9,12.056h-7.182V235.736H469.7v19.93Z" transform="translate(-2893.102 4868.391)" fill="#fff" fill-rule="evenodd"/>
      <path id="Path_3" data-name="Path 3" d="M457.614,261.675l1.159,2.244c3.068-1.635,4.9-3.917,4.9-7.911V241.746c0-1.294-.673-1.141-1.907-1.141-1.758,0-1.122,3-1.122,4.906,0,4.488.785,12.551-1.2,14.567l-1.833,1.6Z" transform="translate(-2893.102 4868.391)" fill="#fff" fill-rule="evenodd"/>
      <path id="Path_4" data-name="Path 4" d="M405.584,259.773c0,3.271,6.134,1.636,2.693-1.521-.037-.076-.187-.152-.224-.19s-.15-.114-.187-.152c-1.085.228-2.282.57-2.282,1.863Z" transform="translate(-2893.102 4868.391)" fill="#fff" fill-rule="evenodd"/>
      <path id="Path_5" data-name="Path 5" d="M487.014,233.835c-.225,1.027-.374.722-.374,1.521,0,2.206,3.4,2.7,3.4-.38,0-1.94-1.945-1.522-3.03-1.141Z" transform="translate(-2893.102 4868.391)" fill="#fff" fill-rule="evenodd"/>
      <path id="Path_6" data-name="Path 6" d="M401.058,259.773c0,1.332,2.8,3.728,3.778-.38l-.337-.38-.187-.19-.972-.913c-1.085.228-2.282.57-2.282,1.863Z" transform="translate(-2893.102 4868.391)" fill="#fff" fill-rule="evenodd"/>
      <path id="Path_7" data-name="Path 7" d="M482.525,233.835c-.262,1.027-.411.722-.411,1.521,0,2.206,3.4,2.7,3.4-.38,0-1.94-1.945-1.522-2.993-1.141Z" transform="translate(-2893.102 4868.391)" fill="#fff" fill-rule="evenodd"/>
      <path id="Path_8" data-name="Path 8" d="M425.558,234.976c0,1.407.973,1.749,1.908,2.244,4.039-2.13.486-3.728,0-3.728a2.52,2.52,0,0,0-1.908,1.484Z" transform="translate(-2893.102 4868.391)" fill="#fff" fill-rule="evenodd"/>
      <path id="Path_9" data-name="Path 9" d="M387.48,233.835c-.486,2.053-1.01,2.053,1.534,3.385l1.945-1.788c-.861-1.483-.861-2.586-3.479-1.6Z" transform="translate(-2893.102 4868.391)" fill="#fff" fill-rule="evenodd"/>
      <path id="Path_10" data-name="Path 10" d="M444.821,235.356c3.329,4.982,5.274-1.864,1.871-1.864-1.235,0-1.459,1.065-1.871,1.864Z" transform="translate(-2893.102 4868.391)" fill="#fff" fill-rule="evenodd"/>
      <path id="Path_11" data-name="Path 11" d="M423.314,230.45c0,3.727,7.069.874,1.87-1.864-.412.266-1.87,1.369-1.87,1.864Z" transform="translate(-2893.102 4868.391)" fill="#fff" fill-rule="evenodd"/>
      <path id="Path_12" data-name="Path 12" d="M440.3,234.976c2.544,4.868,3.741.456,3.741.38a2.124,2.124,0,0,0-1.87-1.864c-1.048,0-.337-.3-1.871,1.484Z" transform="translate(-2893.102 4868.391)" fill="#fff" fill-rule="evenodd"/>
      <path id="Path_13" data-name="Path 13" d="M421.032,235.356c.935,1.331.486,1.141,1.908,1.864,4.039-2.13.486-3.728,0-3.728-1.235,0-1.459,1.065-1.908,1.864Z" transform="translate(-2893.102 4868.391)" fill="#fff" fill-rule="evenodd"/>
      <path id="Path_14" data-name="Path 14" d="M499.181,275.536v13.9c0,1.976,1.121,1.594,3.769,1.594v-11.2l2.037,2.739c1.223,1.629,5.246,8.458,7.08,8.458,3.87,0,2.648-.242,2.648-15.5,0-1.941-1.12-1.594-3.769-1.594v11.232c-1.833-2.15-6.875-11.232-9.116-11.232-1.732,0-2.649-.208-2.649,1.594Z" transform="translate(-2893.102 4868.391)" fill="#fff" fill-rule="evenodd"/>
      <path id="Path_15" data-name="Path 15" d="M364.014,282.5c0-7.072,9.626-9.36,9.626,1.04,0,6.518-9.626,6.864-9.626-1.04ZM360.8,281.43c0,3.57-.407,7.072,4.279,9.082,3.208,1.422,7.435.52,12.885.52v-2.669h-2.7c8.81-16.571-14.465-19.379-14.465-6.933Z" transform="translate(-2893.102 4868.391)" fill="#fff" fill-rule="evenodd"/>
      <path id="Path_16" data-name="Path 16" d="M406.9,281.95v-5.339c1.782,1.005,5.908-.693,5.908,2.669,0,2.358-3.413,2.67-5.908,2.67Zm-3.209,9.082H406.9v-6.413c3.107.069,2.292.451,3.769,2.669.865,1.248,1.782,2.427,2.7,3.744h3.769c-.561-1.941-3.667-5.165-4.839-6.933,3.616-1.907,3.718-1.248,3.718-6.413,0-4.4-9.473-3.744-12.325-3.744v17.09Z" transform="translate(-2893.102 4868.391)" fill="#fff" fill-rule="evenodd"/>
      <path id="Path_17" data-name="Path 17" d="M448.761,291.032h3.769v-7.488h7.486v7.488h3.209v-17.09h-3.209c0,8.32,1.427,6.933-7.486,6.933v-6.933h-3.769v17.09Z" transform="translate(-2893.102 4868.391)" fill="#fff" fill-rule="evenodd"/>
      <path id="Path_18" data-name="Path 18" d="M476.11,278.76l2.139,5.339h-3.768c.509-2.149,1.426-2.739,1.629-5.339Zm-8.047,12.272h3.769a28.962,28.962,0,0,1,1.579-4.264h6.468c.153,1.942.662,2.531,1.07,4.264h3.717c-.865-3.917-6.162-14.005-6.417-17.09h-3.208c-2.7,5.061-4.431,11.821-6.978,17.09Z" transform="translate(-2893.102 4868.391)" fill="#fff" fill-rule="evenodd"/>
      <path id="Path_19" data-name="Path 19" d="M389.734,279.28c1.324.971,1.731,2.947,2.19,4.819h-3.769a15.869,15.869,0,0,0,1.579-4.819Zm-7.487,11.752h3.208a28.85,28.85,0,0,0,1.63-4.264H393.5c.2,2.566.866,1.7,1.07,4.264h3.769l-3.209-8.562a59.448,59.448,0,0,1-3.208-8.528h-3.26c-1.12,2.357-6.264,14.976-6.417,17.09Z" transform="translate(-2893.102 4868.391)" fill="#fff" fill-rule="evenodd"/>
      <path id="Path_20" data-name="Path 20" d="M347.92,279.28c1.324.971,1.732,2.947,2.139,4.819h-3.768a27.053,27.053,0,0,0,1.629-4.819Zm-7.486,11.752c4.481,0,2.954-.45,4.787-4.264h6.468c.2,2.566.866,1.7,1.07,4.264h3.717c-.865-3.917-6.162-14.005-6.417-17.09h-3.208c-1.223,2.253-6.214,14.49-6.417,17.09Z" transform="translate(-2893.102 4868.391)" fill="#fff" fill-rule="evenodd"/>
      <path id="Path_21" data-name="Path 21" d="M430.528,281.95c0,11.4,8.658,9.082,12.885,9.082v-3.189c-2.342.173-9.065,2.565-9.574-4.923a5.753,5.753,0,0,1,5.806-6.309c1.833,0,2.088.416,3.768.555,0-3.71.357-3.224-5.907-3.224-3.82,0-6.978,4.056-6.978,8.008Z" transform="translate(-2893.102 4868.391)" fill="#fff" fill-rule="evenodd"/>
      <path id="Path_22" data-name="Path 22" d="M489.5,291.032h3.209V273.942H489.5v17.091Z" transform="translate(-2893.102 4868.391)" fill="#fff" fill-rule="evenodd"/>
      <path id="Path_23" data-name="Path 23" d="M298.286,260.369c9.043,0,14.067,2.907,14.067,13.166,0,16.414-23.612,15.73-25.2.57-.67-6.383,4.605-13.736,11.136-13.736Zm98.134-102.76h4.6c11.3,1.254,20.682,11.171,20.682,21.088,0,14.989-9.964,24.564-22.859,24.564-11.973,0-15.323-6.9-19.426-9.632-3.935.912-6.028,3.306-7.954,6.1,1.34,5.015,4.27,4.046,4.438,10.544,4.94-3.591-.838-5.928-2.177-9.4-3.266-8.72,15.406-4.559,15.406,8.55,0,6.5-13.815,15.046-16.746,15.787,0,19.891-19.091,29.979-34.414,21.088-2.847-1.71-6.112-3.363-7.033-7.01a12.6,12.6,0,0,0-8.876,7.01c2.177,4.1,4.438,4.844,4.438,10.544,5.275-3.876-2.094-6.213-2.68-13.166,4.019-2.109,6.2-1.881,9.964,1.482,12.9,11.4,2.094,19.777-10.8,26.616,0,7.751-2.344,12.425-6.364,16.472-16.411,16.528-39.521,2.051-39.521-13.85,0-15.047,10.718-24.565,22.105-24.565,14.318,0,18.421,9.461,21.1,11.4l5.275-3.533c-6.2,2.45-14.988-6.213-14.988-12.254,0-7.694,10.048-12.767,15.909-16.7,0-8.55,1.674-12.311,5.61-17.213,2.679-3.419,8.959-7.352,14.653-7.352,18.505,0,16.328,6.1,22.943,10.487,2.511-.627,2.679-1.14,4.437-2.622-7.284-.171-14.15-6.9-14.15-14.02,0-6.612,13.4-14.306,15.909-14.933,0-8.549,1.591-13.336,5.861-17.839,4.689-4.787,9.713-7.124,14.653-7.637Zm-47.9,56.2c18.505,0,17.668,25.477.921,25.477-18,0-15.741-25.477-.921-25.477Zm37.931-31.632c0-8.093,3.182-14.989,12.978-14.476,15.993.855,16.579,23.538.754,25.362-6.28.684-13.732-3.989-13.732-10.886Z" transform="translate(-2893.102 4868.391)" fill="#fbe539" fill-rule="evenodd"/>
    </g>
  </g>
</svg>
