<svg xmlns="http://www.w3.org/2000/svg" viewBox="0 0 222.81 129.25"><defs><style>.cls-1,.cls-2{fill-rule:evenodd;}.cls-2{fill:#fae439;}</style></defs><title>Aqarchain Logo</title><g id="Layer_2" data-name="Layer 2"><g id="Layer_1-2" data-name="Layer 1"><path class="cls-1" d="M109.45,94.69c0,2.28-6.83,1.39-9.18,1.39-.63-7.27-.35-2.74.35-10.9a21.19,21.19,0,0,1-2.49-.36l-.7,5.81v4.63c.42,2.25,1.82,3.64,5.29,3.64,3,0,6.24.46,8.1-1.46,2.31-2.43-.56-5.28,2.49-5.6l19.45,0c.77,0,1.72,0,2.49,0,1.71-.11.94-.18,2.35-.5,1.71-.43,2.48.5,4.69.5H158.2v-13c0-1.29-.77-1.07-2.48-1.07,0,12.65.91,11.36-3.16,11.29-1.44,0-2.84,0-4.24,0,.35-4.52.81-5.88-.39-10.94-2.31,0-2.73-.18-2.31,2.25,1.16,6.38.21,4.81.21,8.69-7.25,0-6,1.32-6-8.48h-2.49c0,9.8,1.16,8.48-6.34,8.48V80.58c-3.65,0-2.84-1.1-2.84,8.48h-6.73V78.84c0-1.29-.74-1.07-2.46-1.07V89.06h-7.07V77.77h-2.46V94.69Z"/><path class="cls-1" d="M192.48,82.72V80.58h7.05c0,10.27,1.61,8.48-6.35,8.48-2,0-.7-2.63-.7-6.34Zm-12,9.16h40.27V89.06c-11.32,0-9.53,1.68-9.53-8.48l8.13.36a15.32,15.32,0,0,1,.35-2.46c-2-.93-11.32-3.46-11.32,4.6l.35,6H202V78.48c-3.85-.89-3.89-.71-7.78-.71-5.74,0-4.59,5.24-4.59,11.29h-6.73V73.2h-2.45V91.88Z"/><path class="cls-1" d="M169.14,97.51l1.09,2.1c2.87-1.53,4.59-3.67,4.59-7.41V78.84c0-1.22-.63-1.07-1.79-1.07-1.65,0-1.05,2.81-1.05,4.59,0,4.21.73,11.76-1.12,13.65l-1.72,1.5Z"/><path class="cls-1" d="M120.39,95.73c0,3.06,5.74,1.53,2.52-1.43,0-.07-.17-.14-.21-.18l-.18-.14c-1,.22-2.13.54-2.13,1.75Z"/><path class="cls-1" d="M196.69,71.42c-.21,1-.35.68-.35,1.43,0,2.07,3.19,2.53,3.19-.36,0-1.82-1.83-1.42-2.84-1.07Z"/><path class="cls-1" d="M116.15,95.73c0,1.24,2.62,3.49,3.54-.36l-.32-.36-.17-.17-.92-.86c-1,.22-2.13.54-2.13,1.75Z"/><path class="cls-1" d="M192.48,71.42c-.24,1-.38.68-.38,1.43,0,2.07,3.18,2.53,3.18-.36,0-1.82-1.82-1.42-2.8-1.07Z"/><path class="cls-1" d="M139.1,72.49c0,1.32.91,1.64,1.79,2.1,3.79-2,.46-3.49,0-3.49a2.36,2.36,0,0,0-1.79,1.39Z"/><path class="cls-1" d="M103.42,71.42c-.45,1.93-.94,1.93,1.44,3.17l1.82-1.67c-.8-1.39-.8-2.42-3.26-1.5Z"/><path class="cls-1" d="M157.15,72.85c3.12,4.67,4.94-1.75,1.75-1.75-1.15,0-1.36,1-1.75,1.75Z"/><path class="cls-1" d="M137,68.25c0,3.49,6.62.82,1.75-1.74-.38.24-1.75,1.28-1.75,1.74Z"/><path class="cls-1" d="M152.91,72.49c2.38,4.56,3.51.43,3.51.36a2,2,0,0,0-1.76-1.75c-1,0-.31-.28-1.75,1.39Z"/><path class="cls-1" d="M134.86,72.85c.88,1.25.46,1.07,1.79,1.74,3.78-2,.45-3.49,0-3.49-1.16,0-1.37,1-1.79,1.75Z"/><path class="cls-1" d="M208.09,110.5v13c0,1.85,1,1.5,3.53,1.5V114.53l1.91,2.56c1.14,1.53,4.91,7.93,6.63,7.93,3.63,0,2.48-.23,2.48-14.52,0-1.82-1-1.5-3.53-1.5v10.53c-1.72-2-6.44-10.53-8.54-10.53-1.62,0-2.48-.19-2.48,1.5Z"/><path class="cls-1" d="M81.44,117c0-6.63,9-8.77,9,1,0,6.11-9,6.43-9-1Zm-3-1c0,3.35-.38,6.63,4,8.51,3,1.33,7,.49,12.07.49v-2.5H92c8.26-15.53-13.55-18.16-13.55-6.5Z"/><path class="cls-1" d="M121.62,116.51v-5c1.67,1,5.53-.65,5.53,2.51,0,2.2-3.19,2.5-5.53,2.5Zm-3,8.51h3v-6c2.91.06,2.14.42,3.53,2.5.81,1.17,1.67,2.27,2.53,3.51h3.53c-.53-1.82-3.44-4.84-4.53-6.5,3.38-1.79,3.48-1.17,3.48-6,0-4.12-8.88-3.51-11.55-3.51v16Z"/><path class="cls-1" d="M160.84,125h3.54v-7h7v7h3V109h-3c0,7.8,1.34,6.5-7,6.5V109h-3.54v16Z"/><path class="cls-1" d="M186.47,113.52l2,5h-3.53c.48-2,1.34-2.57,1.53-5ZM178.93,125h3.53a27.19,27.19,0,0,1,1.48-4H190c.14,1.82.62,2.37,1,4h3.49c-.81-3.67-5.78-13.13-6-16h-3c-2.53,4.75-4.15,11.08-6.54,16Z"/><path class="cls-1" d="M105.54,114c1.24.91,1.62,2.76,2,4.51h-3.53a15.14,15.14,0,0,0,1.48-4.51Zm-7,11h3a27.31,27.31,0,0,0,1.52-4h6c.19,2.41.81,1.59,1,4h3.53l-3-8a55.25,55.25,0,0,1-3-8h-3.06c-1,2.21-5.87,14-6,16Z"/><path class="cls-1" d="M66.36,114c1.24.91,1.62,2.76,2,4.51H64.83A26.25,26.25,0,0,0,66.36,114Zm-7,11c4.2,0,2.77-.43,4.49-4h6.06c.19,2.41.81,1.59,1,4h3.48c-.81-3.67-5.77-13.13-6-16h-3c-1.14,2.11-5.82,13.58-6,16Z"/><path class="cls-1" d="M143.76,116.51c0,10.68,8.11,8.51,12.07,8.51v-3c-2.19.16-8.49,2.4-9-4.61a5.4,5.4,0,0,1,5.44-5.92c1.72,0,2,.39,3.53.52,0-3.47.34-3-5.53-3-3.58,0-6.54,3.8-6.54,7.51Z"/><polygon class="cls-1" points="199.02 125.02 202.03 125.02 202.03 109 199.02 109 199.02 125.02 199.02 125.02"/><path class="cls-2" d="M19.85,96.29C28.32,96.29,33,99,33,108.62c0,15.38-22.12,14.74-23.62.54-.62-6,4.32-12.87,10.44-12.87ZM111.8,0h4.32c10.59,1.17,19.37,10.47,19.37,19.76,0,14-9.33,23-21.41,23-11.22,0-14.36-6.47-18.21-9-3.68.86-5.65,3.1-7.45,5.72,1.26,4.69,4,3.79,4.16,9.87,4.63-3.36-.79-5.55-2-8.81-3.06-8.17,14.43-4.27,14.43,8,0,6.09-12.94,14.1-15.69,14.8C89.28,82,71.4,91.43,57,83.1c-2.67-1.61-5.73-3.16-6.59-6.57a11.81,11.81,0,0,0-8.32,6.57c2,3.84,4.16,4.53,4.16,9.88,4.94-3.64-2-5.83-2.51-12.34,3.76-2,5.8-1.76,9.33,1.39C65.2,92.71,55.08,100.56,43,107c0,7.26-2.19,11.64-6,15.43-15.38,15.49-37,1.92-37-13,0-14.1,10-23,20.71-23,13.42,0,17.26,8.86,19.77,10.68l5-3.31c-5.81,2.29-14-5.82-14-11.49,0-7.21,9.42-12,14.91-15.64,0-8,1.57-11.54,5.26-16.13,2.51-3.2,8.39-6.89,13.73-6.89,17.33,0,15.29,5.71,21.49,9.83,2.36-.59,2.51-1.07,4.16-2.46-6.82-.16-13.26-6.46-13.26-13.14,0-6.19,12.55-13.4,14.91-14,0-8,1.49-12.5,5.49-16.71C102.46,2.67,107.17.48,111.8,0ZM66.92,52.66c17.34,0,16.56,23.87.87,23.87-16.87,0-14.75-23.87-.87-23.87ZM102.46,23c0-7.59,3-14,12.16-13.57,15,.8,15.54,22.06.71,23.77-5.88.64-12.87-3.74-12.87-10.2Z"/></g></g></svg>