<svg xmlns="http://www.w3.org/2000/svg" width="32.124" height="33.044" viewBox="0 0 32.124 33.044">
  <g id="metamask" transform="translate(1.861 0.959)">
    <path id="Path_44997" data-name="Path 44997" d="M315.921,290.9l-1.8,6.072-3.525-.964Z" transform="translate(-287.88 -269.563)" fill="#e4761b" stroke="#e4761b" stroke-width="1"/>
    <path id="Path_44998" data-name="Path 44998" d="M310.6,296.008l3.4-4.659,1.921-.449Z" transform="translate(-287.88 -269.563)" fill="#e4761b" stroke="#e4761b" stroke-width="1"/>
    <path id="Path_44999" data-name="Path 44999" d="M347,213.878l2.642,4.578-1.921.449Zm0,0,1.7-1.178.942,5.756Z" transform="translate(-321.601 -197.119)" fill="#f6851b" stroke="#f6851b" stroke-width="1"/>
    <path id="Path_45000" data-name="Path 45000" d="M317.6,156.5l4.887-2-.243,1.1Zm4.49.412-4.49-.412,4.644-.905Z" transform="translate(-294.364 -143.202)" fill="#763d16" stroke="#763d16" stroke-width="1"/>
    <path id="Path_45001" data-name="Path 45001" d="M322.09,156.914l-.626,1.869L317.6,156.5Zm.979-1.95-.824.633.243-1.1Zm-.979,1.95.155-1.317.655.545Z" transform="translate(-294.364 -143.202)" fill="#763d16" stroke="#763d16" stroke-width="1"/>
    <path id="Path_45002" data-name="Path 45002" d="M259.1,340.2l1.222.39,2.569,1.089Z" transform="translate(-240.17 -315.235)" fill="#e2761b" stroke="#e2761b" stroke-width="1"/>
    <path id="Path_45003" data-name="Path 45003" d="M306.271,183.982l.626-1.869.537.412Zm0,0-5.071-1.671,1.207-.611Z" transform="translate(-279.171 -168.4)" fill="#763d16" stroke="#763d16" stroke-width="1"/>
    <path id="Path_45004" data-name="Path 45004" d="M303.614,103.8l-1.207,5.733-1.207.611Z" transform="translate(-279.171 -96.234)" fill="#763d16" stroke="#763d16" stroke-width="1"/>
    <path id="Path_45005" data-name="Path 45005" d="M322.487,107.532l-4.887,2,1.207-5.733Z" transform="translate(-294.364 -96.234)" fill="#763d16" stroke="#763d16" stroke-width="1"/>
    <path id="Path_45006" data-name="Path 45006" d="M334,96.389l5.1-.589-1.42,4.32Z" transform="translate(-309.557 -88.823)" fill="#763d16" stroke="#763d16" stroke-width="1"/>
    <path id="Path_45007" data-name="Path 45007" d="M306.271,191.671l-1.7,1.178L301.2,190Z" transform="translate(-279.171 -176.09)" fill="#f6851b" stroke="#f6851b" stroke-width="1"/>
    <path id="Path_45008" data-name="Path 45008" d="M338.88,39.7l.221,4.129-5.1.589Z" transform="translate(-309.557 -36.852)" fill="#763d16" stroke="#763d16" stroke-width="1"/>
    <path id="Path_45009" data-name="Path 45009" d="M270.326,39.7l-10.194,7.412L260,42.085Z" transform="translate(-241.004 -36.852)" fill="#e2761b" stroke="#e2761b" stroke-width="1"/>
    <path id="Path_45010" data-name="Path 45010" d="M157,63.9l7.581.6.132,5.027Z" transform="translate(-145.585 -59.271)" fill="#f6851b" stroke="#f6851b" stroke-width="1"/>
    <path id="Path_45011" data-name="Path 45011" d="M264.7,110.144l-2.9-3.651,5.314-2.694Z" transform="translate(-242.671 -96.234)" fill="#763d16" stroke="#763d16" stroke-width="1"/>
    <path id="Path_45012" data-name="Path 45012" d="M284.062,190l3.371,2.848-4.732.523Z" transform="translate(-262.033 -176.09)" fill="#e4761b" stroke="#e4761b" stroke-width="1"/>
    <path id="Path_45013" data-name="Path 45013" d="M263.338,147.421,261.8,140.4l2.9,3.651Z" transform="translate(-242.671 -130.14)" fill="#e4761b" stroke="#e4761b" stroke-width="1"/>
    <path id="Path_45014" data-name="Path 45014" d="M267.114,44.418,261.8,47.112,271.994,39.7Z" transform="translate(-242.671 -36.852)" fill="#763d16" stroke="#763d16" stroke-width="1"/>
    <path id="Path_45015" data-name="Path 45015" d="M146.968,352.771l2.407,2.51L146.1,352.3Z" transform="translate(-135.487 -326.444)" fill="#c0ad9e" stroke="#c0ad9e" stroke-width="1"/>
    <path id="Path_45016" data-name="Path 45016" d="M310.6,301.659l1.141-4.335L314,297Z" transform="translate(-287.88 -275.214)" fill="#cd6116" stroke="#cd6116" stroke-width="1"/>
    <path id="Path_45017" data-name="Path 45017" d="M25.3,139.479l4.166-4.379-3.628,3.857Z" transform="translate(-23.578 -125.23)" fill="#e2761b" stroke="#e2761b" stroke-width="1"/>
    <path id="Path_45018" data-name="Path 45018" d="M171.705,81.056l-2.26.324,1.538-5.351ZM164.713,69.53l-4.055-.132L157,63.9Z" transform="translate(-145.585 -59.271)" fill="#f6851b" stroke="#f6851b" stroke-width="1"/>
    <path id="Path_45019" data-name="Path 45019" d="M326.063,228.7l-1.538,5.351-.125-2.613Z" transform="translate(-300.664 -211.941)" fill="#e4751f" stroke="#e4751f" stroke-width="1"/>
    <path id="Path_45020" data-name="Path 45020" d="M282.7,229.223l4.732-.523-1.663,2.738Z" transform="translate(-262.033 -211.941)" fill="#cd6116" stroke="#cd6116" stroke-width="1"/>
    <path id="Path_45021" data-name="Path 45021" d="M206.7,138.6l4.055.132,1.538,7.021Z" transform="translate(-191.627 -128.473)" fill="#f6851b" stroke="#f6851b" stroke-width="1"/>
    <path id="Path_45022" data-name="Path 45022" d="M16.973,11.127,6.029,1l7.286,4.629ZM13.308,28.865,3.8,31.809l-1.9-7.25Z" transform="translate(-1.9 -1)" fill="#e4761b" stroke="#e4761b" stroke-width="1"/>
    <path id="Path_45023" data-name="Path 45023" d="M44.5,183.719l3.592-2.819,3.01.7Z" transform="translate(-41.365 -167.659)" fill="#763d16" stroke="#763d16" stroke-width="1"/>
    <path id="Path_45024" data-name="Path 45024" d="M96.31,97.853l-3.01-.7L94.912,90.5Z" transform="translate(-86.573 -83.913)" fill="#763d16" stroke="#763d16" stroke-width="1"/>
    <path id="Path_45025" data-name="Path 45025" d="M32.6,181.386l4.468-.486-3.592,2.819Z" transform="translate(-30.341 -167.659)" fill="#763d16" stroke="#763d16" stroke-width="1"/>
    <path id="Path_45026" data-name="Path 45026" d="M285.769,238.015l-1.855-.935L282.7,235.8Z" transform="translate(-262.033 -218.519)" fill="#cd6116" stroke="#cd6116" stroke-width="1"/>
    <path id="Path_45027" data-name="Path 45027" d="M28.616,166.471,28.3,164.8l4.784,1.185Z" transform="translate(-26.357 -152.744)" fill="#763d16" stroke="#763d16" stroke-width="1"/>
    <path id="Path_45028" data-name="Path 45028" d="M294,255.3l.383-2.1,1.855.935Z" transform="translate(-272.501 -234.638)" fill="#233447" stroke="#233447" stroke-width="1"/>
    <path id="Path_45029" data-name="Path 45029" d="M296.363,268.513,294,267.07l2.237-1.17Z" transform="translate(-272.501 -246.403)" fill="#f6851b" stroke="#f6851b" stroke-width="1"/>
    <path id="Path_45030" data-name="Path 45030" d="M28.174,97.153,23.39,95.968,23,94.563ZM29.786,90.5l-1.612,6.653L23,94.563Zm0,0,6.734,3.54-5.336,3.812Z" transform="translate(-21.447 -83.913)" fill="#763d16" stroke="#763d16" stroke-width="1"/>
    <path id="Path_45031" data-name="Path 45031" d="M134.2,142.412l5.336-3.812,2.377,7.264Zm7.713,3.452-7.375-.155-.339-3.3Z" transform="translate(-124.463 -128.473)" fill="#e4761b" stroke="#e4761b" stroke-width="1"/>
    <path id="Path_45032" data-name="Path 45032" d="M44.5,144.532l6.6-2.12.339,3.3Zm17.532,1.222-3.216.11L56.438,138.6Z" transform="translate(-41.365 -128.473)" fill="#f6851b" stroke="#f6851b" stroke-width="1"/>
    <path id="Path_45033" data-name="Path 45033" d="M283.914,237.081l-.383,2.1L282.7,235.8Z" transform="translate(-262.033 -218.519)" fill="#cd6116" stroke="#cd6116" stroke-width="1"/>
    <path id="Path_45034" data-name="Path 45034" d="M58,1,68.944,11.127,62.21,7.587Z" transform="translate(-53.871 -1)" fill="#763d16" stroke="#763d16" stroke-width="1"/>
    <path id="Path_45035" data-name="Path 45035" d="M1.9,316.283l9.229-.383,2.179,4.688Z" transform="translate(-1.9 -292.723)" fill="#e4761b" stroke="#e4761b" stroke-width="1"/>
    <path id="Path_45036" data-name="Path 45036" d="M129.479,317.809l-2.179-4.688,4.534-.221Z" transform="translate(-118.071 -289.944)" fill="#cd6116" stroke="#cd6116" stroke-width="1"/>
    <path id="Path_45037" data-name="Path 45037" d="M23.4,223.807l2.363,1.443,1.3,3.069Zm-11.423-3.43L1.9,226.7l3.135-7.5Zm-.846,5.94L1.9,226.7l10.076-6.322Zm11.437-5.9.6,2.193-2.915.169Zm-2.311,2.363-.905-2.252,3.216-.11Z" transform="translate(-1.9 -203.14)" fill="#f6851b" stroke="#f6851b" stroke-width="1"/>
    <path id="Path_45038" data-name="Path 45038" d="M159.38,380.572l-2.48-.972,8.626,1.45Z" transform="translate(-145.492 -351.735)" fill="#c0ad9e" stroke="#c0ad9e" stroke-width="1"/>
    <path id="Path_45039" data-name="Path 45039" d="M26.713,189.833,25.3,188.023l.537-.523Z" transform="translate(-23.578 -173.773)" fill="#763d16" stroke="#763d16" stroke-width="1"/>
    <path id="Path_45040" data-name="Path 45040" d="M166.5,379.975l-.979,1.075L156.9,379.6Z" transform="translate(-145.492 -351.735)" fill="#d7c1b3" stroke="#d7c1b3" stroke-width="1"/>
    <path id="Path_45041" data-name="Path 45041" d="M166.969,315.55l-10.069,2.26,2.355-4.909Z" transform="translate(-145.492 -289.944)" fill="#e4761b" stroke="#e4761b" stroke-width="1"/>
    <path id="Path_45042" data-name="Path 45042" d="M156.9,351.16l10.068-2.26-.464,2.635Z" transform="translate(-145.492 -323.294)" fill="#d7c1b3" stroke="#d7c1b3" stroke-width="1"/>
    <path id="Path_45043" data-name="Path 45043" d="M18.831,74.46,18.5,68.8l7.117,1.6Zm.707,3.076-.979-.994.662-.677Z" transform="translate(-17.278 -63.81)" fill="#763d16" stroke="#763d16" stroke-width="1"/>
    <path id="Path_45044" data-name="Path 45044" d="M216.6,238.757l1.649-1.457-.236,3.562Z" transform="translate(-200.798 -219.908)" fill="#cd6116" stroke="#cd6116" stroke-width="1"/>
    <path id="Path_45045" data-name="Path 45045" d="M188.048,237.3l-1.649,1.457L184,240Z" transform="translate(-170.597 -219.908)" fill="#cd6116" stroke="#cd6116" stroke-width="1"/>
    <path id="Path_45046" data-name="Path 45046" d="M297.665,286.312l-.449-.331L294,281.8Z" transform="translate(-272.501 -261.133)" fill="#f6851b" stroke="#f6851b" stroke-width="1"/>
    <path id="Path_45047" data-name="Path 45047" d="M142.127,238.056,138.8,235.2l7.375.155Z" transform="translate(-128.724 -217.963)" fill="#cd6116" stroke="#cd6116" stroke-width="1"/>
    <path id="Path_45048" data-name="Path 45048" d="M235.8,240.862l.236-3.562.905,2.252Z" transform="translate(-218.585 -219.908)" fill="#e4751f" stroke="#e4751f" stroke-width="1"/>
    <path id="Path_45049" data-name="Path 45049" d="M14.9,146.259l.6-.559.39,1.406Z" transform="translate(-13.943 -135.05)" fill="#763d16" stroke="#763d16" stroke-width="1"/>
    <path id="Path_45050" data-name="Path 45050" d="M187.812,259.2,184,258.344l2.4-1.244Z" transform="translate(-170.597 -238.251)" fill="#233447" stroke="#233447" stroke-width="1"/>
    <path id="Path_45051" data-name="Path 45051" d="M25.617,7.587,18.5,5.99,21.407,1Z" transform="translate(-17.278 -1)" fill="#763d16" stroke="#763d16" stroke-width="1"/>
    <path id="Path_45052" data-name="Path 45052" d="M196.746,393.278l.4,1.1L190.6,392.8Z" transform="translate(-176.712 -363.963)" fill="#c0ad9e" stroke="#c0ad9e" stroke-width="1"/>
    <path id="Path_45053" data-name="Path 45053" d="M184.361,276.863,184,274l3.812.861Z" transform="translate(-170.597 -253.907)" fill="#f6851b" stroke="#f6851b" stroke-width="1"/>
    <path id="Path_45054" data-name="Path 45054" d="M138.8,235.2l3.327,2.856.361,2.863Z" transform="translate(-128.724 -217.963)" fill="#e4751f" stroke="#e4751f" stroke-width="1"/>
    <path id="Path_45055" data-name="Path 45055" d="M136.426,237.607l2.915-.169,3.444,5.373Zm-8.28-2.407,3.687,5.719-4.534.221Z" transform="translate(-118.071 -217.963)" fill="#f6851b" stroke="#f6851b" stroke-width="1"/>
    <path id="Path_45056" data-name="Path 45056" d="M236.941,267.9l3.621,5.513-4.762-4.2Z" transform="translate(-218.585 -248.256)" fill="#e4751f" stroke="#e4751f" stroke-width="1"/>
    <path id="Path_45057" data-name="Path 45057" d="M235.8,285.7l4.762,4.2-.5.449Z" transform="translate(-218.585 -264.746)" fill="#f6851b" stroke="#f6851b" stroke-width="1"/>
    <path id="Path_45058" data-name="Path 45058" d="M196.613,273.862l-7.713-2.65,3.452-2Zm3.238-.758-2.738.309-3.621-5.513Z" transform="translate(-175.137 -248.256)" fill="#f6851b" stroke="#f6851b" stroke-width="1"/>
    <path id="Path_45059" data-name="Path 45059" d="M279.5,373.8l-1.178,2.363-3.82.618Zm-5,2.981-.4-1.1.979-1.075Z" transform="translate(-254.066 -346.362)" fill="#c0ad9e" stroke="#c0ad9e" stroke-width="1"/>
    <path id="Path_45060" data-name="Path 45060" d="M280.174,374.6l.721-.287-1.3,2.466Zm-.574,2.179,1.3-2.466,3.7-.515Z" transform="translate(-259.161 -346.362)" fill="#c0ad9e" stroke="#c0ad9e" stroke-width="1"/>
    <path id="Path_45061" data-name="Path 45061" d="M314.447,338.6l.905.552-2.753.331Z" transform="translate(-289.732 -313.752)" fill="#161616" stroke="#161616" stroke-width="1"/>
    <path id="Path_45062" data-name="Path 45062" d="M301.391,339.483l-.891-.574,2.738-.309Zm-.316.434,3.349-.4-.464,1.678Z" transform="translate(-278.523 -313.752)" fill="#161616" stroke="#161616" stroke-width="1"/>
    <path id="Path_45063" data-name="Path 45063" d="M291.823,345.082l-3.7.515.817-1.789Zm-3.7.515-.721.287.464-2.635Zm-.258-2.348.5-.449.891.574Zm4.144-.206.28.361-3.349.4Z" transform="translate(-266.387 -317.644)" fill="#161616" stroke="#161616" stroke-width="1"/>
    <path id="Path_45064" data-name="Path 45064" d="M294.775,346.865l.316-.434,2.753-.331Zm-1.075-.559,1.075.559-.817,1.789Z" transform="translate(-272.223 -320.701)" fill="#161616" stroke="#161616" stroke-width="1"/>
    <path id="Path_45065" data-name="Path 45065" d="M295.091,349.025l-.316.434L293.7,348.9Z" transform="translate(-272.223 -323.294)" fill="#161616" stroke="#161616" stroke-width="1"/>
  </g>
</svg>
