<svg id="Pop_Up_Wallet" data-name="Pop Up Wallet" xmlns="http://www.w3.org/2000/svg" width="52" height="51" viewBox="0 0 52 51">
  <g id="wallet-filled-money-tool" transform="translate(15.757 12.774)" opacity="0.72">
    <g id="Group_16669" data-name="Group 16669">
      <path id="Path_44980" data-name="Path 44980" d="M160.909,22.559l10.294-2.81-.545-1.1a1.451,1.451,0,0,0-1.943-.655L159.5,22.559Z" transform="translate(-154.875 -17.84)" fill="#fff"/>
      <path id="Path_44981" data-name="Path 44981" d="M332.187,86.46a1.449,1.449,0,0,0-.383.052l-2.418.661L322,89.189h12.037l-.452-1.659A1.447,1.447,0,0,0,332.187,86.46Z" transform="translate(-312.663 -84.47)" fill="#fff"/>
      <path id="Path_44982" data-name="Path 44982" d="M22.884,215.56H1.453a1.452,1.452,0,0,0-1.4,1.07,1.5,1.5,0,0,0-.052.38v16.154a1.45,1.45,0,0,0,1.45,1.45H22.882a1.45,1.45,0,0,0,1.45-1.45v-4.045h-8.6a2.466,2.466,0,0,1-2.465-2.465V223.43a2.461,2.461,0,0,1,2.462-2.462h8.606V217.01A1.446,1.446,0,0,0,22.884,215.56Z" transform="translate(0 -209.827)" fill="#fff"/>
      <path id="Path_44983" data-name="Path 44983" d="M503.471,437.141a1.447,1.447,0,0,0-.507-.3,1.477,1.477,0,0,0-.47-.078H493.85a1.45,1.45,0,0,0-1.45,1.45v3.227a1.45,1.45,0,0,0,1.45,1.45h8.644a1.478,1.478,0,0,0,.47-.078,1.405,1.405,0,0,0,.507-.3,1.445,1.445,0,0,0,.473-1.07v-3.227A1.444,1.444,0,0,0,503.471,437.141Zm-6.594,2.972a.725.725,0,0,1-.725.725h-.481a.725.725,0,0,1-.725-.725v-.481a.71.71,0,0,1,.278-.568.732.732,0,0,1,.447-.157h.481a.725.725,0,0,1,.725.725v.481Z" transform="translate(-478.122 -424.614)" fill="#fff"/>
    </g>
  </g>
  <g id="Ellipse_1670" data-name="Ellipse 1670" fill="none" stroke="#fff" stroke-width="1" opacity="0.2">
    <ellipse cx="26" cy="25.5" rx="26" ry="25.5" stroke="none"/>
    <ellipse cx="26" cy="25.5" rx="25.5" ry="25" fill="none"/>
  </g>
</svg>
