<svg xmlns="http://www.w3.org/2000/svg" width="13.797" height="19.992" viewBox="0 0 13.797 19.992">
  <g id="Staking" transform="translate(0.15 0.15)">
    <path id="Path_45066" data-name="Path 45066" d="M188.064,153.933a.442.442,0,0,0-.16-.005,1.058,1.058,0,0,1-.936-1.049.465.465,0,0,0-.931,0A1.991,1.991,0,0,0,187.5,154.8v.465a.465.465,0,1,0,.931,0v-.437a1.987,1.987,0,0,0-.407-3.932,1.057,1.057,0,1,1,1.057-1.057.465.465,0,1,0,.931,0,1.991,1.991,0,0,0-1.58-1.945v-.424a.465.465,0,1,0-.931,0v.452a1.987,1.987,0,0,0,.524,3.9,1.056,1.056,0,0,1,.039,2.111Zm0,0" transform="translate(-181.277 -138.449)" fill="#667685" stroke="#fff" stroke-miterlimit="10" stroke-width="0.3"/>
    <path id="Path_45067" data-name="Path 45067" d="M104.195,113.24a6.748,6.748,0,1,0,6.748-6.748A6.748,6.748,0,0,0,104.195,113.24Zm6.748-5.818a5.818,5.818,0,1,1-5.818,5.818A5.818,5.818,0,0,1,110.943,107.423Zm0,0" transform="translate(-104.195 -100.297)" fill="#667685" stroke="#fff" stroke-miterlimit="10" stroke-width="0.3"/>
    <path id="Path_45069" data-name="Path 45069" d="M213.134,4.886V.465a.465.465,0,1,0-.931,0V4.886a.465.465,0,1,0,.931,0Zm0,0" transform="translate(-205.92)" fill="#667685" stroke="#fff" stroke-miterlimit="10" stroke-width="0.3"/>
    <path id="Path_45070" data-name="Path 45070" d="M273.134,42.56V40.465a.465.465,0,1,0-.931,0V42.56a.465.465,0,1,0,.931,0Zm0,0" transform="translate(-262.429 -37.673)" fill="#667685" stroke="#fff" stroke-miterlimit="10" stroke-width="0.3"/>
    <path id="Path_45071" data-name="Path 45071" d="M153.134,42.56V40.465a.465.465,0,1,0-.931,0V42.56a.465.465,0,1,0,.931,0Zm0,0" transform="translate(-149.41 -37.673)" fill="#667685" stroke="#fff" stroke-miterlimit="10" stroke-width="0.3"/>
  </g>
</svg>
